<?xml version="1.0" encoding="UTF-8" standalone="no"?>
<!DOCTYPE svg PUBLIC "-//W3C//DTD SVG 1.1//EN" "http://www.w3.org/Graphics/SVG/1.1/DTD/svg11.dtd">
<svg width="100%" height="100%" viewBox="0 0 961 952" version="1.1" xmlns="http://www.w3.org/2000/svg" xmlns:xlink="http://www.w3.org/1999/xlink" xml:space="preserve" xmlns:serif="http://www.serif.com/" style="fill-rule:evenodd;clip-rule:evenodd;stroke-linejoin:round;stroke-miterlimit:2;">
    <g transform="matrix(1,0,0,1,0,-12026)">
        <g id="Artboard2" transform="matrix(0.347951,0,0,0.63075,1121.24,4440.39)">
            <rect x="-3222.41" y="12026.3" width="2760.8" height="1508.42" style="fill:none;"/>
            <g transform="matrix(23.9497,0,0,13.2118,-1096.74,12832.3)">
                <path d="M0,-6.765C0,-4.893 -0.594,-3.129 -1.695,-1.671C-3.783,-3.558 -6.548,-4.709 -9.577,-4.709C-10.445,-4.709 -11.149,-4.005 -11.149,-3.136C-11.149,-2.267 -10.445,-1.564 -9.577,-1.564C-4.824,-1.564 -0.956,2.303 -0.956,7.057C-0.956,11.81 -4.824,15.678 -9.577,15.678C-11.876,15.678 -14.039,14.783 -15.667,13.159C-16.282,12.546 -17.277,12.547 -17.89,13.161C-18.504,13.776 -18.503,14.772 -17.888,15.385C-16.079,17.191 -13.784,18.336 -11.299,18.698C-11.297,18.762 -11.297,18.825 -11.297,18.889C-11.297,22.89 -14.552,26.146 -18.554,26.146C-22.487,26.146 -25.811,22.822 -25.811,18.889L-25.811,11.542C-23.44,10.821 -21.209,9.528 -19.338,7.657C-13.251,1.57 -13.251,-8.335 -19.338,-14.422C-21.209,-16.293 -23.44,-17.586 -25.811,-18.307L-25.811,-25.654C-25.811,-29.519 -22.419,-32.911 -18.554,-32.911C-15.419,-32.911 -12.747,-30.961 -11.733,-28.152C-14.357,-28.035 -16.802,-26.95 -18.66,-25.068C-19.271,-24.451 -19.264,-23.455 -18.647,-22.845C-18.029,-22.235 -17.033,-22.24 -16.423,-22.859C-15.048,-24.25 -13.213,-25.017 -11.256,-25.017C-10.872,-25.017 -10.494,-24.987 -10.126,-24.929C-10.061,-24.914 -9.995,-24.903 -9.928,-24.895C-6.556,-24.269 -3.995,-21.306 -3.995,-17.756C-3.995,-17.027 -4.101,-16.316 -4.305,-15.641C-4.326,-15.586 -4.343,-15.531 -4.358,-15.475C-4.804,-14.116 -5.651,-12.91 -6.823,-12.004C-7.51,-11.473 -7.637,-10.486 -7.107,-9.799C-6.576,-9.111 -5.588,-8.984 -4.901,-9.515C-3.812,-10.356 -2.92,-11.378 -2.252,-12.523C-0.819,-10.971 0,-8.923 0,-6.765M-39.194,5.434C-41.549,3.079 -42.846,-0.052 -42.846,-3.382C-42.846,-6.712 -41.549,-9.844 -39.194,-12.198C-36.764,-14.629 -33.571,-15.844 -30.378,-15.844C-27.186,-15.844 -23.993,-14.629 -21.562,-12.198C-16.701,-7.337 -16.701,0.573 -21.562,5.434C-26.423,10.295 -34.333,10.295 -39.194,5.434M-34.945,18.889C-34.945,22.822 -38.269,26.146 -42.202,26.146C-46.204,26.146 -49.459,22.89 -49.459,18.889C-49.459,18.825 -49.459,18.762 -49.457,18.699C-46.972,18.336 -44.678,17.191 -42.868,15.385C-42.253,14.772 -42.252,13.776 -42.866,13.161C-43.479,12.547 -44.475,12.546 -45.089,13.159C-46.717,14.783 -48.88,15.678 -51.179,15.678C-55.932,15.678 -59.799,11.811 -59.799,7.057C-59.799,2.304 -55.932,-1.563 -51.179,-1.563C-50.31,-1.563 -49.606,-2.267 -49.606,-3.136C-49.606,-4.004 -50.31,-4.708 -51.179,-4.708C-54.208,-4.708 -56.973,-3.558 -59.06,-1.671C-60.162,-3.129 -60.756,-4.893 -60.756,-6.765C-60.756,-8.923 -59.937,-10.971 -58.503,-12.523C-57.836,-11.377 -56.944,-10.355 -55.855,-9.515C-55.168,-8.984 -54.18,-9.111 -53.649,-9.798C-53.118,-10.486 -53.245,-11.473 -53.933,-12.004C-55.105,-12.909 -55.951,-14.116 -56.398,-15.475C-56.412,-15.531 -56.43,-15.586 -56.451,-15.64C-56.655,-16.316 -56.761,-17.027 -56.761,-17.755C-56.761,-21.306 -54.2,-24.269 -50.827,-24.895C-50.76,-24.902 -50.694,-24.913 -50.63,-24.929C-50.261,-24.987 -49.884,-25.016 -49.499,-25.016C-47.543,-25.016 -45.708,-24.25 -44.333,-22.858C-43.722,-22.24 -42.726,-22.234 -42.109,-22.844C-41.491,-23.454 -41.485,-24.45 -42.095,-25.068C-43.954,-26.95 -46.398,-28.034 -49.023,-28.151C-48.008,-30.96 -45.337,-32.91 -42.202,-32.91C-38.336,-32.91 -34.945,-29.519 -34.945,-25.653L-34.945,-18.307C-37.315,-17.585 -39.547,-16.292 -41.417,-14.422C-44.367,-11.473 -45.991,-7.553 -45.991,-3.382C-45.991,0.788 -44.367,4.709 -41.418,7.658C-39.547,9.528 -37.315,10.821 -34.946,11.543L-34.946,18.889L-34.945,18.889ZM17.345,7.908C19.892,7.908 21.963,9.979 21.963,12.526C21.963,15.072 19.892,17.143 17.345,17.143C14.799,17.143 12.728,15.072 12.728,12.526C12.728,9.979 14.799,7.908 17.345,7.908M17.345,39.724C19.892,39.724 21.963,41.795 21.963,44.341C21.963,46.888 19.892,48.959 17.345,48.959C14.799,48.959 12.728,46.888 12.728,44.341C12.728,41.795 14.799,39.724 17.345,39.724M-78.102,48.959C-80.648,48.959 -82.72,46.888 -82.72,44.341C-82.72,41.795 -80.648,39.723 -78.102,39.723C-75.555,39.723 -73.484,41.795 -73.484,44.341C-73.484,46.888 -75.555,48.959 -78.102,48.959M-78.102,17.143C-80.648,17.143 -82.72,15.072 -82.72,12.526C-82.72,9.979 -80.648,7.907 -78.102,7.907C-75.555,7.907 -73.484,9.979 -73.484,12.526C-73.484,15.072 -75.555,17.143 -78.102,17.143M-78.102,-14.672C-80.648,-14.672 -82.72,-16.744 -82.72,-19.29C-82.72,-21.837 -80.648,-23.908 -78.102,-23.908C-75.555,-23.908 -73.484,-21.837 -73.484,-19.29C-73.484,-16.744 -75.555,-14.672 -78.102,-14.672M-78.102,-46.488C-80.648,-46.488 -82.72,-48.559 -82.72,-51.106C-82.72,-53.652 -80.648,-55.724 -78.102,-55.724C-75.555,-55.724 -73.484,-53.652 -73.484,-51.106C-73.484,-48.559 -75.555,-46.488 -78.102,-46.488M17.345,-55.724C19.892,-55.724 21.963,-53.652 21.963,-51.106C21.963,-48.559 19.892,-46.488 17.345,-46.488C14.799,-46.488 12.728,-48.559 12.728,-51.106C12.728,-53.652 14.799,-55.724 17.345,-55.724M17.345,-23.908C19.892,-23.908 21.963,-21.836 21.963,-19.29C21.963,-16.744 19.892,-14.672 17.345,-14.672C14.799,-14.672 12.728,-16.744 12.728,-19.29C12.728,-21.836 14.799,-23.908 17.345,-23.908M9.743,-17.717C10.473,-14.188 13.604,-11.527 17.345,-11.527C21.626,-11.527 25.108,-15.01 25.108,-19.29C25.108,-23.571 21.626,-27.053 17.345,-27.053C13.603,-27.053 10.471,-24.391 9.743,-20.862L-1.322,-20.853C-2.36,-24.172 -5.016,-26.783 -8.363,-27.753C-9.231,-32.048 -12.674,-35.294 -16.981,-35.937L-16.981,-49.523L9.743,-49.533C10.472,-46.004 13.604,-43.344 17.345,-43.344C21.626,-43.344 25.108,-46.826 25.108,-51.106C25.108,-55.387 21.626,-58.869 17.345,-58.869C13.604,-58.869 10.472,-56.207 9.743,-52.678L-18.555,-52.668C-19.423,-52.667 -20.127,-51.963 -20.127,-51.095L-20.127,-35.931C-25.051,-35.146 -28.956,-30.759 -28.956,-25.653L-28.956,-18.921C-29.902,-19.007 -30.855,-19.007 -31.801,-18.921L-31.801,-25.653C-31.801,-30.759 -35.706,-35.146 -40.63,-35.931L-40.63,-51.096C-40.63,-51.964 -41.334,-52.667 -42.202,-52.668L-70.499,-52.678C-71.228,-56.207 -74.36,-58.869 -78.102,-58.869C-82.382,-58.869 -85.865,-55.387 -85.865,-51.106C-85.865,-46.826 -82.382,-43.343 -78.102,-43.343C-74.36,-43.343 -71.229,-46.004 -70.499,-49.533L-43.775,-49.523L-43.775,-35.937C-48.083,-35.294 -51.525,-32.048 -52.393,-27.753C-55.741,-26.782 -58.397,-24.171 -59.434,-20.853L-70.499,-20.862C-71.228,-24.391 -74.36,-27.053 -78.102,-27.053C-82.382,-27.053 -85.865,-23.571 -85.865,-19.29C-85.865,-15.01 -82.382,-11.527 -78.102,-11.527C-74.36,-11.527 -71.229,-14.188 -70.5,-17.717L-59.905,-17.708C-59.902,-17.028 -59.836,-16.359 -59.707,-15.708C-62.351,-13.508 -63.901,-10.241 -63.901,-6.765C-63.901,-3.999 -62.902,-1.317 -61.124,0.776C-62.277,2.594 -62.945,4.749 -62.945,7.057C-62.945,8.419 -62.71,9.727 -62.282,10.944L-70.5,10.952C-71.229,7.423 -74.361,4.763 -78.102,4.763C-82.382,4.763 -85.865,8.245 -85.865,12.526C-85.865,16.806 -82.382,20.288 -78.102,20.288C-74.359,20.288 -71.227,17.627 -70.499,14.097L-60.607,14.088C-58.728,16.601 -55.87,18.341 -52.603,18.737C-52.604,18.788 -52.604,18.838 -52.604,18.889C-52.604,24.09 -48.767,28.411 -43.775,29.172L-43.775,42.758L-70.499,42.768C-71.229,39.239 -74.36,36.578 -78.102,36.578C-82.382,36.579 -85.865,40.061 -85.865,44.341C-85.865,48.622 -82.382,52.104 -78.102,52.104C-74.36,52.104 -71.228,49.443 -70.499,45.913L-42.202,45.903C-41.333,45.902 -40.63,45.199 -40.63,44.331L-40.63,29.17C-38.454,28.836 -36.44,27.809 -34.842,26.197C-32.88,24.218 -31.8,21.623 -31.8,18.889L-31.8,12.157C-31.327,12.2 -30.852,12.223 -30.378,12.223C-29.903,12.223 -29.429,12.2 -28.955,12.157L-28.955,18.889C-28.955,21.623 -27.875,24.218 -25.914,26.197C-24.315,27.809 -22.301,28.836 -20.126,29.17L-20.126,44.331C-20.126,45.199 -19.422,45.902 -18.554,45.903L9.744,45.913C10.472,49.443 13.604,52.104 17.345,52.104C21.626,52.104 25.108,48.622 25.108,44.341C25.108,40.061 21.626,36.578 17.345,36.578C13.604,36.578 10.472,39.239 9.743,42.768L-16.981,42.758L-16.981,29.172C-11.989,28.411 -8.152,24.09 -8.152,18.889C-8.152,18.838 -8.152,18.788 -8.153,18.737C-4.886,18.341 -2.028,16.601 -0.149,14.088L9.743,14.097C10.471,17.626 13.603,20.288 17.345,20.288C21.626,20.288 25.108,16.805 25.108,12.525C25.108,8.245 21.626,4.762 17.345,4.762C13.604,4.762 10.473,7.423 9.743,10.951L1.526,10.944C1.954,9.726 2.189,8.419 2.189,7.057C2.189,4.749 1.521,2.593 0.368,0.775C2.146,-1.317 3.145,-3.999 3.145,-6.765C3.145,-10.242 1.595,-13.509 -1.049,-15.709C-0.92,-16.36 -0.854,-17.029 -0.851,-17.709L9.743,-17.717Z" style="fill:rgb(235,38,42);fill-rule:nonzero;"/>
            </g>
        </g>
    </g>
</svg>
