<svg width="1749" height="513" viewBox="0 0 1749 513" fill="none" xmlns="http://www.w3.org/2000/svg">
<path d="M1376.33 261.703L1474.54 359.916L1376.33 458.128C1376.33 458.128 1376.59 261.445 1376.33 261.735V261.703Z" fill="#EB262A" style="fill:#EB262A;fill:color(display-p3 0.9216 0.1490 0.1647);fill-opacity:1;"/>
<path d="M146.35 404.57C106.865 404.57 73.8046 393.141 47.1368 370.315C20.469 347.489 4.74597 317.237 0 279.592H57.565C59.0179 309.941 66.153 330.959 78.938 342.646C91.7231 354.333 114.194 360.177 146.382 360.177C203.754 360.177 232.456 339.547 232.456 298.221V276.299C232.456 260.221 227.322 248.986 217.12 242.593C206.885 236.201 185.125 230.615 151.871 225.869L125.558 222.027C91.5617 217.281 64.4419 205.045 44.1343 185.286C23.859 165.56 13.7213 141.604 13.7213 113.484C13.7213 82.4249 26.1513 55.7571 51.0111 33.4478C75.8064 11.1385 105.412 0 139.764 0C177.409 0 208.661 10.7834 233.521 32.3501C258.381 53.9168 273.361 82.9737 278.462 119.521H220.897C219.8 91.368 213.31 71.8352 201.429 60.8582C189.548 49.8811 168.982 44.4249 139.764 44.4249C90.0443 44.4249 65.2167 63.6024 65.2167 101.99V120.619C65.2167 137.795 70.6084 150.128 81.3917 157.618C92.1751 165.108 113.096 171.242 144.155 175.988L170.467 179.83C246.112 191.162 283.951 225.708 283.951 283.434C283.951 317.076 270.52 345.649 243.659 369.217C216.797 392.785 184.35 404.57 146.35 404.57Z" fill="white" style="fill:white;fill-opacity:1;"/>
<path d="M374.803 512.565L410.446 399.081H367.151L282.176 112.354H334.801L401.148 358.498H423.07L493.775 112.354H546.4L426.879 512.532H374.803V512.565Z" fill="white" style="fill:white;fill-opacity:1;"/>
<path d="M685.712 106.896C715.673 106.896 740.436 117.486 760.001 138.698C779.566 159.909 789.317 186.932 789.317 219.831V399.08H741.082V214.343C741.082 191.678 735.497 175.245 724.358 165.01C713.187 154.776 695.398 149.675 670.893 149.675C644.936 149.675 626.113 154.97 614.426 165.559C602.739 176.149 596.895 193.325 596.895 217.087V399.08H548.661V112.385H594.151V155.131C617.17 122.975 647.68 106.896 685.712 106.896Z" fill="white" style="fill:white;fill-opacity:1;"/>
<path d="M932.631 106.896C965.143 106.896 991.359 116.582 1011.31 135.953C1031.23 155.325 1041.18 180.733 1041.18 212.147V399.08H995.685V366.73C977.411 391.945 949.097 404.569 910.709 404.569C881.846 404.569 857.438 395.981 837.518 378.805C817.598 361.629 807.654 340.611 807.654 315.751C807.654 290.892 817.534 272.618 837.26 257.637C856.986 242.657 882.395 235.167 913.454 235.167H992.941V209.403C992.941 187.481 988.453 172.049 979.51 163.073C970.535 154.13 954.392 149.642 930.985 149.642C907.578 149.642 889.498 154.033 880.006 162.815C870.482 171.597 865.219 187.126 864.122 209.403H814.789C819.535 179.442 832.772 154.84 854.533 135.663C876.261 116.485 902.315 106.896 932.664 106.896H932.631ZM920.557 361.823C945.772 361.823 964.142 357.819 975.636 349.748C987.162 341.709 992.908 328.924 992.908 311.361V275.717H899.7C873.032 275.717 859.698 286.501 859.698 308.067V323.435C859.698 336.963 864.541 346.745 874.227 352.751C883.913 358.788 899.345 361.79 920.557 361.79V361.823Z" fill="white" style="fill:white;fill-opacity:1;"/>
<path d="M1203.09 106.899C1237.8 106.899 1267.85 121.525 1293.26 150.743C1318.67 179.994 1331.36 214.539 1331.36 254.347C1331.36 294.155 1318.67 331.477 1293.26 360.696C1267.85 389.946 1237.08 404.54 1200.89 404.54C1164.7 404.54 1137.29 389.365 1113.17 359.049V512.535H1064.94V112.388H1110.43V156.781C1120.66 141.8 1134.19 129.725 1150.98 120.589C1167.8 111.452 1185.14 106.867 1203.06 106.867L1203.09 106.899ZM1277.67 277.948V234.104C1277.67 204.499 1271.18 183.029 1258.2 169.695C1245.22 156.361 1224.3 149.678 1195.44 149.678C1166.57 149.678 1145.65 156.361 1132.67 169.695C1119.69 183.029 1113.21 204.499 1113.21 234.104V277.948C1113.21 307.199 1119.69 328.475 1132.67 341.809C1145.65 355.143 1166.57 361.826 1195.44 361.826C1224.3 361.826 1245.22 355.175 1258.2 341.809C1271.18 328.475 1277.67 307.199 1277.67 277.948Z" fill="white" style="fill:white;fill-opacity:1;"/>
<path d="M1378.49 38.5483V112.385H1315.99V152.936H1378.49V231.874L1426.73 280.108V152.936H1503.15V112.385H1426.73V38.5483H1378.49Z" fill="white" style="fill:white;fill-opacity:1;"/>
<path d="M1661.35 439.083L1651.76 401.439H1595.16L1585.57 439.083H1551.93L1596.94 279.141H1651.53L1696.09 439.083H1661.35ZM1602.52 373.35H1644.4L1627.9 308.521H1618.99L1602.49 373.35H1602.52Z" fill="white" style="fill:white;fill-opacity:1;"/>
<path d="M1715.91 439.083V279.141H1748.65V439.083H1715.91Z" fill="white" style="fill:white;fill-opacity:1;"/>
</svg>
