<?xml version="1.0" encoding="UTF-8" standalone="no"?>
<!DOCTYPE svg PUBLIC "-//W3C//DTD SVG 1.1//EN" "http://www.w3.org/Graphics/SVG/1.1/DTD/svg11.dtd">
<svg width="100%" height="100%" viewBox="0 0 1813 1680" version="1.1" xmlns="http://www.w3.org/2000/svg" xmlns:xlink="http://www.w3.org/1999/xlink" xml:space="preserve" xmlns:serif="http://www.serif.com/" style="fill-rule:evenodd;clip-rule:evenodd;stroke-miterlimit:10;">
    <g transform="matrix(1,0,0,1,-18744.4,-14883.1)">
        <g id="Page-1" serif:id="Page 1">
        </g>
        <g id="Page-2" serif:id="Page 2">
        </g>
        <g transform="matrix(0.754791,0,0,0.754791,4606.57,3659.74)">
            <g>
                <g transform="matrix(-4.16667,0,0,4.16667,24435.7,14080.8)">
                    <rect x="806.291" y="202.605" width="549.556" height="507.512" style="fill:rgb(7,7,7);stroke:white;stroke-width:2.65px;"/>
                </g>
                <g transform="matrix(4.16667,0,0,4.16667,15426.8,6129.17)">
                    <g>
                        <g transform="matrix(1,0,0,1,872.647,2217.3)">
                            <text x="0px" y="0px" style="font-family:'KareliaWeb-Bold', 'KareliaWeb';font-weight:700;font-size:52px;fill:rgb(235,38,42);">All En</text>
                        </g>
                        <g transform="matrix(1,0,0,1,1008.68,2217.3)">
                            <text x="0px" y="0px" style="font-family:'KareliaWeb-Bold', 'KareliaWeb';font-weight:700;font-size:52px;fill:rgb(235,38,42);">t<tspan x="21.47px " y="0px ">e</tspan>rprises</text>
                        </g>
                    </g>
                </g>
                <g transform="matrix(4.16667,0,0,4.16667,15426.8,6129.17)">
                    <g>
                        <g transform="matrix(1,0,0,1,872.638,2266.5)">
                            <text x="0px" y="0px" style="font-family:'KareliaWeb-Regular', 'KareliaWeb';font-size:41px;fill:white;">f</text>
                        </g>
                        <g transform="matrix(1,0,0,1,888.096,2266.5)">
                            <text x="0px" y="0px" style="font-family:'KareliaWeb-Regular', 'KareliaWeb';font-size:41px;fill:white;">acing br</text>
                        </g>
                        <g transform="matrix(1,0,0,1,1039.8,2266.5)">
                            <text x="0px" y="0px" style="font-family:'KareliaWeb-Regular', 'KareliaWeb';font-size:41px;fill:white;">own</text>
                        </g>
                        <g transform="matrix(1,0,0,1,1120.12,2266.5)">
                            <text x="0px" y="0px" style="font-family:'KareliaWeb-Regular', 'KareliaWeb';font-size:41px;fill:white;">ﬁeld</text>
                        </g>
                    </g>
                </g>
                <g transform="matrix(4.16667,0,0,4.16667,15426.8,6129.17)">
                    <g>
                        <g transform="matrix(1,0,0,1,872.638,2315.7)">
                            <text x="0px" y="0px" style="font-family:'KareliaWeb-Regular', 'KareliaWeb';font-size:41px;fill:white;">challenges lik</text>
                        </g>
                        <g transform="matrix(1,0,0,1,1127.08,2315.7)">
                            <text x="0px" y="0px" style="font-family:'KareliaWeb-Regular', 'KareliaWeb';font-size:41px;fill:white;">e da</text>
                        </g>
                        <g transform="matrix(1,0,0,1,1206.26,2315.7)">
                            <text x="0px" y="0px" style="font-family:'KareliaWeb-Regular', 'KareliaWeb';font-size:41px;fill:white;">t<tspan x="16.48px " y="0px ">a</tspan></text>
                        </g>
                    </g>
                </g>
                <g transform="matrix(4.16667,0,0,4.16667,15426.8,6129.17)">
                    <g>
                        <g transform="matrix(1,0,0,1,872.638,2364.9)">
                            <text x="0px" y="0px" style="font-family:'KareliaWeb-Regular', 'KareliaWeb';font-size:41px;fill:white;">migr</text>
                        </g>
                        <g transform="matrix(1,0,0,1,958.616,2364.9)">
                            <text x="0px" y="0px" style="font-family:'KareliaWeb-Regular', 'KareliaWeb';font-size:41px;fill:white;">a<tspan x="21.649px " y="0px ">t</tspan>ions, f</text>
                        </g>
                        <g transform="matrix(1,0,0,1,1111.59,2364.9)">
                            <text x="0px" y="0px" style="font-family:'KareliaWeb-Regular', 'KareliaWeb';font-size:41px;fill:white;">ea<tspan x="44.77px " y="0px ">t</tspan>ur</text>
                        </g>
                        <g transform="matrix(1,0,0,1,1210.81,2364.9)">
                            <text x="0px" y="0px" style="font-family:'KareliaWeb-Regular', 'KareliaWeb';font-size:41px;fill:white;">e</text>
                        </g>
                    </g>
                </g>
                <g transform="matrix(4.16667,0,0,4.16667,15426.8,6129.17)">
                    <g>
                        <g transform="matrix(1,0,0,1,872.638,2414.1)">
                            <text x="0px" y="0px" style="font-family:'KareliaWeb-Regular', 'KareliaWeb';font-size:41px;fill:white;">enhanc</text>
                        </g>
                        <g transform="matrix(1,0,0,1,1012.08,2414.1)">
                            <text x="0px" y="0px" style="font-family:'KareliaWeb-Regular', 'KareliaWeb';font-size:41px;fill:white;">emen</text>
                        </g>
                        <g transform="matrix(1,0,0,1,1118.39,2414.1)">
                            <text x="0px" y="0px" style="font-family:'KareliaWeb-Regular', 'KareliaWeb';font-size:41px;fill:white;">ts, and</text>
                        </g>
                    </g>
                </g>
                <g transform="matrix(4.16667,0,0,4.16667,15426.8,6129.17)">
                    <g>
                        <g transform="matrix(1,0,0,1,872.638,2463.3)">
                            <text x="0px" y="0px" style="font-family:'KareliaWeb-Regular', 'KareliaWeb';font-size:41px;fill:white;">sys</text>
                        </g>
                        <g transform="matrix(1,0,0,1,936.516,2463.3)">
                            <text x="0px" y="0px" style="font-family:'KareliaWeb-Regular', 'KareliaWeb';font-size:41px;fill:white;">t<tspan x="16.482px " y="0px ">e</tspan>m up</text>
                        </g>
                        <g transform="matrix(1,0,0,1,1070.63,2463.3)">
                            <text x="0px" y="0px" style="font-family:'KareliaWeb-Regular', 'KareliaWeb';font-size:41px;fill:white;">gr<tspan x="39.56px " y="0px ">a</tspan>des</text>
                        </g>
                    </g>
                </g>
            </g>
        </g>
    </g>
</svg>
