<svg width="393" height="116" viewBox="0 0 393 116" fill="none" xmlns="http://www.w3.org/2000/svg">
<path d="M309.043 58.7627L331.096 80.8154L309.043 102.868C309.043 102.868 309.101 58.7047 309.043 58.7699V58.7627Z" fill="#EB262A" style="fill:#EB262A;fill:color(display-p3 0.9216 0.1490 0.1647);fill-opacity:1;"/>
<path d="M32.8615 90.8422C23.9955 90.8422 16.5721 88.2759 10.5841 83.1506C4.59612 78.0253 1.06566 71.2326 0 62.7798H12.9257C13.2519 69.5942 14.854 74.3136 17.7248 76.9379C20.5955 79.5622 25.6411 80.8743 32.8688 80.8743C45.751 80.8743 52.1957 76.2419 52.1957 66.9627V62.0404C52.1957 58.4302 51.043 55.9074 48.7522 54.472C46.4541 53.0366 41.5681 51.7825 34.1012 50.7168L28.1929 49.8541C20.5593 48.7885 14.4698 46.0409 9.90993 41.6043C5.35731 37.1749 3.08099 31.7959 3.08099 25.4816C3.08099 18.5077 5.87201 12.5197 11.454 7.51038C17.0216 2.50104 23.6693 0 31.3826 0C39.8354 0 46.8529 2.4213 52.4349 7.2639C58.0169 12.1065 61.3807 18.631 62.5261 26.8373H49.6004C49.3539 20.5158 47.8968 16.1299 45.229 13.6651C42.5612 11.2003 37.9434 9.97517 31.3826 9.97517C20.2186 9.97517 14.6438 14.2813 14.6438 22.9009V27.0838C14.6438 30.9404 15.8544 33.7097 18.2757 35.3916C20.697 37.0734 25.3946 38.4508 32.3686 39.5165L38.2768 40.3792C55.2622 42.9237 63.7585 50.6805 63.7585 63.6425C63.7585 71.1963 60.7427 77.6121 54.7112 82.9041C48.6797 88.1962 41.3941 90.8422 32.8615 90.8422Z" fill="white" style="fill:white;fill-opacity:1;"/>
<path d="M84.1579 115.092L92.1612 89.6099H82.4398L63.3594 25.228H75.1759L90.0734 80.4974H94.9957L110.872 25.228H122.688L95.8512 115.084H84.1579V115.092Z" fill="white" style="fill:white;fill-opacity:1;"/>
<path d="M153.971 24.0029C160.698 24.0029 166.259 26.3807 170.652 31.1436C175.045 35.9064 177.234 41.9742 177.234 49.3613V89.61H166.404V48.1289C166.404 43.0398 165.15 39.3499 162.648 37.0518C160.14 34.7538 156.146 33.6084 150.643 33.6084C144.815 33.6084 140.589 34.7973 137.964 37.1751C135.34 39.5529 134.028 43.4096 134.028 48.7451V89.61H123.197V25.2353H133.412V34.8335C138.58 27.6131 145.431 24.0029 153.971 24.0029Z" fill="white" style="fill:white;fill-opacity:1;"/>
<path d="M209.412 24.0029C216.712 24.0029 222.599 26.1777 227.079 30.5274C231.552 34.877 233.785 40.5823 233.785 47.636V89.61H223.57V82.3461C219.467 88.0079 213.109 90.8424 204.49 90.8424C198.009 90.8424 192.528 88.914 188.055 85.0574C183.582 81.2007 181.35 76.4813 181.35 70.8993C181.35 65.3173 183.568 61.2141 187.997 57.8504C192.427 54.4867 198.132 52.8048 205.106 52.8048H222.954V47.0198C222.954 42.0974 221.946 38.6322 219.938 36.6169C217.923 34.6088 214.298 33.6011 209.042 33.6011C203.786 33.6011 199.727 34.5871 197.596 36.5589C195.457 38.5307 194.275 42.0177 194.029 47.0198H182.952C184.017 40.2923 186.99 34.7683 191.876 30.4621C196.755 26.156 202.605 24.0029 209.419 24.0029H209.412ZM206.701 81.2442C212.363 81.2442 216.487 80.3453 219.068 78.5329C221.656 76.7278 222.947 73.857 222.947 69.9134V61.91H202.018C196.03 61.91 193.036 64.3313 193.036 69.1739V72.6246C193.036 75.6621 194.123 77.8587 196.298 79.2071C198.473 80.5627 201.938 81.2369 206.701 81.2369V81.2442Z" fill="white" style="fill:white;fill-opacity:1;"/>
<path d="M270.141 24.0033C277.934 24.0033 284.684 27.2873 290.389 33.848C296.094 40.416 298.943 48.1728 298.943 57.1113C298.943 66.0499 296.094 74.4302 290.389 80.9909C284.684 87.5588 277.775 90.8356 269.648 90.8356C261.522 90.8356 255.367 87.4283 249.952 80.6211V115.085H239.121V25.2357H249.336V35.2037C251.634 31.8399 254.671 29.1287 258.441 27.0771C262.218 25.0255 266.111 23.9961 270.134 23.9961L270.141 24.0033ZM286.887 62.4107V52.566C286.887 45.9183 285.43 41.0974 282.516 38.1034C279.602 35.1094 274.904 33.6088 268.423 33.6088C261.942 33.6088 257.245 35.1094 254.33 38.1034C251.416 41.0974 249.959 45.9183 249.959 52.566V62.4107C249.959 68.9786 251.416 73.756 254.33 76.75C257.245 79.744 261.942 81.2446 268.423 81.2446C274.904 81.2446 279.602 79.7512 282.516 76.75C285.43 73.756 286.887 68.9786 286.887 62.4107Z" fill="white" style="fill:white;fill-opacity:1;"/>
<path d="M309.527 8.65527V25.2347H295.492V34.3399H309.527V52.0647L320.358 62.8953V34.3399H337.517V25.2347H320.358V8.65527H309.527Z" fill="white" style="fill:white;fill-opacity:1;"/>
<path d="M373.043 98.5917L370.89 90.1389H358.182L356.028 98.5917H348.475L358.58 62.6782H370.839L380.843 98.5917H373.043ZM359.834 83.832H369.237L365.532 69.2752H363.532L359.827 83.832H359.834Z" fill="white" style="fill:white;fill-opacity:1;"/>
<path d="M385.293 98.5917V62.6782H392.644V98.5917H385.293Z" fill="white" style="fill:white;fill-opacity:1;"/>
</svg>
