<?xml version="1.0" encoding="UTF-8" standalone="no"?>
<!DOCTYPE svg PUBLIC "-//W3C//DTD SVG 1.1//EN" "http://www.w3.org/Graphics/SVG/1.1/DTD/svg11.dtd">
<svg width="100%" height="100%" viewBox="0 0 960 1097" version="1.1" xmlns="http://www.w3.org/2000/svg" xmlns:xlink="http://www.w3.org/1999/xlink" xml:space="preserve" xmlns:serif="http://www.serif.com/" style="fill-rule:evenodd;clip-rule:evenodd;stroke-miterlimit:10;">
    <g transform="matrix(1,0,0,1,-1483.33,-30989.9)">
        <g id="Page-1" serif:id="Page 1" transform="matrix(8.33333,0,0,8.33333,0,0)">
            <rect x="0" y="0" width="1920" height="8614.75" style="fill:none;"/>
            <clipPath id="_clip1">
                <rect x="0" y="0" width="1920" height="8614.75"/>
            </clipPath>
            <g clip-path="url(#_clip1)">
                <g id="Layer-1" serif:id="Layer 1">
                    <g transform="matrix(1,0,0,-1,0,-2150.63)">
                        <rect x="0" y="-8614.75" width="1920" height="6464.11" style="fill-rule:nonzero;"/>
                    </g>
                    <g transform="matrix(-1,0,0,1,1910.3,-1051.71)">
                        <rect x="-6.529" y="4296.77" width="1923.35" height="1072.92" style="fill:rgb(7,7,7);"/>
                    </g>
                    <g transform="matrix(-1,0,0,1,599.978,-890.612)">
                        <rect x="111.265" y="4439.57" width="377.448" height="626.22" style="fill:rgb(7,7,7);stroke:white;stroke-width:2px;"/>
                    </g>
                    <g transform="matrix(1,0,0,1,10.9617,0)">
                        <g transform="matrix(1,0,0,1,277.738,3754.32)">
                            <path d="M0,-17.673L-10.076,-31.503L-20.151,-17.673L-16.286,-17.673C-15.461,-17.673 -14.792,-17.004 -14.792,-16.179L-14.792,14.873L-5.359,14.873L-5.359,-16.179C-5.359,-17.004 -4.69,-17.673 -3.865,-17.673L0,-17.673ZM4.149,-17.057C4.48,-16.603 4.528,-16.002 4.274,-15.5C4.02,-14.998 3.503,-14.684 2.941,-14.684L-2.367,-14.684L-2.367,16.367C-2.367,17.192 -3.037,17.862 -3.862,17.862L-16.283,17.862C-17.108,17.862 -17.778,17.192 -17.778,16.367L-17.778,-14.684L-23.086,-14.684C-23.648,-14.684 -24.162,-15.001 -24.419,-15.5C-24.673,-16.002 -24.625,-16.603 -24.294,-17.057L-11.28,-34.919C-10.999,-35.304 -10.551,-35.535 -10.073,-35.535C-9.594,-35.535 -9.146,-35.307 -8.865,-34.919L4.149,-17.057Z" style="fill:rgb(235,38,42);fill-rule:nonzero;"/>
                        </g>
                        <g transform="matrix(1,0,0,1,266.422,3797.68)">
                            <path d="M0,15.671L0,0.003L-10.527,0.003C-11.187,0.003 -11.77,-0.43 -11.958,-1.064C-12.568,-3.108 -13.393,-5.096 -14.412,-6.976C-14.726,-7.558 -14.625,-8.276 -14.155,-8.746L-6.71,-16.19L-17.79,-27.27L-25.235,-19.825C-25.701,-19.359 -26.422,-19.251 -27.005,-19.568C-28.885,-20.587 -30.875,-21.412 -32.917,-22.019C-33.55,-22.207 -33.984,-22.79 -33.984,-23.451L-33.984,-33.977L-49.651,-33.977L-49.651,-23.451C-49.651,-22.79 -50.085,-22.207 -50.718,-22.019C-52.76,-21.412 -54.747,-20.587 -56.63,-19.568C-57.21,-19.251 -57.93,-19.359 -58.4,-19.825L-65.845,-27.27L-76.925,-16.19L-69.479,-8.746C-69.013,-8.279 -68.909,-7.558 -69.222,-6.976C-70.242,-5.096 -71.067,-3.108 -71.676,-1.064C-71.865,-0.43 -72.447,0.003 -73.108,0.003L-83.635,0.003L-83.635,15.671L-73.108,15.671C-72.447,15.671 -71.865,16.104 -71.676,16.738C-71.07,18.776 -70.245,20.767 -69.225,22.65C-68.912,23.233 -69.016,23.95 -69.482,24.42L-76.928,31.868L-65.848,42.947L-58.403,35.502C-57.933,35.036 -57.216,34.928 -56.633,35.245C-54.753,36.264 -52.763,37.089 -50.721,37.699C-50.088,37.887 -49.654,38.47 -49.654,39.13L-49.651,49.651L-33.984,49.651L-33.984,39.125C-33.984,38.464 -33.55,37.881 -32.917,37.693C-30.878,37.086 -28.89,36.261 -27.005,35.242C-26.422,34.928 -25.704,35.033 -25.235,35.499L-17.787,42.944L-6.707,31.865L-14.152,24.42C-14.622,23.953 -14.726,23.233 -14.409,22.65C-13.39,20.77 -12.565,18.782 -11.958,16.738C-11.77,16.104 -11.187,15.671 -10.527,15.671L0,15.671ZM2.998,-1.497L2.998,17.159C2.998,17.984 2.328,18.654 1.503,18.654L-9.421,18.654C-9.926,20.166 -10.542,21.646 -11.253,23.074L-3.527,30.8C-2.944,31.383 -2.944,32.331 -3.527,32.914L-16.72,46.107C-17.303,46.69 -18.25,46.69 -18.833,46.107L-26.562,38.378C-27.994,39.092 -29.473,39.708 -30.983,40.21L-30.983,51.137C-30.995,51.971 -31.664,52.64 -32.489,52.64L-51.146,52.64C-51.971,52.64 -52.64,51.971 -52.64,51.146L-52.64,40.221C-54.152,39.716 -55.632,39.101 -57.061,38.386L-64.787,46.112C-65.37,46.695 -66.317,46.695 -66.9,46.112L-80.093,32.92C-80.676,32.337 -80.676,31.389 -80.093,30.807L-72.364,23.077C-73.078,21.649 -73.691,20.169 -74.196,18.657L-85.123,18.657C-85.948,18.657 -86.618,17.987 -86.618,17.162L-86.618,-1.494C-86.618,-2.319 -85.948,-2.989 -85.123,-2.989L-74.199,-2.989C-73.694,-4.501 -73.078,-5.98 -72.364,-7.409L-80.09,-15.136C-80.371,-15.416 -80.526,-15.796 -80.526,-16.194C-80.526,-16.591 -80.368,-16.971 -80.09,-17.252L-66.897,-30.445C-66.314,-31.027 -65.367,-31.027 -64.784,-30.445L-57.055,-22.715C-55.626,-23.43 -54.146,-24.042 -52.634,-24.547L-52.634,-35.475C-52.634,-36.3 -51.965,-36.969 -51.14,-36.969L-32.483,-36.969C-31.658,-36.969 -30.989,-36.3 -30.989,-35.475L-30.989,-24.547C-29.476,-24.042 -27.997,-23.43 -26.568,-22.715L-18.839,-30.445C-18.558,-30.725 -18.178,-30.881 -17.781,-30.881C-17.383,-30.881 -17.004,-30.723 -16.723,-30.445L-3.53,-17.252C-2.947,-16.669 -2.947,-15.721 -3.53,-15.139L-11.256,-7.412C-10.542,-5.984 -9.929,-4.504 -9.421,-2.992L1.503,-2.992C2.328,-2.992 2.998,-2.322 2.998,-1.497" style="fill:rgb(235,38,42);fill-rule:nonzero;"/>
                        </g>
                        <g transform="matrix(1,0,0,1,242.762,3745.12)">
                            <path d="M0,-4.289L-5.927,-12.421L-11.854,-4.289L-10.159,-4.289C-9.334,-4.289 -8.665,-3.619 -8.665,-2.794L-8.662,9.176L-3.189,9.176L-3.189,-2.794C-3.189,-3.619 -2.52,-4.289 -1.695,-4.289L0,-4.289ZM4.149,-3.673C4.48,-3.219 4.528,-2.618 4.274,-2.116C4.02,-1.614 3.503,-1.3 2.941,-1.3L-0.197,-1.3L-0.197,10.67C-0.2,11.496 -0.87,12.165 -1.695,12.165L-10.156,12.165C-10.981,12.165 -11.651,11.496 -11.651,10.67L-11.651,-1.3L-14.789,-1.3C-15.351,-1.3 -15.865,-1.617 -16.122,-2.116C-16.376,-2.618 -16.328,-3.219 -15.996,-3.673L-7.131,-15.838C-6.851,-16.224 -6.402,-16.454 -5.924,-16.454C-5.446,-16.454 -4.997,-16.227 -4.716,-15.838L4.149,-3.673Z" style="fill:rgb(235,38,42);fill-rule:nonzero;"/>
                        </g>
                        <g transform="matrix(1,0,0,1,245.828,3805.52)">
                            <path d="M0,0C0,-11.705 -9.523,-21.224 -21.224,-21.224C-32.925,-21.224 -42.448,-11.705 -42.448,0C-42.448,11.705 -32.928,21.224 -21.224,21.224C-9.52,21.224 0,11.705 0,0M-21.224,-24.213C-7.873,-24.213 2.989,-13.351 2.989,0C2.989,13.352 -7.873,24.213 -21.224,24.213C-34.575,24.213 -45.437,13.352 -45.437,0C-45.437,-13.351 -34.575,-24.213 -21.224,-24.213" style="fill:rgb(235,38,42);fill-rule:nonzero;"/>
                        </g>
                        <g transform="matrix(1,0,0,1,241.243,3806.56)">
                            <path d="M0,-2.296C0.421,-2.021 0.675,-1.548 0.675,-1.046C0.675,-0.545 0.421,-0.072 0,0.203L-7.511,5.135C-7.765,5.299 -8.049,5.38 -8.33,5.38C-8.817,5.38 -9.292,5.143 -9.579,4.704C-10.034,4.014 -9.839,3.087 -9.149,2.636L-3.542,-1.046L-9.149,-4.726C-9.839,-5.18 -10.031,-6.107 -9.579,-6.794C-9.125,-7.484 -8.198,-7.676 -7.511,-7.225L0,-2.296Z" style="fill:rgb(235,38,42);fill-rule:nonzero;"/>
                        </g>
                        <g transform="matrix(1,0,0,1,228.747,3801.12)">
                            <path d="M0,8.578C0.412,9.292 0.167,10.207 -0.547,10.62C-0.783,10.754 -1.04,10.82 -1.294,10.82C-1.811,10.82 -2.313,10.551 -2.588,10.072L-8.282,0.212C-8.695,-0.503 -8.45,-1.417 -7.735,-1.829C-7.021,-2.242 -6.106,-1.997 -5.694,-1.282L0,8.578Z" style="fill:rgb(235,38,42);fill-rule:nonzero;"/>
                        </g>
                        <g transform="matrix(1,0,0,1,218.298,3745.12)">
                            <path d="M0,-4.289L-5.927,-12.421L-11.854,-4.289L-10.159,-4.289C-9.334,-4.289 -8.665,-3.619 -8.665,-2.794L-8.665,9.176L-3.189,9.176L-3.189,-2.794C-3.189,-3.619 -2.52,-4.289 -1.695,-4.289L0,-4.289ZM4.149,-3.673C4.48,-3.219 4.528,-2.618 4.274,-2.116C4.02,-1.614 3.503,-1.3 2.941,-1.3L-0.197,-1.3L-0.197,10.67C-0.2,11.496 -0.87,12.165 -1.695,12.165L-10.156,12.165C-10.981,12.165 -11.651,11.496 -11.651,10.67L-11.651,-1.3L-14.789,-1.3C-15.351,-1.3 -15.865,-1.617 -16.122,-2.116C-16.376,-2.618 -16.328,-3.219 -15.996,-3.673L-7.131,-15.838C-6.851,-16.224 -6.402,-16.454 -5.924,-16.454C-5.446,-16.454 -4.997,-16.227 -4.716,-15.838L4.149,-3.673Z" style="fill:rgb(235,38,42);fill-rule:nonzero;"/>
                        </g>
                        <g transform="matrix(1,0,0,1,217.545,3811.06)">
                            <path d="M0,-11.289C0.454,-10.599 0.26,-9.672 -0.43,-9.221L-6.038,-5.541L-0.43,-1.859C0.26,-1.405 0.451,-0.478 0,0.209C-0.284,0.646 -0.762,0.885 -1.249,0.885C-1.53,0.885 -1.814,0.804 -2.068,0.64L-9.579,-4.292C-10.001,-4.567 -10.255,-5.039 -10.255,-5.541C-10.255,-6.043 -10.001,-6.516 -9.579,-6.791L-2.068,-11.72C-1.378,-12.174 -0.451,-11.979 0,-11.289" style="fill:rgb(235,38,42);fill-rule:nonzero;"/>
                        </g>
                        <g transform="matrix(1,0,0,1,191.622,3754.32)">
                            <path d="M0,-17.673L-10.076,-31.503L-20.151,-17.673L-16.286,-17.673C-15.461,-17.673 -14.792,-17.004 -14.792,-16.179L-14.792,14.873L-5.359,14.873L-5.359,-16.179C-5.359,-17.004 -4.69,-17.673 -3.865,-17.673L0,-17.673ZM4.146,-17.057C4.477,-16.603 4.525,-16.002 4.271,-15.5C4.017,-14.998 3.5,-14.684 2.938,-14.684L-2.37,-14.684L-2.37,16.367C-2.37,17.192 -3.04,17.862 -3.865,17.862L-16.286,17.862C-17.111,17.862 -17.781,17.192 -17.781,16.367L-17.781,-14.684L-23.089,-14.684C-23.651,-14.684 -24.165,-15.001 -24.422,-15.5C-24.676,-16.002 -24.628,-16.603 -24.297,-17.057L-11.283,-34.919C-11.002,-35.304 -10.554,-35.535 -10.076,-35.535C-9.597,-35.535 -9.149,-35.307 -8.868,-34.919L4.146,-17.057Z" style="fill:rgb(235,38,42);fill-rule:nonzero;"/>
                        </g>
                    </g>
                </g>
            </g>
        </g>
    </g>
</svg>
