<?xml version="1.0" encoding="UTF-8" standalone="no"?>
<!DOCTYPE svg PUBLIC "-//W3C//DTD SVG 1.1//EN" "http://www.w3.org/Graphics/SVG/1.1/DTD/svg11.dtd">
<svg width="100%" height="100%" viewBox="0 0 792 1041" version="1.1" xmlns="http://www.w3.org/2000/svg" xmlns:xlink="http://www.w3.org/1999/xlink" xml:space="preserve" xmlns:serif="http://www.serif.com/" style="fill-rule:evenodd;clip-rule:evenodd;stroke-miterlimit:10;">
    <g transform="matrix(1,0,0,1,-31777.4,-11326.1)">
        <g id="Page-2" serif:id="Page 2" transform="matrix(8.33333,0,0,8.33333,30364.7,0)">
            <rect x="0" y="0" width="3238.9" height="2821.11" style="fill:none;"/>
            <g id="Layer-1" serif:id="Layer 1">
                <g transform="matrix(1,0,0,1,210.209,1454.69)">
                    <path d="M0,-62.88C0,-63.821 0.763,-64.583 1.704,-64.583L6.492,-64.583C7.433,-64.572 8.187,-63.801 8.175,-62.86C8.164,-61.935 7.417,-61.188 6.492,-61.177L1.703,-61.177C0.762,-61.177 0,-61.94 0,-62.88M28.338,-2.658C28.338,-3.587 29.091,-4.34 30.02,-4.34C30.949,-4.34 31.702,-3.587 31.702,-2.658C31.702,-1.729 30.949,-0.976 30.02,-0.976C29.092,-0.979 28.341,-1.73 28.338,-2.658M35.69,9.927C35.69,8.998 36.443,8.245 37.372,8.245C38.301,8.245 39.054,8.998 39.054,9.927C39.054,10.856 38.301,11.609 37.372,11.609C36.444,11.607 35.691,10.855 35.69,9.926L35.69,9.927ZM28.338,22.51C28.342,21.581 29.099,20.832 30.028,20.836C30.957,20.84 31.706,21.596 31.702,22.525C31.698,23.451 30.946,24.2 30.02,24.2C29.09,24.199 28.337,23.443 28.338,22.513L28.338,22.51ZM50.962,27.917L14.815,27.917L14.815,17.911L20.112,17.911L25.094,21.256C24.393,23.988 26.038,26.77 28.769,27.472C31.5,28.173 34.283,26.528 34.984,23.797C35.685,21.066 34.04,18.283 31.309,17.582C29.816,17.198 28.231,17.51 26.994,18.429L21.579,14.794C21.298,14.605 20.968,14.504 20.629,14.504L14.815,14.504L14.815,11.63L32.583,11.63C33.524,14.278 36.434,15.663 39.082,14.722C41.731,13.781 43.116,10.872 42.175,8.223C41.234,5.574 38.324,4.19 35.676,5.13C34.232,5.643 33.096,6.779 32.583,8.223L14.815,8.223L14.815,5.348L20.629,5.348C20.968,5.348 21.298,5.248 21.579,5.059L26.994,1.424C29.264,3.116 32.475,2.647 34.167,0.378C35.858,-1.892 35.39,-5.104 33.12,-6.795C30.85,-8.487 27.639,-8.018 25.947,-5.748C25.019,-4.504 24.706,-2.906 25.094,-1.403L20.112,1.942L14.815,1.942L14.815,-27.026L32.888,-27.026C42.866,-27.015 50.951,-18.93 50.962,-8.952L50.962,27.917ZM-16.181,2.833C-17.122,2.833 -17.885,3.595 -17.885,4.536L-17.885,27.917L-37.163,27.917L-37.156,18.939C-37.15,11.692 -37.145,4.445 -37.143,-2.802C-37.128,-16.174 -26.292,-27.011 -12.92,-27.026L-5.375,-27.026L3.019,-18.639L11.409,-10.251L11.409,27.917L-14.478,27.917L-14.478,4.536C-14.478,3.596 -15.241,2.833 -16.181,2.833ZM14.981,-72.964C18.859,-73 24.719,-73.054 26.275,-71.513C26.455,-71.351 26.553,-71.117 26.541,-70.875L26.541,-49.675C26.541,-49.138 24.525,-47.591 20.678,-47.591L14.815,-47.591L14.815,-72.962L14.981,-72.964ZM24.461,-30.433L1.281,-30.433C1.596,-31.085 1.758,-31.8 1.754,-32.523L1.754,-38.52C5.207,-36.527 9.124,-35.48 13.111,-35.485C13.157,-35.485 13.203,-35.488 13.248,-35.492L23.525,-35.492C23.841,-35.492 24.152,-35.506 24.461,-35.528L24.461,-30.433ZM11.409,-15.068L-0.554,-27.026L11.409,-27.026L11.409,-15.068ZM-6.281,-58.286L-6.281,-68.534C-3.461,-69.348 -0.9,-70.879 1.151,-72.978C1.948,-73.771 2.937,-74.342 4.022,-74.636L13.565,-77.262C14.304,-77.465 14.816,-78.138 14.816,-78.904L14.816,-82.177L23.54,-82.177C28.36,-82.172 32.266,-78.266 32.272,-73.446L32.272,-47.104C32.272,-42.426 28.512,-38.898 23.527,-38.898L14.815,-38.898L14.815,-44.184L20.678,-44.184C25.963,-44.184 29.948,-46.545 29.948,-49.675L29.948,-70.875C29.958,-72.026 29.497,-73.13 28.673,-73.933C26.108,-76.474 20.18,-76.419 14.948,-76.371C14.309,-76.365 13.693,-76.359 13.11,-76.359C12.169,-76.359 11.407,-75.596 11.407,-74.656L11.407,-38.967C7.688,-39.293 4.145,-40.691 1.205,-42.992C1.137,-43.055 1.064,-43.114 0.986,-43.166C-3.608,-46.84 -6.282,-52.403 -6.282,-58.285L-6.281,-58.286ZM-8.35,-71.537C-8.933,-71.427 -9.523,-71.352 -10.116,-71.314L-10.116,-80.038C-10.11,-84.873 -6.193,-88.791 -1.359,-88.797L11.409,-88.797L11.409,-80.204L3.115,-77.922C1.46,-77.47 -0.049,-76.595 -1.263,-75.384C-3.304,-73.343 -5.607,-72.077 -8.245,-71.557C-8.281,-71.55 -8.316,-71.544 -8.351,-71.536L-8.35,-71.537ZM-9.837,-55.58C-12.592,-55.561 -14.842,-57.779 -14.861,-60.535C-14.88,-63.29 -12.662,-65.54 -9.906,-65.559L-9.837,-65.559C-9.786,-65.559 -9.737,-65.562 -9.688,-65.566L-9.688,-58.286C-9.688,-57.381 -9.634,-56.478 -9.527,-55.58L-9.837,-55.58ZM35.677,-65.559L38.296,-65.559L38.296,-55.607L35.677,-55.607L35.677,-65.559ZM37.003,-87.088C37.001,-88.74 38.339,-90.082 39.992,-90.084C41.645,-90.086 42.986,-88.748 42.988,-87.095C42.99,-85.442 41.652,-84.101 39.999,-84.099C38.348,-84.1 37.009,-85.436 37.003,-87.087L37.003,-87.088ZM32.888,-30.434L27.868,-30.434L27.868,-36.231C32.475,-37.868 35.677,-42.062 35.677,-47.103L35.677,-52.2L38.395,-52.2C40.218,-52.2 41.698,-53.677 41.702,-55.5L41.702,-80.923C45.11,-81.864 47.11,-85.389 46.169,-88.797C45.228,-92.205 41.703,-94.205 38.295,-93.264C34.887,-92.324 32.887,-88.798 33.828,-85.39C34.427,-83.219 36.124,-81.523 38.295,-80.923L38.295,-68.965L35.677,-68.965L35.677,-73.446C35.669,-80.146 30.239,-85.576 23.539,-85.584L14.815,-85.584L14.815,-90.521C14.815,-91.462 14.052,-92.224 13.111,-92.224L13.066,-92.224C12.566,-92.21 12.044,-92.204 11.516,-92.204L-1.358,-92.204C-8.073,-92.196 -13.515,-86.754 -13.523,-80.039L-13.523,-69.575C-13.523,-69.11 -13.332,-68.665 -12.995,-68.345C-17.291,-66.603 -19.362,-61.709 -17.621,-57.412C-16.336,-54.242 -13.256,-52.169 -9.836,-52.172L-8.854,-52.172C-7.627,-47.789 -5.119,-43.872 -1.651,-40.924L-1.651,-32.523C-1.651,-31.158 -3.528,-30.521 -4.739,-30.433L-12.92,-30.433C-28.173,-30.416 -40.533,-18.055 -40.55,-2.802C-40.55,4.444 -40.554,11.69 -40.562,18.936L-40.571,29.619C-40.572,30.56 -39.81,31.323 -38.87,31.325L52.666,31.325C53.606,31.325 54.369,30.562 54.369,29.621L54.369,-8.952C54.356,-20.81 44.746,-30.42 32.888,-30.433L32.888,-30.434ZM17.793,-62.88C17.793,-63.821 18.556,-64.584 19.496,-64.584L24.285,-64.584C25.226,-64.573 25.979,-63.801 25.968,-62.86C25.957,-61.935 25.21,-61.188 24.285,-61.177L19.496,-61.177C18.556,-61.177 17.793,-61.939 17.793,-62.88ZM42.985,-11.273C42.528,-10.807 42.376,-10.121 42.595,-9.507C42.804,-8.923 42.966,-8.324 43.081,-7.715L40.531,-8.398C39.584,-11.422 37.149,-13.746 34.084,-14.55C31.029,-15.361 27.771,-14.568 25.43,-12.445L22.874,-13.129C23.276,-13.597 23.715,-14.031 24.187,-14.429C24.688,-14.851 24.902,-15.523 24.738,-16.158L24.095,-18.646L24.175,-18.693L26.007,-16.894C26.473,-16.435 27.161,-16.284 27.777,-16.506C29.331,-17.068 30.989,-17.288 32.637,-17.151C33.287,-17.098 33.911,-17.42 34.244,-17.982L35.549,-20.192L35.639,-20.168L35.663,-17.602C35.669,-16.95 36.047,-16.359 36.637,-16.079C38.132,-15.374 39.457,-14.355 40.522,-13.091C40.945,-12.591 41.616,-12.378 42.25,-12.541L44.739,-13.184L44.785,-13.104L42.985,-11.273ZM45.087,-16.793L42.391,-16.097C41.408,-17.104 40.286,-17.966 39.06,-18.656L39.036,-21.433C39.029,-22.145 38.58,-22.778 37.91,-23.02C37.427,-23.194 36.943,-23.346 36.471,-23.472C35.998,-23.597 35.529,-23.703 35.027,-23.797C34.323,-23.929 33.611,-23.606 33.247,-22.989L31.833,-20.595C30.424,-20.612 29.02,-20.426 27.664,-20.042L25.681,-21.99C25.171,-22.491 24.402,-22.62 23.757,-22.314C22.858,-21.886 21.995,-21.389 21.175,-20.826C20.583,-20.421 20.309,-19.688 20.488,-18.994L21.185,-16.3C20.171,-15.31 19.304,-14.181 18.609,-12.947C18.146,-12.128 18.435,-11.089 19.255,-10.626C19.38,-10.556 19.513,-10.501 19.652,-10.464L25.512,-8.896C26.142,-8.727 26.814,-8.933 27.241,-9.428C29.366,-11.882 33.078,-12.149 35.532,-10.024C36.53,-9.159 37.208,-7.984 37.457,-6.688C37.58,-6.047 38.059,-5.533 38.689,-5.364L44.542,-3.796C45.45,-3.552 46.385,-4.09 46.629,-4.999C46.666,-5.136 46.685,-5.277 46.687,-5.419C46.705,-6.837 46.519,-8.25 46.136,-9.615L48.086,-11.6C48.587,-12.11 48.717,-12.878 48.41,-13.524C47.982,-14.422 47.485,-15.286 46.922,-16.106C46.516,-16.699 45.783,-16.974 45.087,-16.793Z" style="fill:rgb(235,38,42);fill-rule:nonzero;"/>
                </g>
                <g transform="matrix(-1,0,0,1,615.792,193.812)">
                    <rect x="119.172" y="1000.54" width="377.448" height="626.22" style="fill:rgb(7,7,7);stroke:white;stroke-width:2px;"/>
                </g>
                <g transform="matrix(1,0,0,1,210.1,1452.63)">
                    <path d="M0,-62.88C0,-63.821 0.763,-64.583 1.704,-64.583L6.492,-64.583C7.433,-64.572 8.187,-63.801 8.175,-62.86C8.164,-61.935 7.417,-61.188 6.492,-61.177L1.703,-61.177C0.762,-61.177 0,-61.94 0,-62.88M28.338,-2.658C28.338,-3.587 29.091,-4.34 30.02,-4.34C30.949,-4.34 31.702,-3.587 31.702,-2.658C31.702,-1.729 30.949,-0.976 30.02,-0.976C29.092,-0.979 28.341,-1.73 28.338,-2.658M35.69,9.927C35.69,8.998 36.443,8.245 37.372,8.245C38.301,8.245 39.054,8.998 39.054,9.927C39.054,10.856 38.301,11.609 37.372,11.609C36.444,11.607 35.691,10.855 35.69,9.926L35.69,9.927ZM28.338,22.51C28.342,21.581 29.099,20.832 30.028,20.836C30.957,20.84 31.706,21.596 31.702,22.525C31.698,23.451 30.946,24.2 30.02,24.2C29.09,24.199 28.337,23.443 28.338,22.513L28.338,22.51ZM50.962,27.918L14.815,27.918L14.815,17.911L20.112,17.911L25.094,21.257C24.393,23.988 26.038,26.77 28.769,27.472C31.5,28.173 34.283,26.528 34.984,23.797C35.685,21.066 34.04,18.283 31.309,17.582C29.816,17.198 28.231,17.51 26.994,18.429L21.579,14.794C21.298,14.605 20.968,14.504 20.629,14.504L14.815,14.504L14.815,11.63L32.583,11.63C33.524,14.278 36.434,15.663 39.082,14.722C41.731,13.781 43.116,10.872 42.175,8.223C41.234,5.574 38.324,4.19 35.676,5.13C34.232,5.643 33.096,6.779 32.583,8.223L14.815,8.223L14.815,5.348L20.629,5.348C20.968,5.348 21.298,5.248 21.579,5.059L26.994,1.424C29.264,3.116 32.475,2.647 34.167,0.378C35.858,-1.892 35.39,-5.104 33.12,-6.795C30.85,-8.487 27.639,-8.018 25.947,-5.748C25.019,-4.504 24.706,-2.906 25.094,-1.403L20.112,1.942L14.815,1.942L14.815,-27.026L32.888,-27.026C42.866,-27.015 50.951,-18.93 50.962,-8.952L50.962,27.918ZM-16.181,2.833C-17.122,2.833 -17.885,3.595 -17.885,4.536L-17.885,27.917L-37.163,27.917L-37.156,18.939C-37.15,11.692 -37.145,4.445 -37.143,-2.802C-37.128,-16.174 -26.292,-27.011 -12.92,-27.026L-5.375,-27.026L3.019,-18.639L11.409,-10.251L11.409,27.917L-14.478,27.917L-14.478,4.536C-14.478,3.596 -15.241,2.833 -16.181,2.833M14.981,-72.964C18.859,-73 24.719,-73.054 26.275,-71.513C26.455,-71.351 26.553,-71.117 26.541,-70.875L26.541,-49.675C26.541,-49.138 24.525,-47.591 20.678,-47.591L14.815,-47.591L14.815,-72.962L14.981,-72.964ZM24.461,-30.433L1.281,-30.433C1.596,-31.085 1.758,-31.8 1.754,-32.523L1.754,-38.52C5.207,-36.527 9.124,-35.48 13.111,-35.485C13.157,-35.485 13.203,-35.488 13.248,-35.492L23.525,-35.492C23.841,-35.492 24.152,-35.506 24.461,-35.528L24.461,-30.433ZM11.409,-15.068L-0.554,-27.026L11.409,-27.026L11.409,-15.068ZM-6.281,-58.286L-6.281,-68.534C-3.461,-69.348 -0.9,-70.879 1.151,-72.978C1.948,-73.77 2.937,-74.342 4.022,-74.636L13.565,-77.262C14.304,-77.465 14.816,-78.137 14.816,-78.904L14.816,-82.177L23.54,-82.177C28.36,-82.172 32.266,-78.266 32.272,-73.446L32.272,-47.104C32.272,-42.426 28.512,-38.898 23.527,-38.898L14.815,-38.898L14.815,-44.184L20.678,-44.184C25.963,-44.184 29.948,-46.545 29.948,-49.675L29.948,-70.875C29.958,-72.026 29.497,-73.13 28.673,-73.933C26.108,-76.474 20.18,-76.419 14.948,-76.371C14.309,-76.365 13.693,-76.359 13.11,-76.359C12.169,-76.359 11.407,-75.596 11.407,-74.656L11.407,-38.967C7.688,-39.293 4.145,-40.691 1.205,-42.992C1.137,-43.055 1.064,-43.114 0.986,-43.165C-3.608,-46.84 -6.282,-52.403 -6.282,-58.285L-6.281,-58.286ZM-8.35,-71.537C-8.933,-71.427 -9.523,-71.352 -10.116,-71.314L-10.116,-80.038C-10.11,-84.873 -6.193,-88.791 -1.359,-88.797L11.409,-88.797L11.409,-80.204L3.115,-77.922C1.46,-77.47 -0.049,-76.595 -1.263,-75.384C-3.304,-73.342 -5.607,-72.077 -8.245,-71.557C-8.281,-71.55 -8.316,-71.544 -8.351,-71.536L-8.35,-71.537ZM-9.837,-55.58C-12.592,-55.561 -14.842,-57.779 -14.861,-60.535C-14.88,-63.29 -12.662,-65.54 -9.906,-65.559L-9.837,-65.559C-9.786,-65.559 -9.737,-65.562 -9.688,-65.566L-9.688,-58.286C-9.688,-57.381 -9.634,-56.478 -9.527,-55.58L-9.837,-55.58ZM35.677,-65.559L38.296,-65.559L38.296,-55.607L35.677,-55.607L35.677,-65.559ZM37.003,-87.088C37.001,-88.74 38.339,-90.082 39.992,-90.084C41.645,-90.086 42.986,-88.748 42.988,-87.095C42.99,-85.442 41.652,-84.101 39.999,-84.099C38.348,-84.1 37.009,-85.436 37.003,-87.087L37.003,-87.088ZM32.888,-30.434L27.868,-30.434L27.868,-36.231C32.475,-37.868 35.677,-42.062 35.677,-47.103L35.677,-52.2L38.395,-52.2C40.218,-52.2 41.698,-53.677 41.702,-55.5L41.702,-80.923C45.11,-81.864 47.11,-85.389 46.169,-88.797C45.228,-92.205 41.703,-94.205 38.295,-93.264C34.887,-92.324 32.887,-88.798 33.828,-85.39C34.427,-83.219 36.124,-81.523 38.295,-80.923L38.295,-68.965L35.677,-68.965L35.677,-73.446C35.669,-80.146 30.239,-85.576 23.539,-85.584L14.815,-85.584L14.815,-90.521C14.815,-91.462 14.052,-92.224 13.111,-92.224L13.066,-92.224C12.566,-92.21 12.044,-92.204 11.516,-92.204L-1.358,-92.204C-8.073,-92.196 -13.515,-86.754 -13.523,-80.039L-13.523,-69.575C-13.523,-69.11 -13.332,-68.665 -12.995,-68.345C-17.291,-66.603 -19.362,-61.709 -17.621,-57.412C-16.336,-54.242 -13.256,-52.169 -9.836,-52.172L-8.854,-52.172C-7.627,-47.789 -5.119,-43.872 -1.651,-40.924L-1.651,-32.523C-1.651,-31.158 -3.528,-30.521 -4.739,-30.433L-12.92,-30.433C-28.173,-30.416 -40.533,-18.055 -40.55,-2.802C-40.55,4.444 -40.554,11.69 -40.562,18.936L-40.571,29.619C-40.572,30.56 -39.81,31.323 -38.87,31.325L52.666,31.325C53.606,31.325 54.369,30.562 54.369,29.621L54.369,-8.952C54.356,-20.81 44.746,-30.42 32.888,-30.433L32.888,-30.434ZM17.793,-62.88C17.793,-63.821 18.556,-64.584 19.496,-64.584L24.285,-64.584C25.226,-64.573 25.979,-63.801 25.968,-62.86C25.957,-61.935 25.21,-61.188 24.285,-61.177L19.496,-61.177C18.556,-61.177 17.793,-61.939 17.793,-62.88ZM42.985,-11.273C42.528,-10.807 42.376,-10.121 42.595,-9.506C42.804,-8.923 42.966,-8.324 43.081,-7.714L40.531,-8.398C39.584,-11.422 37.149,-13.746 34.084,-14.55C31.029,-15.361 27.771,-14.568 25.43,-12.445L22.874,-13.129C23.276,-13.597 23.715,-14.031 24.187,-14.429C24.688,-14.851 24.902,-15.523 24.738,-16.158L24.095,-18.646L24.175,-18.693L26.007,-16.893C26.473,-16.435 27.161,-16.284 27.777,-16.506C29.331,-17.068 30.989,-17.288 32.637,-17.15C33.287,-17.097 33.911,-17.42 34.244,-17.982L35.549,-20.192L35.639,-20.168L35.663,-17.602C35.669,-16.95 36.047,-16.358 36.637,-16.079C38.132,-15.374 39.457,-14.355 40.522,-13.091C40.945,-12.591 41.616,-12.378 42.25,-12.541L44.739,-13.184L44.785,-13.104L42.985,-11.273ZM45.087,-16.793L42.391,-16.097C41.408,-17.104 40.286,-17.966 39.06,-18.656L39.036,-21.433C39.029,-22.145 38.58,-22.778 37.91,-23.02C37.427,-23.194 36.943,-23.346 36.471,-23.472C35.998,-23.597 35.529,-23.703 35.027,-23.797C34.323,-23.929 33.611,-23.606 33.247,-22.989L31.833,-20.595C30.424,-20.612 29.02,-20.426 27.664,-20.042L25.681,-21.99C25.171,-22.491 24.402,-22.62 23.757,-22.314C22.858,-21.886 21.995,-21.389 21.175,-20.826C20.583,-20.421 20.309,-19.688 20.488,-18.994L21.185,-16.3C20.171,-15.31 19.304,-14.181 18.609,-12.947C18.146,-12.128 18.435,-11.089 19.255,-10.626C19.38,-10.556 19.513,-10.501 19.652,-10.464L25.512,-8.896C26.142,-8.727 26.814,-8.933 27.241,-9.428C29.366,-11.882 33.078,-12.149 35.532,-10.024C36.53,-9.159 37.208,-7.984 37.457,-6.688C37.58,-6.047 38.059,-5.533 38.689,-5.364L44.542,-3.796C45.45,-3.552 46.385,-4.09 46.629,-4.999C46.666,-5.136 46.685,-5.277 46.687,-5.419C46.705,-6.837 46.519,-8.25 46.136,-9.615L48.086,-11.6C48.587,-12.11 48.717,-12.878 48.41,-13.524C47.982,-14.422 47.485,-15.286 46.922,-16.106C46.516,-16.699 45.783,-16.974 45.087,-16.793Z" style="fill:rgb(235,38,42);fill-rule:nonzero;"/>
                </g>
            </g>
        </g>
    </g>
</svg>
