<?xml version="1.0" encoding="UTF-8" standalone="no"?>
<!DOCTYPE svg PUBLIC "-//W3C//DTD SVG 1.1//EN" "http://www.w3.org/Graphics/SVG/1.1/DTD/svg11.dtd">
<svg width="100%" height="100%" viewBox="0 0 1050 1015" version="1.1" xmlns="http://www.w3.org/2000/svg" xmlns:xlink="http://www.w3.org/1999/xlink" xml:space="preserve" xmlns:serif="http://www.serif.com/" style="fill-rule:evenodd;clip-rule:evenodd;stroke-miterlimit:10;">
    <g transform="matrix(1,0,0,1,-12201.5,-30965)">
        <g id="Page-1" serif:id="Page 1" transform="matrix(8.33333,0,0,8.33333,0,0)">
            <rect x="0" y="0" width="1920" height="8614.75" style="fill:none;"/>
            <clipPath id="_clip1">
                <rect x="0" y="0" width="1920" height="8614.75"/>
            </clipPath>
            <g clip-path="url(#_clip1)">
                <g id="Layer-1" serif:id="Layer 1">
                    <g transform="matrix(1,0,0,-1,0,-2150.63)">
                        <rect x="0" y="-8614.75" width="1920" height="6464.11" style="fill-rule:nonzero;"/>
                    </g>
                    <g transform="matrix(-1,0,0,1,1910.3,-1051.71)">
                        <rect x="-6.529" y="4296.77" width="1923.35" height="1072.92" style="fill:rgb(7,7,7);"/>
                    </g>
                    <g transform="matrix(-1,0,0,1,3209.07,-890.612)">
                        <rect x="1415.81" y="4439.57" width="377.448" height="626.22" style="fill:rgb(7,7,7);stroke:white;stroke-width:2px;"/>
                    </g>
                    <g>
                        <g transform="matrix(1,0,0,1,1586.67,3829.48)">
                            <path d="M0,-0.001C-0.003,2.532 -2.065,4.596 -4.599,4.599L-114.425,4.599C-116.959,4.596 -119.021,2.532 -119.023,-0.001L-119.023,-4.6L-72.903,-4.6L-69.188,-0.885C-68.861,-0.557 -68.425,-0.376 -67.96,-0.376L-51.063,-0.376C-50.6,-0.376 -50.163,-0.557 -49.836,-0.885L-46.12,-4.6L0,-4.6L0,-0.001ZM1.737,-8.073L-46.84,-8.073C-47.298,-8.073 -47.745,-7.888 -48.067,-7.565L-51.783,-3.85L-67.24,-3.85L-70.956,-7.564C-71.283,-7.893 -71.72,-8.073 -72.184,-8.073L-120.761,-8.073C-121.719,-8.073 -122.498,-7.294 -122.498,-6.337L-122.498,-0.001C-122.492,4.445 -118.871,8.067 -114.425,8.072L-4.599,8.072C-0.152,8.067 3.469,4.445 3.475,-0.001L3.475,-6.337C3.475,-7.294 2.695,-8.073 1.737,-8.073" style="fill:rgb(235,38,42);fill-rule:nonzero;"/>
                        </g>
                        <g transform="matrix(1,0,0,1,1513.09,3725.61)">
                            <path d="M0,38.766L-5.318,33.448L-5.318,5.318L0,-0.001L28.13,-0.001L33.448,5.318L33.448,33.448L28.13,38.766L0,38.766ZM30.077,41.732L36.413,35.395C36.742,35.067 36.923,34.631 36.923,34.167L36.923,29.568L43.259,29.568L43.259,26.094L36.923,26.094L36.923,21.12L43.259,21.12L43.259,17.646L36.923,17.646L36.923,12.671L43.259,12.671L43.259,9.198L36.923,9.198L36.923,4.599C36.923,4.135 36.742,3.699 36.413,3.37L30.077,-2.965C29.751,-3.294 29.314,-3.474 28.85,-3.474L24.25,-3.474L24.25,-9.811L20.776,-9.811L20.776,-3.474L15.803,-3.474L15.803,-9.811L12.328,-9.811L12.328,-3.474L7.354,-3.474L7.354,-9.811L3.88,-9.811L3.88,-3.474L-0.719,-3.474C-1.184,-3.474 -1.62,-3.294 -1.947,-2.965L-8.283,3.37C-8.611,3.699 -8.792,4.135 -8.792,4.599L-8.792,9.198L-15.128,9.198L-15.128,12.671L-8.792,12.671L-8.792,17.646L-15.128,17.646L-15.128,21.12L-8.792,21.12L-8.792,26.094L-15.128,26.094L-15.128,29.568L-8.792,29.568L-8.792,34.167C-8.792,34.624 -8.606,35.072 -8.283,35.396L-1.947,41.731C-1.619,42.06 -1.183,42.241 -0.719,42.241L3.88,42.241L3.88,48.577L7.354,48.577L7.354,42.241L12.328,42.241L12.328,48.577L15.803,48.577L15.803,42.241L20.776,42.241L20.776,48.577L24.25,48.577L24.25,42.241L28.85,42.241C29.313,42.241 29.75,42.06 30.077,41.732" style="fill:rgb(235,38,42);fill-rule:nonzero;"/>
                        </g>
                        <g transform="matrix(1,0,0,1,1578.22,3808.36)">
                            <path d="M0,-78.145L0,8.073L3.475,8.073L3.475,-78.145C3.469,-82.591 -0.152,-86.213 -4.599,-86.218L-25.344,-86.218L-25.344,-82.745L-4.599,-82.745C-2.065,-82.742 -0.003,-80.678 0,-78.145" style="fill:rgb(235,38,42);fill-rule:nonzero;"/>
                        </g>
                        <g transform="matrix(1,0,0,1,1480.7,3812.96)">
                            <path d="M0,-87.343L20.745,-87.343L20.745,-90.817L0,-90.817C-4.446,-90.812 -8.068,-87.19 -8.073,-82.743L-8.073,3.474L-4.599,3.474L-4.599,-82.743C-4.597,-85.277 -2.534,-87.34 0,-87.343" style="fill:rgb(235,38,42);fill-rule:nonzero;"/>
                        </g>
                        <g transform="matrix(1,0,0,1,0,-1014.93)">
                            <rect x="1525.42" y="4794.1" width="3.475" height="41.491" style="fill:rgb(235,38,42);"/>
                        </g>
                        <g transform="matrix(1,0,0,1,0,-1048.72)">
                            <rect x="1487.41" y="4830" width="3.475" height="3.474" style="fill:rgb(235,38,42);"/>
                        </g>
                        <g transform="matrix(1,0,0,1,0,-1048.72)">
                            <rect x="1495.86" y="4830" width="22.482" height="3.474" style="fill:rgb(235,38,42);"/>
                        </g>
                        <g transform="matrix(1,0,0,1,0,-1031.83)">
                            <rect x="1483.18" y="4821.55" width="35.154" height="3.474" style="fill:rgb(235,38,42);"/>
                        </g>
                        <g transform="matrix(1,0,0,1,0,-1014.93)">
                            <rect x="1483.18" y="4813.1" width="35.154" height="3.474" style="fill:rgb(235,38,42);"/>
                        </g>
                        <g transform="matrix(1,0,0,1,0,-998.036)">
                            <rect x="1483.18" y="4804.66" width="30.931" height="3.474" style="fill:rgb(235,38,42);"/>
                        </g>
                        <g transform="matrix(1,0,0,1,0,-1048.72)">
                            <rect x="1540.21" y="4830" width="3.475" height="3.474" style="fill:rgb(235,38,42);"/>
                        </g>
                        <g transform="matrix(1,0,0,1,0,-1048.72)">
                            <rect x="1548.66" y="4830" width="22.482" height="3.474" style="fill:rgb(235,38,42);"/>
                        </g>
                        <g transform="matrix(1,0,0,1,0,-1031.83)">
                            <rect x="1535.98" y="4821.55" width="35.154" height="3.474" style="fill:rgb(235,38,42);"/>
                        </g>
                        <g transform="matrix(1,0,0,1,0,-1014.93)">
                            <rect x="1535.98" y="4813.1" width="35.154" height="3.474" style="fill:rgb(235,38,42);"/>
                        </g>
                        <g transform="matrix(1,0,0,1,0,-998.036)">
                            <rect x="1535.98" y="4804.66" width="30.931" height="3.474" style="fill:rgb(235,38,42);"/>
                        </g>
                    </g>
                    <g transform="matrix(1,0,0,1,1538.1,3734.06)">
                        <path d="M0,21.869L-4.993,21.869L-4.974,-0.001L0,-0.001L0,21.869ZM-9.216,21.869L-9.197,21.869L-21.87,21.869L-21.87,8.447L-13.422,8.447L-13.422,4.973L-21.87,4.973L-21.87,-0.001L-8.447,-0.001L-8.466,21.869L-9.216,21.869ZM1.737,-3.475L-23.606,-3.475C-24.564,-3.475 -25.344,-2.695 -25.344,-1.738L-25.344,23.606C-25.344,24.564 -24.564,25.344 -23.606,25.344L1.737,25.344C2.695,25.344 3.475,24.564 3.475,23.606L3.475,-1.738C3.475,-2.695 2.695,-3.475 1.737,-3.475" style="fill:rgb(235,38,42);fill-rule:nonzero;"/>
                    </g>
                    <g transform="matrix(1,0,0,1,0,-1116.31)">
                        <rect x="1521.2" y="4863.79" width="3.474" height="3.475" style="fill:rgb(235,38,42);"/>
                    </g>
                </g>
            </g>
        </g>
    </g>
</svg>
