<?xml version="1.0" encoding="UTF-8" standalone="no"?>
<!DOCTYPE svg PUBLIC "-//W3C//DTD SVG 1.1//EN" "http://www.w3.org/Graphics/SVG/1.1/DTD/svg11.dtd">
<svg width="100%" height="100%" viewBox="0 0 1955 2359" version="1.1" xmlns="http://www.w3.org/2000/svg" xmlns:xlink="http://www.w3.org/1999/xlink" xml:space="preserve" xmlns:serif="http://www.serif.com/" style="fill-rule:evenodd;clip-rule:evenodd;stroke-miterlimit:10;">
    <g transform="matrix(1,0,0,1,-788.672,-32511.3)">
        <g id="Page-1" serif:id="Page 1" transform="matrix(4.16667,0,0,4.16667,0,0)">
            <rect x="0" y="0" width="1920" height="8614.75" style="fill:none;"/>
            <clipPath id="_clip1">
                <rect x="0" y="0" width="1920" height="8614.75"/>
            </clipPath>
            <g clip-path="url(#_clip1)">
                <g transform="matrix(-1,0,0,1,1918.83,7433.65)">
                    <rect x="0" y="0" width="1918.83" height="1181.1" style="fill:rgb(7,7,7);stroke:white;stroke-width:2px;"/>
                </g>
                <g>
                    <g transform="matrix(0,-1,-1,0,362.402,8180.9)">
                        <path d="M-173.121,-173.121C-181.195,-173.121 -187.738,-95.611 -187.738,0.001C-187.738,95.612 -181.195,173.121 -173.121,173.121C-165.046,173.121 -158.503,95.612 -158.503,0.001C-158.503,-95.611 -165.046,-173.121 -173.121,-173.121" style="fill:rgb(61,61,61);fill-rule:nonzero;"/>
                    </g>
                    <g transform="matrix(1,0,0,1,268.332,8101.72)">
                        <path d="M0,215.845C-1.179,215.845 -2.134,214.889 -2.134,213.711L-2.134,179.7C-2.134,179.134 -1.909,178.591 -1.509,178.191L16.173,160.509L16.173,61.911L-2.242,43.497C-2.642,43.096 -2.867,42.553 -2.867,41.987L-2.867,2.134C-2.867,0.955 -1.911,0 -0.732,0C0.446,0 1.402,0.955 1.402,2.134L1.402,41.103L19.817,59.518C20.217,59.918 20.442,60.461 20.442,61.027L20.442,161.393C20.442,161.959 20.217,162.502 19.817,162.902L2.135,180.585L2.135,213.711C2.135,214.889 1.179,215.845 0,215.845" style="fill:rgb(235,38,42);fill-rule:nonzero;"/>
                    </g>
                    <g transform="matrix(1,0,0,1,308.58,8243.9)">
                        <path d="M0,76.131C-1.179,76.131 -2.135,75.175 -2.135,73.997L-2.135,35.447C-2.135,34.881 -1.91,34.338 -1.509,33.938L6.276,26.153L6.276,2.134C6.276,0.956 7.231,0 8.41,0C9.589,0 10.545,0.956 10.545,2.134L10.545,27.037C10.545,27.603 10.32,28.146 9.92,28.546L2.134,36.332L2.134,73.997C2.134,75.175 1.179,76.131 0,76.131" style="fill:rgb(235,38,42);fill-rule:nonzero;"/>
                    </g>
                    <g transform="matrix(1,0,0,1,351.102,8139.12)">
                        <path d="M0,180.911C-1.179,180.911 -2.135,179.955 -2.135,178.777L-2.135,91.229L-20.689,72.674C-21.09,72.274 -21.315,71.731 -21.315,71.165L-21.315,2.135C-21.315,0.956 -20.359,0 -19.18,0C-18.001,0 -17.046,0.956 -17.046,2.135L-17.046,70.281L1.509,88.836C1.91,89.236 2.134,89.779 2.134,90.345L2.134,178.777C2.134,179.955 1.179,180.911 0,180.911" style="fill:rgb(235,38,42);fill-rule:nonzero;"/>
                    </g>
                    <g transform="matrix(1,0,0,1,393.4,8107.38)">
                        <path d="M0,215.893C-1.179,215.893 -2.135,214.937 -2.135,213.758L-2.135,189.293L-16.395,175.033C-16.795,174.633 -17.02,174.09 -17.02,173.524L-17.02,42.618C-17.02,42.052 -16.795,41.51 -16.395,41.109L-2.902,27.616L-2.902,2.135C-2.902,0.956 -1.946,0 -0.767,0C0.411,0 1.367,0.956 1.367,2.135L1.367,28.5C1.367,29.067 1.142,29.609 0.742,30.01L-12.751,43.503L-12.751,172.639L1.509,186.9C1.91,187.3 2.134,187.843 2.134,188.409L2.134,213.758C2.134,214.937 1.179,215.893 0,215.893" style="fill:rgb(235,38,42);fill-rule:nonzero;"/>
                    </g>
                    <g transform="matrix(1,0,0,1,423.611,8140.49)">
                        <path d="M0,184.115C-1.179,184.115 -2.134,183.159 -2.134,181.981L-2.134,169.783C-2.134,169.216 -1.91,168.674 -1.509,168.273L12.295,154.469L12.295,133.156L-0.76,120.102C-1.16,119.701 -1.385,119.158 -1.385,118.592L-1.385,2.135C-1.385,0.956 -0.429,0 0.749,0C1.928,0 2.884,0.956 2.884,2.135L2.884,117.708L15.939,130.762C16.339,131.163 16.564,131.706 16.564,132.272L16.564,155.353C16.564,155.92 16.339,156.462 15.939,156.863L2.135,170.667L2.135,181.981C2.135,183.159 1.179,184.115 0,184.115" style="fill:rgb(235,38,42);fill-rule:nonzero;"/>
                    </g>
                    <g transform="matrix(1,0,0,1,449.745,8172.47)">
                        <path d="M0,145.096C-1.179,145.096 -2.134,144.14 -2.134,142.962L-2.134,89.672L-10.799,81.006C-11.2,80.606 -11.425,80.063 -11.425,79.497L-11.425,69.051C-11.425,68.485 -11.2,67.942 -10.799,67.541L-3.28,60.021L-3.28,2.135C-3.28,0.956 -2.324,0 -1.145,0C0.034,0 0.99,0.956 0.99,2.135L0.99,60.905C0.99,61.472 0.765,62.014 0.364,62.415L-7.156,69.935L-7.156,78.613L1.509,87.278C1.91,87.678 2.135,88.221 2.135,88.787L2.135,142.962C2.135,144.14 1.179,145.096 0,145.096" style="fill:rgb(235,38,42);fill-rule:nonzero;"/>
                    </g>
                    <g transform="matrix(0,-1,-1,0,267.599,8091.38)">
                        <path d="M-9.508,-9.508C-14.759,-9.508 -19.016,-5.251 -19.016,-0C-19.016,5.251 -14.759,9.508 -9.508,9.508C-4.257,9.508 -0,5.251 -0,-0C-0,-5.251 -4.257,-9.508 -9.508,-9.508" style="fill:white;fill-rule:nonzero;"/>
                    </g>
                    <g transform="matrix(0,-1,-1,0,316.99,8231.2)">
                        <path d="M-9.508,-9.508C-14.759,-9.508 -19.016,-5.251 -19.016,-0C-19.016,5.251 -14.759,9.508 -9.508,9.508C-4.257,9.508 -0,5.251 -0,-0C-0,-5.251 -4.257,-9.508 -9.508,-9.508" style="fill:white;fill-rule:nonzero;"/>
                    </g>
                    <g transform="matrix(0,-1,-1,0,331.922,8128.45)">
                        <path d="M-9.508,-9.508C-14.759,-9.508 -19.016,-5.251 -19.016,-0C-19.016,5.251 -14.759,9.508 -9.508,9.508C-4.257,9.508 -0,5.251 -0,-0C-0,-5.251 -4.257,-9.508 -9.508,-9.508" style="fill:white;fill-rule:nonzero;"/>
                    </g>
                    <g transform="matrix(0,-1,-1,0,392.633,8097.47)">
                        <path d="M-9.508,-9.508C-14.759,-9.508 -19.016,-5.251 -19.016,-0C-19.016,5.251 -14.759,9.508 -9.508,9.508C-4.257,9.508 -0,5.251 -0,-0C-0,-5.251 -4.257,-9.508 -9.508,-9.508" style="fill:white;fill-rule:nonzero;"/>
                    </g>
                    <g transform="matrix(0,-1,-1,0,424.36,8130.29)">
                        <path d="M-9.508,-9.508C-14.759,-9.508 -19.016,-5.251 -19.016,-0C-19.016,5.251 -14.759,9.508 -9.508,9.508C-4.257,9.508 -0,5.251 -0,-0C-0,-5.251 -4.257,-9.508 -9.508,-9.508" style="fill:white;fill-rule:nonzero;"/>
                    </g>
                    <g transform="matrix(0,-1,-1,0,448.6,8160)">
                        <path d="M-9.508,-9.508C-14.759,-9.508 -19.016,-5.251 -19.016,-0C-19.016,5.251 -14.759,9.508 -9.508,9.508C-4.257,9.508 -0,5.251 -0,-0C-0,-5.251 -4.257,-9.508 -9.508,-9.508" style="fill:white;fill-rule:nonzero;"/>
                    </g>
                    <g transform="matrix(1,0,0,1,512.629,8345.85)">
                        <path d="M0,-13.311L0,0.001C0,6.276 -5.134,11.41 -11.41,11.41L-289.045,11.41C-295.321,11.41 -300.455,6.276 -300.455,0.001L-300.455,-13.311C-300.455,-19.586 -295.321,-24.721 -289.045,-24.721L-11.41,-24.721C-5.134,-24.721 0,-19.586 0,-13.311" style="fill:rgb(61,61,61);fill-rule:nonzero;"/>
                    </g>
                    <g transform="matrix(1,0,0,1,512.629,8357.27)">
                        <path d="M0,-18.541L0,-11.41C0,-5.135 -5.134,0 -11.41,0L-289.045,0C-295.321,0 -300.455,-5.135 -300.455,-11.41L-300.455,-18.541L0,-18.541Z" style="fill:rgb(40,40,40);fill-rule:nonzero;"/>
                    </g>
                    <g transform="matrix(1,0,0,1,257.654,7814.68)">
                        <path d="M0,500.752L211.148,500.752C215.261,500.752 218.596,497.418 218.596,493.304L218.596,114.661C218.596,52.294 168.6,0.756 106.234,0.398C43.612,0.039 -7.448,50.878 -7.448,113.418L-7.448,493.304C-7.448,497.418 -4.113,500.752 0,500.752M216.853,513.113L-5.705,513.113C-13.494,513.113 -19.808,506.798 -19.808,499.009L-19.808,114.797C-19.808,45.61 35.655,-11.564 104.841,-11.962C174.312,-12.361 230.956,44.038 230.956,113.418L230.956,499.009C230.956,506.798 224.642,513.113 216.853,513.113" style="fill:white;fill-rule:nonzero;"/>
                    </g>
                    <g transform="matrix(1,0,0,1,453.023,7886.93)">
                        <path d="M0,46.095L0,75.659L-163.312,75.659C-170.894,75.659 -177.053,69.495 -177.053,61.918L-177.053,52.416C-177.053,51.864 -177.053,51.317 -177.033,50.79C-177.007,49.255 -176.942,47.721 -176.825,46.207C-176.617,43.37 -176.253,40.574 -175.746,37.804C-175.473,36.269 -175.154,34.734 -174.789,33.225C-173.69,28.601 -172.175,24.134 -170.322,19.874C-169.658,18.319 -168.949,16.805 -168.169,15.296C-165.353,9.709 -161.873,4.507 -157.887,-0.254C-156.56,-1.834 -155.183,-3.369 -153.719,-4.832C-151.318,-7.324 -148.74,-9.659 -146.02,-11.812L-146.02,-11.817C-143.792,-13.585 -141.467,-15.236 -139.066,-16.765C-136.432,-18.437 -133.708,-19.971 -130.892,-21.344C-124.019,-24.687 -116.599,-27.093 -108.814,-28.42C-107.304,-28.673 -105.77,-28.875 -104.235,-29.063C-101.237,-29.382 -98.168,-29.564 -95.078,-29.564L-75.634,-29.564C-73.436,-29.564 -71.283,-29.473 -69.13,-29.266C-67.596,-29.154 -66.086,-28.992 -64.572,-28.764C-46.896,-26.176 -31.21,-17.449 -19.738,-4.832C-18.365,-3.369 -17.084,-1.834 -15.868,-0.254C-13.027,3.408 -10.51,7.328 -8.382,11.472C-7.602,12.981 -6.868,14.495 -6.205,16.05C-2.953,23.561 -0.871,31.716 -0.228,40.275C-0.111,41.79 -0.046,43.324 -0.02,44.859C0,45.269 0,45.68 0,46.095" style="fill:rgb(235,38,42);fill-rule:nonzero;"/>
                    </g>
                    <g transform="matrix(1,0,0,1,453.033,8001.44)">
                        <path d="M0,-38.853C0,-34.457 -1.783,-31.205 -4.7,-27.143C-4.812,-26.976 -4.954,-26.783 -5.09,-26.586L-20.244,-11.432C-27.563,-4.118 -37.491,0 -47.833,0C-55.567,0 -61.098,-2.112 -65.773,-5.314C-70.443,-8.509 -74.251,-12.738 -78.48,-16.993L-79.26,-17.773L-95.027,-17.773C-102.316,-17.773 -108.763,-21.496 -112.547,-27.143C-114.801,-30.506 -116.108,-34.512 -116.108,-38.853L0,-38.853Z" style="fill:rgb(235,38,42);fill-rule:nonzero;"/>
                    </g>
                    <g transform="matrix(1,0,0,1,453.033,8001.44)">
                        <path d="M0,-38.853C0,-34.457 -1.783,-31.205 -4.7,-27.143C-4.812,-26.976 -4.954,-26.783 -5.09,-26.586L-20.244,-11.432C-27.563,-4.118 -37.491,0 -47.833,0C-55.567,0 -61.098,-2.112 -65.773,-5.314C-70.443,-8.509 -74.251,-12.738 -78.48,-16.993L-79.26,-17.773L-95.027,-17.773C-102.316,-17.773 -108.763,-21.496 -112.547,-27.143C-114.801,-30.506 -116.108,-34.512 -116.108,-38.853L0,-38.853Z" style="fill:rgb(235,38,42);fill-rule:nonzero;"/>
                    </g>
                    <g transform="matrix(1,0,0,1,439.127,8001.44)">
                        <path d="M0,-17.77L-6.341,-11.43C-13.655,-4.116 -23.583,0 -33.928,0C-41.659,0 -47.193,-2.113 -51.865,-5.311C-56.537,-8.51 -60.347,-12.736 -64.574,-16.992L-65.353,-17.77L0,-17.77Z" style="fill:white;fill-rule:nonzero;"/>
                    </g>
                    <g transform="matrix(1,0,0,1,302.875,7933.14)">
                        <path d="M0,15.25L-4.58,15.25C-4.58,9.365 -9.366,4.579 -15.251,4.579L-26.883,4.579C-26.86,3.045 -26.792,1.511 -26.677,0L-15.251,0C-6.847,0 0,6.846 0,15.25" style="fill:white;fill-rule:nonzero;"/>
                    </g>
                    <g transform="matrix(1,0,0,1,324.148,7924.73)">
                        <path d="M0,-26.334C0,-22.899 -0.664,-19.602 -1.878,-16.602C-2.519,-14.999 -3.297,-13.465 -4.259,-12.022C-8.93,-4.786 -17.082,0 -26.334,0L-46.874,0C-46.6,-1.534 -46.279,-3.069 -45.913,-4.58L-26.334,-4.58C-14.335,-4.58 -4.58,-14.335 -4.58,-26.334L0,-26.334Z" style="fill:white;fill-rule:nonzero;"/>
                    </g>
                    <g transform="matrix(1,0,0,1,453.024,7935.61)">
                        <path d="M0,10.488L0,15.068L-30.868,15.068C-41.539,14.862 -50.149,6.137 -50.149,-4.58L-45.569,-4.58C-45.569,3.733 -38.814,10.488 -30.502,10.488L0,10.488Z" style="fill:white;fill-rule:nonzero;"/>
                    </g>
                    <g transform="matrix(0,1,1,0,295.799,7915.32)">
                        <path d="M-13.099,8.519L-8.519,8.519L-8.519,-13.099C-10.076,-12.434 -11.588,-11.724 -13.099,-10.945L-13.099,8.519Z" style="fill:white;fill-rule:nonzero;"/>
                    </g>
                    <g transform="matrix(1,0,0,1,437.155,7902.98)">
                        <path d="M0,-16.304L-29.128,-16.304C-40.646,-16.304 -50.034,-6.938 -50.034,4.58L-54.614,4.58C-54.614,0.115 -53.446,-4.076 -51.409,-7.74C-50.584,-9.228 -49.622,-10.625 -48.5,-11.907C-43.852,-17.403 -36.89,-20.884 -29.128,-20.884L-3.87,-20.884C-2.496,-19.418 -1.214,-17.884 0,-16.304" style="fill:white;fill-rule:nonzero;"/>
                    </g>
                    <g transform="matrix(-1,0,0,1,413.614,7898.4)">
                        <path d="M-33.204,4.58L0,4.58L0,0L-31.028,0C-31.807,1.511 -32.54,3.023 -33.204,4.58" style="fill:white;fill-rule:nonzero;"/>
                    </g>
                    <g transform="matrix(1,0,0,1,348.813,7962.58)">
                        <path d="M0,-33.844L0,-29.264C-6.572,-29.264 -11.908,-23.929 -11.908,-17.357L-11.908,0L-16.487,0L-16.487,-17.357C-16.487,-17.517 -16.487,-17.7 -16.464,-17.861C-16.442,-19.441 -16.167,-20.952 -15.709,-22.372C-13.579,-29.013 -7.35,-33.844 0,-33.844" style="fill:white;fill-rule:nonzero;"/>
                    </g>
                    <g transform="matrix(1,0,0,1,362.802,7862.45)">
                        <path d="M0,21.342L0,25.922C-10.259,25.922 -18.594,17.586 -18.594,7.328L-18.594,-3.938C-17.082,-4.191 -15.548,-4.396 -14.014,-4.58L-14.014,7.328C-14.014,15.068 -7.74,21.342 0,21.342" style="fill:white;fill-rule:nonzero;"/>
                    </g>
                    <g transform="matrix(-0.551366,-0.834263,-0.834263,0.551366,367.296,7863.09)">
                        <path d="M-7.551,-20.365C-14.91,-14.431 -16.7,-3.723 -11.372,4.338L-7.551,1.813C-11.578,-4.281 -10.206,-12.379 -4.618,-16.841C-5.559,-18.057 -6.527,-19.23 -7.551,-20.365" style="fill:white;fill-rule:nonzero;"/>
                    </g>
                    <g transform="matrix(1,0,0,1,341.918,7882.09)">
                        <path d="M0,20.311L-4.58,20.311C-4.58,11.632 -11.656,4.579 -20.334,4.579L-46.783,4.579C-45.454,2.999 -44.081,1.465 -42.615,0L-20.334,0C-9.137,0 0,9.113 0,20.311" style="fill:white;fill-rule:nonzero;"/>
                    </g>
                    <g transform="matrix(1,0,0,1,389.691,7880.65)">
                        <path d="M0,15.027L-0.412,15.027C-8.699,15.027 -15.44,8.286 -15.44,0L-10.86,0C-10.86,5.76 -6.173,10.447 -0.412,10.447L0,10.447L0,15.027Z" style="fill:white;fill-rule:nonzero;"/>
                    </g>
                    <g transform="matrix(1,0,0,1,334.851,7923.97)">
                        <path d="M0,20.987C-7.141,20.987 -12.952,15.176 -12.952,8.035L-12.952,0L-8.372,0L-8.372,8.035C-8.372,12.651 -4.617,16.407 0,16.407L0,20.987Z" style="fill:white;fill-rule:nonzero;"/>
                    </g>
                    <g transform="matrix(1,0,0,1,383.411,7933.32)">
                        <path d="M0,50.356L-4.58,50.356L-4.58,25.675C-4.58,22.357 -7.28,19.657 -10.598,19.657C-16.443,19.657 -21.197,14.903 -21.197,9.058L-21.197,0L-16.617,0L-16.617,9.058C-16.617,12.377 -13.917,15.077 -10.598,15.077C-4.754,15.077 0,19.832 0,25.675L0,50.356Z" style="fill:white;fill-rule:nonzero;"/>
                    </g>
                    <g transform="matrix(1,0,0,1,381.121,7954.5)">
                        <path d="M0,17.747L0,13.167C5.892,13.167 10.686,8.374 10.686,2.481L10.686,0L15.266,0L15.266,2.481C15.266,10.898 8.417,17.747 0,17.747" style="fill:white;fill-rule:nonzero;"/>
                    </g>
                    <g transform="matrix(1,0,0,1,376.064,7908.13)">
                        <path d="M0,21.373L-4.58,21.373C-4.58,12.113 -12.112,4.58 -21.373,4.58L-57.419,4.58L-57.419,0L-21.373,0C-9.588,0 0,9.588 0,21.373" style="fill:white;fill-rule:nonzero;"/>
                    </g>
                    <g transform="matrix(1,0,0,1,387.239,7903.55)">
                        <path d="M0,16.781L-17.297,16.781L-17.297,12.201L0,12.201C6.728,12.201 12.201,6.728 12.201,0L16.781,0C16.781,9.253 9.253,16.781 0,16.781" style="fill:white;fill-rule:nonzero;"/>
                    </g>
                    <g transform="matrix(1,0,0,1,438.177,7948.39)">
                        <path d="M0,18.7C-8.839,18.7 -16.029,11.509 -16.029,2.671L-16.029,0L-11.45,0L-11.45,2.671C-11.45,8.984 -6.313,14.12 0,14.12L0,18.7Z" style="fill:white;fill-rule:nonzero;"/>
                    </g>
                    <g transform="matrix(1,0,0,1,421.386,7900.69)">
                        <path d="M0,16.029L-4.008,16.029L-4.008,11.449L0,11.449C6.312,11.449 11.449,6.313 11.449,0L16.029,0C16.029,8.838 8.838,16.029 0,16.029" style="fill:white;fill-rule:nonzero;"/>
                    </g>
                    <g transform="matrix(-1,0,0,1,429.781,7927.2)">
                        <path d="M-23.22,4.58L0,4.58L0,0L-23.014,0C-23.129,1.512 -23.197,3.046 -23.22,4.58" style="fill:white;fill-rule:nonzero;"/>
                    </g>
                    <g transform="matrix(1,0,0,1,336.399,7865.58)">
                        <path d="M0,11.633L-4.58,11.633C-4.58,7.74 -7.74,4.58 -11.633,4.58L-22.441,4.58C-19.808,2.909 -17.083,1.374 -14.266,0L-11.633,0C-5.221,0 0,5.222 0,11.633" style="fill:white;fill-rule:nonzero;"/>
                    </g>
                    <g transform="matrix(1,0,0,1,289.434,7978.21)">
                        <path d="M0,-15.631L0,-2.322C0,-1.034 1.073,0 2.36,-0.053C2.376,-0.054 2.391,-0.055 2.406,-0.055C3.621,-0.107 4.58,-1.108 4.58,-2.324L4.58,-15.631L0,-15.631Z" style="fill:white;fill-rule:nonzero;"/>
                    </g>
                    <g transform="matrix(1,0,0,1,298.217,7978.21)">
                        <path d="M0,-15.631L0,-2.322C0,-1.034 1.073,0 2.361,-0.053C2.376,-0.054 2.391,-0.055 2.406,-0.055C3.621,-0.107 4.58,-1.108 4.58,-2.324L4.58,-15.631L0,-15.631Z" style="fill:white;fill-rule:nonzero;"/>
                    </g>
                    <g transform="matrix(1,0,0,1,307.001,7978.21)">
                        <path d="M0,-15.631L0,-2.322C0,-1.034 1.073,0 2.36,-0.053C2.375,-0.054 2.391,-0.055 2.406,-0.055C3.621,-0.107 4.58,-1.108 4.58,-2.324L4.58,-15.631L0,-15.631Z" style="fill:white;fill-rule:nonzero;"/>
                    </g>
                    <g transform="matrix(1,0,0,1,315.785,7978.21)">
                        <path d="M0,-15.631L0,-2.322C0,-1.034 1.073,0 2.36,-0.053C2.376,-0.054 2.391,-0.055 2.407,-0.055C3.621,-0.107 4.58,-1.108 4.58,-2.324L4.58,-15.631L0,-15.631Z" style="fill:white;fill-rule:nonzero;"/>
                    </g>
                    <g transform="matrix(1,0,0,1,324.569,7978.21)">
                        <path d="M0,-15.631L0,-2.322C0,-1.034 1.073,0 2.36,-0.053C2.376,-0.054 2.391,-0.055 2.406,-0.055C3.621,-0.107 4.58,-1.108 4.58,-2.324L4.58,-15.631L0,-15.631Z" style="fill:white;fill-rule:nonzero;"/>
                    </g>
                    <g transform="matrix(0,-1,-1,0,588.039,8286.88)">
                        <path d="M-70.434,-70.434C-75.051,-70.434 -78.794,-38.9 -78.794,-0.001C-78.794,38.899 -75.051,70.434 -70.434,70.434C-65.817,70.434 -62.074,38.899 -62.074,-0.001C-62.074,-38.9 -65.817,-70.434 -70.434,-70.434" style="fill:rgb(61,61,61);fill-rule:nonzero;"/>
                    </g>
                    <g transform="matrix(1,0,0,1,522.1,8202.7)">
                        <path d="M0,75.694L-21.855,75.694C-22.838,75.694 -23.634,74.898 -23.634,73.915C-23.634,72.933 -22.838,72.136 -21.855,72.136L-1.779,72.136L-1.779,1.778C-1.779,0.796 -0.982,0 0,0L64.493,0C65.476,0 66.272,0.796 66.272,1.778L66.272,17.005C66.272,17.987 65.476,18.784 64.493,18.784C63.511,18.784 62.715,17.987 62.715,17.005L62.715,3.557L1.779,3.557L1.779,73.915C1.779,74.898 0.983,75.694 0,75.694" style="fill:rgb(235,38,42);fill-rule:nonzero;"/>
                    </g>
                    <g transform="matrix(1,0,0,1,488.611,8269.86)">
                        <path d="M0,13.499L8.909,13.499C11.444,13.499 13.499,11.444 13.499,8.909L13.499,4.591C13.499,2.055 11.444,0 8.909,0L0,0L0,13.499Z" style="fill:rgb(235,38,42);fill-rule:nonzero;"/>
                    </g>
                    <g transform="matrix(1,0,0,1,546.176,8352.75)">
                        <path d="M0,-122.632L0,0.001C0,2.697 2.185,4.881 4.881,4.881L75.954,4.881C77.313,4.881 78.541,4.326 79.424,3.431C80.297,2.553 80.835,1.342 80.835,0.001L80.835,-122.632C80.835,-125.328 78.65,-127.513 75.954,-127.513L4.881,-127.513C3.915,-127.513 3.019,-127.233 2.263,-126.752C0.905,-125.887 0,-124.367 0,-122.632" style="fill:rgb(235,38,42);fill-rule:nonzero;"/>
                    </g>
                    <g transform="matrix(1,0,0,1,568.323,8242.17)">
                        <path d="M0,6.718L47.463,6.718C49.318,6.718 50.822,5.214 50.822,3.359C50.822,1.504 49.318,0 47.463,0L0,0C-1.855,0 -3.359,1.504 -3.359,3.359C-3.359,5.214 -1.855,6.718 0,6.718" style="fill:white;fill-rule:nonzero;"/>
                    </g>
                    <g transform="matrix(1,0,0,1,568.323,8257.47)">
                        <path d="M0,6.718L47.463,6.718C49.318,6.718 50.822,5.214 50.822,3.359C50.822,1.504 49.318,0 47.463,0L0,0C-1.855,0 -3.359,1.504 -3.359,3.359C-3.359,5.214 -1.855,6.718 0,6.718" style="fill:white;fill-rule:nonzero;"/>
                    </g>
                    <g transform="matrix(1,0,0,1,568.323,8318.68)">
                        <path d="M0,6.718L47.463,6.718C49.318,6.718 50.822,5.214 50.822,3.359C50.822,1.504 49.318,0 47.463,0L0,0C-1.855,0 -3.359,1.504 -3.359,3.359C-3.359,5.214 -1.855,6.718 0,6.718" style="fill:white;fill-rule:nonzero;"/>
                    </g>
                    <g transform="matrix(1,0,0,1,568.323,8333.98)">
                        <path d="M0,6.718L47.463,6.718C49.318,6.718 50.822,5.214 50.822,3.359C50.822,1.504 49.318,0 47.463,0L0,0C-1.855,0 -3.359,1.504 -3.359,3.359C-3.359,5.214 -1.855,6.718 0,6.718" style="fill:white;fill-rule:nonzero;"/>
                    </g>
                    <g transform="matrix(0,1,1,0,556.809,8242.17)">
                        <path d="M1.438,-1.439C2.232,-1.439 2.877,-0.795 2.877,-0.001C2.877,0.793 2.232,1.438 1.438,1.438C0.644,1.438 0,0.793 0,-0.001C0,-0.795 0.644,-1.439 1.438,-1.439" style="fill:white;fill-rule:nonzero;"/>
                    </g>
                    <g transform="matrix(0,1,1,0,556.808,8246.01)">
                        <path d="M1.439,-1.438C2.233,-1.438 2.877,-0.794 2.877,0C2.877,0.794 2.233,1.439 1.439,1.439C0.645,1.439 0,0.794 0,0C0,-0.794 0.645,-1.438 1.439,-1.438" style="fill:rgb(235,38,42);fill-rule:nonzero;"/>
                    </g>
                    <g transform="matrix(0,1,1,0,556.808,8257.47)">
                        <path d="M1.438,-1.438C2.233,-1.438 2.877,-0.794 2.877,-0C2.877,0.793 2.233,1.438 1.438,1.438C0.645,1.438 0,0.793 0,-0C0,-0.794 0.645,-1.438 1.438,-1.438" style="fill:white;fill-rule:nonzero;"/>
                    </g>
                    <g transform="matrix(0,1,1,0,556.808,8261.31)">
                        <path d="M1.438,-1.438C2.233,-1.438 2.877,-0.794 2.877,-0C2.877,0.793 2.233,1.438 1.438,1.438C0.645,1.438 0,0.793 0,-0C0,-0.794 0.645,-1.438 1.438,-1.438" style="fill:rgb(235,38,42);fill-rule:nonzero;"/>
                    </g>
                    <g transform="matrix(0,1,1,0,556.808,8318.68)">
                        <path d="M1.438,-1.438C2.233,-1.438 2.877,-0.794 2.877,-0C2.877,0.793 2.233,1.438 1.438,1.438C0.645,1.438 0,0.793 0,-0C0,-0.794 0.645,-1.438 1.438,-1.438" style="fill:white;fill-rule:nonzero;"/>
                    </g>
                    <g transform="matrix(0,1,1,0,556.808,8322.52)">
                        <path d="M1.438,-1.438C2.233,-1.438 2.877,-0.794 2.877,-0C2.877,0.793 2.233,1.438 1.438,1.438C0.645,1.438 0,0.793 0,-0C0,-0.794 0.645,-1.438 1.438,-1.438" style="fill:rgb(235,38,42);fill-rule:nonzero;"/>
                    </g>
                    <g transform="matrix(0,1,1,0,556.808,8333.98)">
                        <path d="M1.438,-1.438C2.233,-1.438 2.877,-0.794 2.877,-0C2.877,0.793 2.233,1.438 1.438,1.438C0.645,1.438 0,0.793 0,-0C0,-0.794 0.645,-1.438 1.438,-1.438" style="fill:white;fill-rule:nonzero;"/>
                    </g>
                    <g transform="matrix(0,1,1,0,556.808,8337.82)">
                        <path d="M1.438,-1.438C2.233,-1.438 2.877,-0.794 2.877,-0C2.877,0.793 2.233,1.438 1.438,1.438C0.645,1.438 0,0.793 0,-0C0,-0.794 0.645,-1.438 1.438,-1.438" style="fill:rgb(235,38,42);fill-rule:nonzero;"/>
                    </g>
                    <g transform="matrix(1,0,0,1,596.698,8282.33)">
                        <path d="M0,20.21L0,0L-20.21,0L0,20.21Z" style="fill:white;fill-rule:nonzero;"/>
                    </g>
                    <g transform="matrix(1,0,0,1,561.593,8219.7)">
                        <path d="M0,5.533L50,5.533C50,2.477 47.522,0 44.466,0L5.533,0C2.477,0 0,2.477 0,5.533" style="fill:white;fill-rule:nonzero;"/>
                    </g>
                </g>
            </g>
        </g>
    </g>
</svg>
