<?xml version="1.0" encoding="UTF-8" standalone="no"?>
<!DOCTYPE svg PUBLIC "-//W3C//DTD SVG 1.1//EN" "http://www.w3.org/Graphics/SVG/1.1/DTD/svg11.dtd">
<svg width="100%" height="100%" viewBox="0 0 660 271" version="1.1" xmlns="http://www.w3.org/2000/svg" xmlns:xlink="http://www.w3.org/1999/xlink" xml:space="preserve" xmlns:serif="http://www.serif.com/" style="fill-rule:evenodd;clip-rule:evenodd;stroke-linejoin:round;stroke-miterlimit:2;">
    <g transform="matrix(1,0,0,1,-3617.18,-26374.1)">
        <g id="Page-1" serif:id="Page 1" transform="matrix(4.16667,0,0,4.16667,0,0)">
            <rect x="0" y="0" width="1920" height="8614.75" style="fill:none;"/>
            <clipPath id="_clip1">
                <rect x="0" y="0" width="1920" height="8614.75"/>
            </clipPath>
            <g clip-path="url(#_clip1)">
                <g transform="matrix(1,0,0,-1,0,-2150.63)">
                    <rect x="0" y="-8614.75" width="1920" height="6464.11" style="fill-rule:nonzero;"/>
                </g>
                <g transform="matrix(-1,0,0,1,1907.7,3242.57)">
                    <rect x="-9.124" y="2147.91" width="1925.95" height="1076.37" style="fill:white;"/>
                </g>
                <g>
                    <g transform="matrix(1,0,0,1,976.939,6349.34)">
                        <path d="M0,26.004C0.423,26.004 0.717,25.711 0.717,25.289L0.717,4.323L7.837,4.323C8.26,4.323 8.552,4.03 8.552,3.608L8.552,0.716C8.552,0.292 8.26,-0.001 7.837,-0.001L-11.121,-0.001C-11.545,-0.001 -11.837,0.293 -11.837,0.716L-11.837,3.608C-11.837,4.03 -11.544,4.323 -11.121,4.323L-4.001,4.323L-4.001,25.288C-4.001,25.711 -3.707,26.004 -3.285,26.004L0,26.004ZM32.451,25.094C32.874,25.549 32.614,26.004 32.092,26.004L27.963,26.004C27.41,26.004 27.117,25.873 26.76,25.451L24.289,22.721C22.631,24.932 20.32,26.589 16.484,26.589C11.737,26.589 7.996,23.729 7.996,18.821C7.996,15.05 10.013,13.034 13.07,11.344C11.573,9.621 10.892,7.801 10.892,6.209C10.892,2.177 13.72,-0.585 17.979,-0.585C22.337,-0.585 25.004,1.984 25.004,5.786C25.004,9.036 22.663,10.855 20.191,12.221L23.833,16.156L25.882,12.579C26.142,12.157 26.434,11.994 26.954,11.994L30.107,11.994C30.628,11.994 30.921,12.352 30.597,12.905L26.954,19.145L32.451,25.094M18.045,3.445C16.355,3.445 15.379,4.519 15.379,5.949C15.379,7.054 15.963,8.029 17.297,9.459C19.606,8.126 20.582,7.314 20.582,5.884C20.582,4.55 19.737,3.445 18.045,3.445M16.582,22.493C18.662,22.493 20.061,21.487 21.2,19.763L15.933,14.107C13.916,15.245 12.614,16.381 12.614,18.658C12.615,20.901 14.435,22.493 16.582,22.493M-8.677,25.157C-8.513,25.581 -8.774,26.004 -9.229,26.004L-12.61,26.004C-13.098,26.004 -13.391,25.777 -13.555,25.32L-15.472,19.796L-25.974,19.796L-27.895,25.32C-28.057,25.777 -28.35,26.004 -28.837,26.004L-32.023,26.004C-32.446,26.004 -32.739,25.58 -32.577,25.157L-23.765,0.651C-23.602,0.194 -23.309,0.001 -22.822,0.001L-18.465,0.001C-17.977,0.001 -17.651,0.194 -17.489,0.651L-8.677,25.157M-16.969,15.537L-20.707,4.811L-24.48,15.537L-16.969,15.537ZM37.589,26.004C37.166,26.004 36.874,25.711 36.874,25.289L36.874,4.323L29.752,4.323C29.328,4.323 29.036,4.03 29.036,3.608L29.036,0.716C29.036,0.292 29.328,-0.001 29.752,-0.001L48.71,-0.001C49.133,-0.001 49.424,0.293 49.424,0.716L49.424,3.608C49.424,4.03 49.133,4.323 48.71,4.323L41.588,4.323L41.588,25.288C41.588,25.711 41.295,26.004 40.873,26.004L37.589,26.004Z" style="fill-rule:nonzero;"/>
                    </g>
                    <g transform="matrix(1,0,0,1,917.289,6390.24)">
                        <path d="M0,-55.86C-4.875,-58.782 -10.536,-60.444 -16.638,-60.444C-22.784,-60.444 -28.615,-58.724 -33.507,-55.725C-34.975,-54.821 -35.801,-54.098 -35.801,-53.167C-35.801,-50.425 -29.391,-47.476 -18.02,-47.476C-6.767,-47.476 1.961,-50.706 1.961,-53.815C1.961,-54.557 1.312,-55.076 0,-55.86M4.842,-52.248C4.979,-52.034 5.047,-51.805 5.047,-51.498C5.047,-47.885 -6.01,-41.494 -23.61,-41.494C-36.543,-41.494 -38.964,-46.292 -38.964,-49.343C-38.964,-50.433 -38.546,-51.549 -37.624,-52.683C-37.574,-52.75 -37.617,-52.776 -37.675,-52.726C-39.355,-51.302 -40.899,-49.7 -42.253,-47.971C-42.9,-47.153 -43.302,-46.428 -43.302,-45.994C-43.302,-39.671 -27.448,-35.087 -12.623,-35.087C3.172,-35.087 10.221,-40.243 10.221,-44.775C10.221,-46.394 9.591,-47.34 7.978,-49.173C6.931,-50.365 5.941,-51.336 4.893,-52.291C4.842,-52.333 4.807,-52.299 4.842,-52.248M-46.03,-41.879C-46.984,-39.985 -48.042,-36.792 -48.356,-35.139C-48.494,-34.431 -48.435,-34.09 -48.187,-33.562C-46.191,-29.328 -36.098,-22.555 -12.556,-22.555C1.807,-22.555 12.965,-26.083 14.772,-32.522C15.105,-33.708 15.123,-34.959 14.695,-36.646C14.218,-38.53 13.323,-40.727 12.566,-42.271C12.541,-42.321 12.496,-42.313 12.505,-42.254C12.787,-33.808 -10.765,-28.365 -22.649,-28.365C-35.521,-28.365 -46.259,-33.494 -46.259,-39.969C-46.259,-40.592 -46.131,-41.214 -45.97,-41.862C-45.954,-41.921 -46.004,-41.931 -46.03,-41.879M-23.176,-14.894C-39.824,-14.894 -47.674,-22.648 -49.098,-27.939C-49.116,-28.016 -49.166,-27.999 -49.166,-27.93C-49.166,-26.149 -48.988,-23.85 -48.681,-22.324C-48.535,-21.581 -47.93,-20.416 -47.044,-19.487C-43.013,-15.285 -32.962,-9.397 -15.557,-9.397C8.158,-9.397 13.58,-17.297 14.687,-19.894C15.479,-21.752 15.889,-25.11 15.889,-27.93C15.889,-28.612 15.872,-29.158 15.846,-29.693C15.846,-29.78 15.796,-29.787 15.779,-29.702C14.594,-23.346 -5.668,-14.894 -23.176,-14.894M-14.431,-0.587C-6.426,-0.587 2.37,-2.769 7.631,-7.089C9.07,-8.266 10.441,-9.832 11.669,-11.937C12.376,-13.148 13.068,-14.587 13.631,-16.001C13.656,-16.07 13.614,-16.104 13.562,-16.027C8.67,-8.827 -5.497,-4.337 -20.125,-4.337C-30.464,-4.337 -41.589,-7.643 -45.945,-13.956C-45.987,-14.015 -46.03,-13.99 -46.004,-13.922C-41.947,-5.298 -29.637,-0.587 -14.431,-0.587M-36.585,-2.249C-31.07,2.019 -24.149,4.584 -16.639,4.584C-8.42,4.584 -0.928,1.533 4.79,-3.475C4.859,-3.537 4.825,-3.577 4.756,-3.537C2.191,-1.823 -5.122,1.918 -16.638,1.918C-26.646,1.918 -32.971,-0.315 -36.543,-2.309C-36.611,-2.343 -36.636,-2.291 -36.585,-2.249" style="fill:rgb(0,168,224);fill-rule:nonzero;"/>
                    </g>
                </g>
            </g>
        </g>
    </g>
</svg>
