<?xml version="1.0" encoding="UTF-8" standalone="no"?>
<!DOCTYPE svg PUBLIC "-//W3C//DTD SVG 1.1//EN" "http://www.w3.org/Graphics/SVG/1.1/DTD/svg11.dtd">
<svg width="100%" height="100%" viewBox="0 0 3122 2772" version="1.1" xmlns="http://www.w3.org/2000/svg" xmlns:xlink="http://www.w3.org/1999/xlink" xml:space="preserve" xmlns:serif="http://www.serif.com/" style="fill-rule:evenodd;clip-rule:evenodd;stroke-miterlimit:10;">
    <g transform="matrix(1,0,0,1,-690.288,-23058.7)">
        <g id="Page-1" serif:id="Page 1" transform="matrix(4.16667,0,0,4.16667,0,0)">
            <rect x="0" y="0" width="1920" height="8614.75" style="fill:none;"/>
            <clipPath id="_clip1">
                <rect x="0" y="0" width="1920" height="8614.75"/>
            </clipPath>
            <g clip-path="url(#_clip1)">
                <g transform="matrix(1,0,0,-1,0,-2150.63)">
                    <rect x="0" y="-8614.75" width="1920" height="6464.11" style="fill-rule:nonzero;"/>
                </g>
                <g transform="matrix(-1,0,0,1,1907.7,3242.57)">
                    <rect x="-9.124" y="2147.91" width="1925.95" height="1076.37" style="fill:white;"/>
                </g>
                <g>
                    <g transform="matrix(1,0,0,1,299.948,5734.76)">
                        <path d="M0,-128.369L128.368,-128.369L128.369,0" style="fill:none;fill-rule:nonzero;stroke:rgb(235,38,42);stroke-width:7px;"/>
                    </g>
                    <g transform="matrix(1,0,0,1,778.621,5848.87)">
                        <path d="M0,-101.071L101.072,-101.072L101.072,0.001" style="fill:none;fill-rule:nonzero;stroke:rgb(235,38,42);stroke-width:7px;"/>
                    </g>
                    <g transform="matrix(8.0041e-06,1,1,-8.0041e-06,408.375,5967.84)">
                        <path d="M-124.935,-0.001L0.001,-0.001L-0.001,-124.936L-124.935,-124.935L-124.935,-0.001" style="fill:rgb(229,229,229);fill-rule:nonzero;"/>
                    </g>
                    <g transform="matrix(1,0,0,1,327.166,6165.85)">
                        <path d="M0,-62.521L0,0L-62.521,0L-62.52,-62.521L0,-62.521Z" style="fill:rgb(229,229,229);fill-rule:nonzero;"/>
                    </g>
                    <g transform="matrix(1,0,0,1,232.148,6077.43)">
                        <path d="M0,-82.5L82.5,-82.5L82.5,0" style="fill:none;fill-rule:nonzero;stroke:rgb(235,38,42);stroke-width:7px;"/>
                    </g>
                    <g transform="matrix(4.929e-06,1,1,-4.929e-06,741.386,6141.75)">
                        <rect x="-202.88" y="-202.881" width="202.879" height="202.881" style="fill:rgb(229,229,229);"/>
                    </g>
                    <g transform="matrix(-1,0,0,1,982.849,3203.06)">
                        <rect x="351.465" y="2565.89" width="279.919" height="279.919" style="fill:white;"/>
                    </g>
                    <g transform="matrix(-1,0,0,1,1511.12,3127.67)">
                        <rect x="653.295" y="2641.28" width="204.531" height="204.531" style="fill:white;stroke:black;stroke-width:1px;"/>
                    </g>
                    <g transform="matrix(1,0,0,1,785.837,6154.98)">
                        <path d="M0,-152.801C-0.006,-152.801 -0.011,-152.802 -0.017,-152.802L-132.541,-152.802L-132.542,0.001L24.347,0.001L24.349,-152.801L0,-152.801Z" style="fill:white;fill-rule:nonzero;stroke:rgb(181,181,181);stroke-width:1px;"/>
                    </g>
                    <g transform="matrix(-1,0,0,1,1212.03,2645.26)">
                        <rect x="515.113" y="2893.84" width="181.804" height="181.804" style="fill:white;stroke:black;stroke-width:1px;"/>
                    </g>
                    <g transform="matrix(-1,0,0,1,466.6,3539.7)">
                        <rect x="170.694" y="2474.92" width="125.212" height="125.212" style="fill:white;stroke:black;stroke-width:1px;"/>
                    </g>
                    <g transform="matrix(-1,0,0,1,1029.71,3666.55)">
                        <rect x="461.344" y="2420.59" width="107.024" height="107.024" style="fill:white;stroke:black;stroke-width:1px;"/>
                    </g>
                    <g transform="matrix(1,0,0,1,364.787,5629.2)">
                        <path d="M-90.173,130.054L39.88,130.054L39.88,0.001L26.886,0.001C26.884,0.001 26.883,0 26.881,0L-90.173,0L-90.174,117.055C-90.174,117.057 -90.173,117.059 -90.173,117.062L-90.173,130.054Z" style="fill:white;fill-rule:nonzero;stroke:rgb(181,181,181);stroke-width:1px;"/>
                    </g>
                    <g transform="matrix(-1,0,0,1,518.348,3143.17)">
                        <rect x="207.709" y="2684.32" width="102.93" height="102.93" style="fill:white;stroke:black;stroke-width:1px;"/>
                    </g>
                    <g transform="matrix(1,0,0,1,501.627,5873.54)">
                        <path d="M0,71.719L9.605,56.911L0,43.703L15.609,55.31L0,71.719ZM18.41,43.703L31.499,40.164L35.22,33.617L35.22,20.959L26.514,14.269L13.229,18.889L7.604,28.895L10.006,16.488L23.661,12.076L23.296,0.701L9.674,-7.666L3.202,9.284L6.874,-8.279L-8.762,-12.495L-8.762,80.386L1.047,84.214L10.895,84.214L25.484,68.966L25.484,60.961L31.32,53.357L31.32,42.729L18.41,43.703Z" style="fill-rule:nonzero;"/>
                    </g>
                    <g transform="matrix(1,0,0,1,466.092,5889.95)">
                        <path d="M0,38.9L15.609,27.294L6.003,40.501L15.609,55.309L0,38.9ZM-15.711,26.319L-15.711,36.947L-9.875,44.552L-9.875,52.556L4.714,67.804L14.562,67.804L24.37,63.976L24.37,-28.904L8.735,-24.689L12.407,-7.126L5.935,-24.076L-7.687,-15.709L-8.052,-4.334L5.603,0.078L8.005,12.485L2.38,2.48L-10.905,-2.141L-19.611,4.549L-19.611,17.207L-15.891,23.754L-2.802,27.294L-15.711,26.319Z" style="fill-rule:nonzero;"/>
                    </g>
                    <g transform="matrix(1,0,0,1,520.715,5851.26)">
                        <path d="M0,16.604L-2.986,14.609L11.623,0L36.455,0L36.455,3.373L13.021,3.373L0,16.604Z" style="fill-rule:nonzero;"/>
                    </g>
                    <g transform="matrix(-1,0,0,1,1097.54,3199.37)">
                        <rect x="540.368" y="2706" width="16.802" height="3.373"/>
                    </g>
                    <g transform="matrix(1,0,0,1,557.17,5951.62)">
                        <path d="M0,14.93L-23.833,14.93L-36.378,2.385L-33.993,0L-22.435,11.557L0,11.557L0,14.93Z" style="fill-rule:nonzero;"/>
                    </g>
                    <g transform="matrix(1,0,0,1,561.203,5854.52)">
                        <path d="M0,-3.164C-0.872,-3.164 -1.582,-2.454 -1.582,-1.582C-1.582,-0.71 -0.872,0 0,0C0.872,0 1.582,-0.71 1.582,-1.582C1.582,-2.454 0.872,-3.164 0,-3.164M0,3.373C-2.732,3.373 -4.955,1.15 -4.955,-1.582C-4.955,-4.314 -2.732,-6.537 0,-6.537C2.732,-6.537 4.955,-4.314 4.955,-1.582C4.955,1.15 2.732,3.373 0,3.373" style="fill-rule:nonzero;"/>
                    </g>
                    <g transform="matrix(1,0,0,1,561.203,5908.64)">
                        <path d="M0,-3.163C-0.872,-3.163 -1.582,-2.453 -1.582,-1.581C-1.582,-0.709 -0.872,0.001 0,0.001C0.872,0.001 1.582,-0.709 1.582,-1.581C1.582,-2.453 0.872,-3.163 0,-3.163M0,3.373C-2.732,3.373 -4.955,1.151 -4.955,-1.581C-4.955,-4.313 -2.732,-6.536 0,-6.536C2.732,-6.536 4.955,-4.313 4.955,-1.581C4.955,1.151 2.732,3.373 0,3.373" style="fill-rule:nonzero;"/>
                    </g>
                    <g transform="matrix(1,0,0,1,561.203,5966.45)">
                        <path d="M0,-3.164C-0.872,-3.164 -1.582,-2.454 -1.582,-1.582C-1.582,-0.71 -0.872,0 0,0C0.872,0 1.582,-0.71 1.582,-1.582C1.582,-2.454 0.872,-3.164 0,-3.164M0,3.373C-2.732,3.373 -4.955,1.15 -4.955,-1.582C-4.955,-4.314 -2.732,-6.537 0,-6.537C2.732,-6.537 4.955,-4.314 4.955,-1.582C4.955,1.15 2.732,3.373 0,3.373" style="fill-rule:nonzero;"/>
                    </g>
                    <g transform="matrix(1,0,0,1,462.224,5851.26)">
                        <path d="M0,16.604L2.986,14.609L-11.623,0L-36.455,0L-36.455,3.373L-13.021,3.373L0,16.604Z" style="fill-rule:nonzero;"/>
                    </g>
                    <g transform="matrix(1,0,0,1,0,3199.37)">
                        <rect x="425.768" y="2706" width="16.802" height="3.373"/>
                    </g>
                    <g transform="matrix(1,0,0,1,425.768,5951.62)">
                        <path d="M0,14.93L23.832,14.93L36.378,2.385L33.993,0L22.435,11.557L0,11.557L0,14.93Z" style="fill-rule:nonzero;"/>
                    </g>
                    <g transform="matrix(1,0,0,1,420.154,5852.94)">
                        <path d="M0,0C0,0.872 0.71,1.582 1.582,1.582C2.454,1.582 3.164,0.872 3.164,0C3.164,-0.872 2.454,-1.582 1.582,-1.582C0.71,-1.582 0,-0.872 0,0M-3.373,0C-3.373,-2.732 -1.15,-4.955 1.582,-4.955C4.314,-4.955 6.536,-2.732 6.536,0C6.536,2.732 4.314,4.955 1.582,4.955C-1.15,4.955 -3.373,2.732 -3.373,0" style="fill-rule:nonzero;"/>
                    </g>
                    <g transform="matrix(1,0,0,1,420.154,5907.06)">
                        <path d="M0,0C0,0.872 0.71,1.582 1.582,1.582C2.454,1.582 3.164,0.872 3.164,0C3.164,-0.872 2.454,-1.582 1.582,-1.582C0.71,-1.582 0,-0.872 0,0M-3.373,0C-3.373,-2.732 -1.15,-4.955 1.582,-4.955C4.314,-4.955 6.536,-2.732 6.536,0C6.536,2.732 4.314,4.955 1.582,4.955C-1.15,4.955 -3.373,2.732 -3.373,0" style="fill-rule:nonzero;"/>
                    </g>
                    <g transform="matrix(1,0,0,1,420.154,5964.87)">
                        <path d="M0,0C0,0.872 0.71,1.582 1.582,1.582C2.454,1.582 3.164,0.872 3.164,0C3.164,-0.872 2.454,-1.582 1.582,-1.582C0.71,-1.582 0,-0.872 0,0M-3.373,0C-3.373,-2.732 -1.15,-4.955 1.582,-4.955C4.314,-4.955 6.536,-2.732 6.536,0C6.536,2.732 4.314,4.955 1.582,4.955C-1.15,4.955 -3.373,2.732 -3.373,0" style="fill-rule:nonzero;"/>
                    </g>
                    <g transform="matrix(1,0,0,1,249.708,6056.8)">
                        <path d="M0,-14.251L-14.899,0L0,-9.938L0,-14.251Z" style="fill-rule:nonzero;"/>
                    </g>
                    <g transform="matrix(1,0,0,1,254.959,6058.8)">
                        <path d="M0,-13.313L-20.149,0L0,-8.782L0,-13.313Z" style="fill-rule:nonzero;"/>
                    </g>
                    <g transform="matrix(1,0,0,1,258.846,6085.31)">
                        <path d="M0,-14.409C-0.874,-14.409 -1.678,-14.865 -2.137,-15.585L-9.572,-15.585L-14.214,-10.868L-12.321,-9.705L-12.173,-5.094L-11.764,-5.236L-8.015,-2.355L-8.015,1.176L-2.137,1.176C-1.678,0.456 -0.874,0 0,0C0.699,0 1.333,0.285 1.792,0.744L1.784,-15.145C1.326,-14.69 0.695,-14.409 0,-14.409" style="fill-rule:nonzero;"/>
                    </g>
                    <g transform="matrix(1,0,0,1,240.406,6050.15)">
                        <path d="M0,22.018L0.099,21.759L1.796,22.802L7.739,16.859L16.303,16.859C16.762,16.139 17.566,15.683 18.44,15.683C19.135,15.683 19.764,15.964 20.222,16.417L20.213,-0.784L-5.596,10.366L-5.596,20.509L0,22.018Z" style="fill-rule:nonzero;"/>
                    </g>
                    <g transform="matrix(1,0,0,1,249.427,6090.46)">
                        <path d="M0,0.086L0,2.055L7.372,-1.129C7.34,-1.172 7.31,-1.216 7.282,-1.261L1.168,-1.261L1.168,-1.969L0,0.086Z" style="fill-rule:nonzero;"/>
                    </g>
                    <g transform="matrix(1,0,0,1,217.782,6056.8)">
                        <path d="M0,-14.251L0,-9.938L14.899,0L0,-14.251Z" style="fill-rule:nonzero;"/>
                    </g>
                    <g transform="matrix(1,0,0,1,212.532,6058.8)">
                        <path d="M0,-13.313L0,-8.782L20.149,0L0,-13.313Z" style="fill-rule:nonzero;"/>
                    </g>
                    <g transform="matrix(1,0,0,1,208.645,6056.54)">
                        <path d="M0,9.295C0.874,9.295 1.678,9.751 2.137,10.471L10.701,10.471L16.697,16.467L18.481,15.371L18.58,15.63L24.036,14.159L24.036,3.978L-1.773,-7.172L-1.782,10.029C-1.324,9.576 -0.694,9.295 0,9.295" style="fill-rule:nonzero;"/>
                    </g>
                    <g transform="matrix(1,0,0,1,216.896,6092.58)">
                        <path d="M0,-4.331L0,-3.377L-6.114,-3.377C-6.143,-3.332 -6.173,-3.288 -6.204,-3.245L1.307,0L1.307,-2.03L0,-4.331Z" style="fill-rule:nonzero;"/>
                    </g>
                    <g transform="matrix(1,0,0,1,208.645,6070.9)">
                        <path d="M0,14.409C0.874,14.409 1.678,14.865 2.137,15.585L8.155,15.585L8.155,12.054L11.904,9.173L12.313,9.315L12.461,4.704L14.267,3.595L9.572,-1.176L2.137,-1.176C1.678,-0.456 0.874,0 0,0C-0.695,0 -1.326,-0.281 -1.784,-0.736L-1.792,15.153C-1.333,14.694 -0.699,14.409 0,14.409" style="fill-rule:nonzero;"/>
                    </g>
                    <g transform="matrix(1,0,0,1,208.645,6089.74)">
                        <path d="M0,-2.467C0.314,-2.467 0.569,-2.211 0.569,-1.897C0.569,-1.583 0.314,-1.328 0,-1.328C-0.314,-1.328 -0.569,-1.583 -0.569,-1.897C-0.569,-2.211 -0.314,-2.467 0,-2.467M0,-0.114C0.77,-0.114 1.426,-0.606 1.675,-1.29L7.499,-1.29L7.499,-2.505L1.675,-2.505C1.426,-3.189 0.77,-3.681 0,-3.681C-0.983,-3.681 -1.783,-2.881 -1.783,-1.897C-1.783,-0.914 -0.983,-0.114 0,-0.114M0,-21.946C0.314,-21.946 0.569,-21.691 0.569,-21.377C0.569,-21.063 0.314,-20.808 0,-20.808C-0.314,-20.808 -0.569,-21.063 -0.569,-21.377C-0.569,-21.691 -0.314,-21.946 0,-21.946M0,-19.594C0.77,-19.594 1.426,-20.085 1.675,-20.77L9.887,-20.77L14.574,-16.008L15.648,-16.726L10.39,-21.984L1.675,-21.984C1.426,-22.669 0.77,-23.16 0,-23.16C-0.983,-23.16 -1.783,-22.36 -1.783,-21.377C-1.783,-20.394 -0.983,-19.594 0,-19.594M0,19.479C-0.314,19.479 -0.569,19.224 -0.569,18.91C-0.569,18.596 -0.314,18.34 0,18.34C0.314,18.34 0.569,18.596 0.569,18.91C0.569,19.224 0.314,19.479 0,19.479M9.527,18.303L1.675,18.303C1.426,17.618 0.77,17.126 0,17.126C-0.983,17.126 -1.783,17.926 -1.783,18.91C-1.783,19.893 -0.983,20.693 0,20.693C0.77,20.693 1.426,20.202 1.675,19.517L10.03,19.517L14.546,15.001L13.687,14.143L9.527,18.303ZM50.201,19.479C49.887,19.479 49.632,19.224 49.632,18.91C49.632,18.596 49.887,18.34 50.201,18.34C50.515,18.34 50.77,18.596 50.77,18.91C50.77,19.224 50.515,19.479 50.201,19.479M50.201,17.126C49.431,17.126 48.775,17.618 48.526,18.303L40.674,18.303L36.514,14.143L35.655,15.001L40.171,19.517L48.526,19.517C48.775,20.202 49.431,20.693 50.201,20.693C51.184,20.693 51.984,19.893 51.984,18.91C51.984,17.926 51.184,17.126 50.201,17.126M50.201,-1.328C49.887,-1.328 49.632,-1.583 49.632,-1.897C49.632,-2.211 49.887,-2.467 50.201,-2.467C50.515,-2.467 50.77,-2.211 50.77,-1.897C50.77,-1.583 50.515,-1.328 50.201,-1.328M50.201,-3.681C49.431,-3.681 48.775,-3.189 48.526,-2.505L42.702,-2.505L42.702,-1.29L48.526,-1.29C48.775,-0.606 49.431,-0.114 50.201,-0.114C51.184,-0.114 51.984,-0.914 51.984,-1.897C51.984,-2.881 51.184,-3.681 50.201,-3.681M50.201,-21.946C50.515,-21.946 50.77,-21.691 50.77,-21.377C50.77,-21.063 50.515,-20.808 50.201,-20.808C49.887,-20.808 49.632,-21.063 49.632,-21.377C49.632,-21.691 49.887,-21.946 50.201,-21.946M40.314,-20.77L48.526,-20.77C48.775,-20.085 49.431,-19.594 50.201,-19.594C51.184,-19.594 51.984,-20.394 51.984,-21.377C51.984,-22.36 51.184,-23.16 50.201,-23.16C49.431,-23.16 48.775,-22.669 48.526,-21.984L39.811,-21.984L34.553,-16.726L35.627,-16.008L40.314,-20.77ZM21.584,11.854L15.966,5.948L21.584,1.77L18.127,6.524L21.584,11.854ZM20.432,-10.619L18.102,-16.721L13.199,-13.709L13.068,-9.614L17.983,-8.026L18.847,-3.561L16.823,-7.162L12.041,-8.825L8.907,-6.417L8.907,-1.861L10.246,0.496L14.958,1.77L10.311,1.419L10.311,5.245L12.411,7.982L12.411,10.863L17.663,16.352L21.208,16.352L24.738,14.974L24.738,-18.458L19.11,-16.941L20.432,-10.619ZM28.757,11.854L32.214,6.524L28.757,1.77L34.375,5.948L28.757,11.854ZM37.93,7.982L40.03,5.245L40.03,1.419L35.383,1.77L40.095,0.496L41.434,-1.861L41.434,-6.417L38.3,-8.825L33.518,-7.162L31.494,-3.561L32.358,-8.026L37.273,-9.614L37.142,-13.709L32.239,-16.721L29.909,-10.619L31.231,-16.941L25.603,-18.458L25.603,14.974L29.133,16.352L32.678,16.352L37.93,10.863L37.93,7.982Z" style="fill-rule:nonzero;"/>
                    </g>
                    <g transform="matrix(-1,0,0,1,1033.13,3617.78)">
                        <rect x="515.469" y="2493.43" width="2.195" height="10.096"/>
                    </g>
                    <g transform="matrix(1,0,0,1,526.584,6109.97)">
                        <path d="M0,13.539L-2.195,13.539L-2.195,8.037L5.842,0L7.393,1.552L0,8.945L0,13.539Z" style="fill-rule:nonzero;"/>
                    </g>
                    <g transform="matrix(0,-1,-1,0,516.567,6106.07)">
                        <path d="M-3.67,-3.67C-5.697,-3.67 -7.34,-2.027 -7.34,0C-7.34,2.027 -5.697,3.67 -3.67,3.67C-1.643,3.67 0,2.027 0,0C0,-2.027 -1.643,-3.67 -3.67,-3.67" style="fill-rule:nonzero;"/>
                    </g>
                    <g transform="matrix(-1,0,0,1,1033.13,3709.69)">
                        <rect x="515.469" y="2449.68" width="2.195" height="5.707"/>
                    </g>
                    <g transform="matrix(0,-1,-1,0,533.674,6106.07)">
                        <path d="M-3.67,-3.67C-5.697,-3.67 -7.34,-2.027 -7.34,0C-7.34,2.027 -5.697,3.67 -3.67,3.67C-1.643,3.67 0,2.027 0,0C0,-2.027 -1.643,-3.67 -3.67,-3.67" style="fill-rule:nonzero;"/>
                    </g>
                    <g transform="matrix(1,0,0,1,508.745,6109.97)">
                        <path d="M0,13.539L-2.195,13.539L-2.195,8.945L-9.588,1.552L-8.036,0L0,8.037L0,13.539Z" style="fill-rule:nonzero;"/>
                    </g>
                    <g transform="matrix(0,1,1,0,499.46,6106.07)">
                        <path d="M3.67,-3.67C5.697,-3.67 7.34,-2.027 7.34,0C7.34,2.027 5.697,3.67 3.67,3.67C1.643,3.67 0,2.027 0,0C0,-2.027 1.643,-3.67 3.67,-3.67" style="fill-rule:nonzero;"/>
                    </g>
                    <g transform="matrix(1,0,0,1,513.403,6141.68)">
                        <path d="M0,-1.52C0.42,-3.804 2.611,-5.315 4.895,-4.895C7.179,-4.475 8.689,-2.283 8.27,0C7.85,2.284 5.658,3.795 3.375,3.375C1.091,2.955 -0.42,0.763 0,-1.52M5.669,6.459L6.888,6.199L8.179,8.786C9.49,8.233 10.645,7.426 11.596,6.438L9.645,4.305L10.324,3.26L11.002,2.215L13.745,3.13C14.26,1.859 14.528,0.476 14.501,-0.946L11.612,-1.074L11.353,-2.294L11.094,-3.513L13.681,-4.804C13.127,-6.115 12.321,-7.27 11.333,-8.221L9.2,-6.27L8.155,-6.949L7.109,-7.628L8.025,-10.37C6.754,-10.886 5.371,-11.153 3.948,-11.126L3.82,-8.237L1.382,-7.719L0.091,-10.306C-1.22,-9.753 -2.375,-8.946 -3.327,-7.958L-1.375,-5.825L-2.054,-4.78L-2.733,-3.734L-5.475,-4.65C-5.991,-3.379 -6.258,-1.996 -6.231,-0.573L-3.343,-0.445L-2.825,1.993L-5.411,3.284C-4.858,4.595 -4.051,5.75 -3.063,6.701L-0.93,4.75L1.16,6.108L0.244,8.85C1.516,9.366 2.899,9.633 4.321,9.606L4.449,6.718L5.669,6.459Z" style="fill:rgb(235,38,42);fill-rule:nonzero;"/>
                    </g>
                    <g transform="matrix(1,0,0,1,532.889,6158.5)">
                        <path d="M0,-23.715L-2.023,-22.456C-0.773,-18.873 -0.962,-14.799 -2.887,-11.196C-4.84,-7.54 -8.191,-5.106 -11.929,-4.183L-12.012,-6.69L-15.198,-3.286L-11.791,0L-11.851,-1.803C-7.298,-2.784 -3.187,-5.675 -0.826,-10.095C1.507,-14.462 1.652,-19.421 0,-23.715" style="fill-rule:nonzero;"/>
                    </g>
                    <g transform="matrix(1,0,0,1,524.226,6127)">
                        <path d="M0,1.275C1.212,1.922 2.287,2.726 3.22,3.643L1.339,4.814L5.879,5.872L7.022,1.278L5.253,2.379C4.077,1.139 2.689,0.062 1.101,-0.786C-6.032,-4.597 -14.746,-2.577 -19.555,3.598L-17.461,4.716C-13.29,-0.331 -5.994,-1.927 0,1.275" style="fill-rule:nonzero;"/>
                    </g>
                    <g transform="matrix(1,0,0,1,510.975,6137.1)">
                        <path d="M0,15.981C-5.952,12.802 -8.683,5.924 -6.884,-0.315L-5.07,0.654L-6.424,-3.807L-10.974,-2.499L-8.981,-1.435C-11.361,5.963 -8.193,14.253 -1.101,18.042C0.588,18.945 2.366,19.517 4.16,19.788L4.082,17.407C2.69,17.152 1.314,16.683 0,15.981" style="fill-rule:nonzero;"/>
                    </g>
                    <g transform="matrix(-1,0,0,1,1033.13,3724.08)">
                        <rect x="511.392" y="2440.16" width="10.351" height="10.351"/>
                    </g>
                    <g transform="matrix(1,0,0,1,258.56,5898.29)">
                        <path d="M0,-43.023C-11.881,-43.023 -21.512,-33.392 -21.512,-21.511C-21.512,-9.63 -11.881,0 0,0C11.881,0 21.512,-9.63 21.512,-21.511C21.512,-33.392 11.881,-43.023 0,-43.023M0,-39.86C4.901,-39.86 9.509,-37.951 12.974,-34.486C16.44,-31.02 18.348,-26.412 18.348,-21.511C18.348,-16.61 16.44,-12.002 12.974,-8.537C9.509,-5.071 4.901,-3.163 0,-3.163C-4.901,-3.163 -9.509,-5.071 -12.974,-8.537C-16.44,-12.002 -18.348,-16.61 -18.348,-21.511C-18.348,-26.412 -16.44,-31.02 -12.974,-34.486C-9.509,-37.951 -4.901,-39.86 0,-39.86" style="fill-rule:nonzero;"/>
                    </g>
                    <g transform="matrix(1,0,0,1,265,5851.36)">
                        <path d="M0,-2.531L-6.432,-8.797L-12.863,-2.531L-12.863,2.209L-8.139,-2.393L-8.139,6.266L-4.725,6.266L-4.725,-2.394L0,2.209L0,-2.531Z" style="fill-rule:nonzero;"/>
                    </g>
                    <g transform="matrix(1,0,0,1,243.351,5864.91)">
                        <path d="M0,-12.448L-8.979,-12.331L-9.096,-3.352L-5.744,0L-5.658,-6.595L0.465,-0.472L2.88,-2.887L-3.244,-9.01L3.352,-9.096L0,-12.448Z" style="fill-rule:nonzero;"/>
                    </g>
                    <g transform="matrix(1,0,0,1,230.611,5883.21)">
                        <path d="M0,-12.864L-6.266,-6.432L0,0L4.74,0L0.138,-4.725L8.797,-4.725L8.797,-8.139L0.137,-8.139L4.74,-12.864L0,-12.864Z" style="fill-rule:nonzero;"/>
                    </g>
                    <g transform="matrix(1,0,0,1,234.244,5897.74)">
                        <path d="M0,-5.744L0.117,3.235L9.096,3.352L12.448,0L5.853,-0.086L11.976,-6.209L9.561,-8.624L3.438,-2.501L3.352,-9.096L0,-5.744Z" style="fill-rule:nonzero;"/>
                    </g>
                    <g transform="matrix(1,0,0,1,252.121,5902.2)">
                        <path d="M0,2.531L6.432,8.797L12.864,2.531L12.864,-2.209L8.139,2.393L8.139,-6.266L4.725,-6.266L4.725,2.394L0,-2.209L0,2.531Z" style="fill-rule:nonzero;"/>
                    </g>
                    <g transform="matrix(1,0,0,1,273.77,5888.65)">
                        <path d="M0,12.448L8.979,12.331L9.096,3.352L5.744,0L5.658,6.595L-0.465,0.472L-2.88,2.887L3.244,9.01L-3.352,9.096L0,12.448Z" style="fill-rule:nonzero;"/>
                    </g>
                    <g transform="matrix(1,0,0,1,286.51,5870.36)">
                        <path d="M0,12.864L6.266,6.432L0,0L-4.74,0L-0.138,4.725L-8.797,4.725L-8.797,8.139L-0.137,8.139L-4.74,12.864L0,12.864Z" style="fill-rule:nonzero;"/>
                    </g>
                    <g transform="matrix(1,0,0,1,282.877,5855.83)">
                        <path d="M0,5.744L-0.117,-3.235L-9.096,-3.352L-12.448,0L-5.853,0.086L-11.976,6.209L-9.561,8.624L-3.438,2.5L-3.352,9.096L0,5.744Z" style="fill-rule:nonzero;"/>
                    </g>
                    <g transform="matrix(-1,0,0,1,503.072,3117.14)">
                        <rect x="250.69" y="2747.91" width="1.692" height="1.792"/>
                    </g>
                    <g transform="matrix(-1,0,0,1,251.262,5865.41)">
                        <path d="M-0.548,-3.405L0,-3.405L0.127,0L-0.675,0L-0.548,-3.405Z" style="fill-rule:nonzero;"/>
                    </g>
                    <g transform="matrix(-1,0,0,1,510.096,3117.14)">
                        <rect x="254.202" y="2747.91" width="1.692" height="1.792"/>
                    </g>
                    <g transform="matrix(-1,0,0,1,254.774,5865.41)">
                        <path d="M-0.548,-3.405L0,-3.405L0.127,0L-0.675,0L-0.548,-3.405Z" style="fill-rule:nonzero;"/>
                    </g>
                    <g transform="matrix(-1,0,0,1,517.12,3117.14)">
                        <rect x="257.714" y="2747.91" width="1.692" height="1.792"/>
                    </g>
                    <g transform="matrix(-1,0,0,1,258.287,5865.41)">
                        <path d="M-0.548,-3.405L0,-3.405L0.127,0L-0.675,0L-0.548,-3.405Z" style="fill-rule:nonzero;"/>
                    </g>
                    <g transform="matrix(-1,0,0,1,524.144,3117.14)">
                        <rect x="261.226" y="2747.91" width="1.692" height="1.792"/>
                    </g>
                    <g transform="matrix(-1,0,0,1,261.799,5865.41)">
                        <path d="M-0.548,-3.405L0,-3.405L0.127,0L-0.675,0L-0.548,-3.405Z" style="fill-rule:nonzero;"/>
                    </g>
                    <g transform="matrix(-1,0,0,1,531.17,3117.14)">
                        <rect x="264.739" y="2747.91" width="1.692" height="1.792"/>
                    </g>
                    <g transform="matrix(-1,0,0,1,265.31,5865.41)">
                        <path d="M-0.549,-3.405L-0.001,-3.405L0.126,0L-0.675,0L-0.549,-3.405Z" style="fill-rule:nonzero;"/>
                    </g>
                    <g transform="matrix(1,0,0,1,0,3152.86)">
                        <rect x="246.824" y="2730.1" width="1.792" height="1.692"/>
                    </g>
                    <g transform="matrix(0,1,1,0,245.754,5882.1)">
                        <path d="M1.428,-1.976L1.976,-1.976L2.104,1.428L1.301,1.428L1.428,-1.976Z" style="fill-rule:nonzero;"/>
                    </g>
                    <g transform="matrix(1,0,0,1,0,3145.84)">
                        <rect x="246.824" y="2733.61" width="1.792" height="1.692"/>
                    </g>
                    <g transform="matrix(0,1,1,0,245.754,5878.59)">
                        <path d="M1.428,-1.976L1.976,-1.976L2.104,1.428L1.301,1.428L1.428,-1.976Z" style="fill-rule:nonzero;"/>
                    </g>
                    <g transform="matrix(1,0,0,1,0,3138.82)">
                        <rect x="246.824" y="2737.12" width="1.792" height="1.692"/>
                    </g>
                    <g transform="matrix(0,1,1,0,245.755,5875.08)">
                        <path d="M1.428,-1.977L1.976,-1.977L2.103,1.428L1.302,1.428L1.428,-1.977Z" style="fill-rule:nonzero;"/>
                    </g>
                    <g transform="matrix(1,0,0,1,0,3131.79)">
                        <rect x="246.824" y="2740.63" width="1.792" height="1.692"/>
                    </g>
                    <g transform="matrix(0,1,1,0,245.755,5871.57)">
                        <path d="M1.428,-1.977L1.976,-1.977L2.103,1.428L1.302,1.428L1.428,-1.977Z" style="fill-rule:nonzero;"/>
                    </g>
                    <g transform="matrix(1,0,0,1,0,3124.77)">
                        <rect x="246.824" y="2744.15" width="1.792" height="1.692"/>
                    </g>
                    <g transform="matrix(0,1,1,0,245.755,5868.06)">
                        <path d="M1.428,-1.977L1.976,-1.977L2.103,1.428L1.302,1.428L1.428,-1.977Z" style="fill-rule:nonzero;"/>
                    </g>
                    <g transform="matrix(1,0,0,1,0,3160.5)">
                        <rect x="264.739" y="2726.23" width="1.692" height="1.792"/>
                    </g>
                    <g transform="matrix(1,0,0,1,265.311,5888.16)">
                        <path d="M0,3.405L0.548,3.405L0.675,0L-0.127,0L0,3.405Z" style="fill-rule:nonzero;"/>
                    </g>
                    <g transform="matrix(1,0,0,1,0,3160.5)">
                        <rect x="261.227" y="2726.23" width="1.692" height="1.792"/>
                    </g>
                    <g transform="matrix(1,0,0,1,261.798,5888.16)">
                        <path d="M0,3.405L0.548,3.405L0.675,0L-0.127,0L0,3.405Z" style="fill-rule:nonzero;"/>
                    </g>
                    <g transform="matrix(1,0,0,1,0,3160.5)">
                        <rect x="257.714" y="2726.23" width="1.692" height="1.792"/>
                    </g>
                    <g transform="matrix(1,0,0,1,258.286,5888.16)">
                        <path d="M0,3.405L0.548,3.405L0.675,0L-0.127,0L0,3.405Z" style="fill-rule:nonzero;"/>
                    </g>
                    <g transform="matrix(1,0,0,1,0,3160.5)">
                        <rect x="254.202" y="2726.23" width="1.692" height="1.792"/>
                    </g>
                    <g transform="matrix(1,0,0,1,254.774,5888.16)">
                        <path d="M0,3.405L0.548,3.405L0.675,0L-0.127,0L0,3.405Z" style="fill-rule:nonzero;"/>
                    </g>
                    <g transform="matrix(1,0,0,1,0,3160.5)">
                        <rect x="250.69" y="2726.23" width="1.692" height="1.792"/>
                    </g>
                    <g transform="matrix(1,0,0,1,251.262,5888.16)">
                        <path d="M0,3.405L0.548,3.405L0.675,0L-0.127,0L0,3.405Z" style="fill-rule:nonzero;"/>
                    </g>
                    <g transform="matrix(-1,0,0,1,538.802,3124.77)">
                        <rect x="268.505" y="2744.14" width="1.792" height="1.692"/>
                    </g>
                    <g transform="matrix(0,-1,-1,0,271.914,5868.06)">
                        <path d="M-1.976,-1.428L-1.428,-1.428L-1.301,1.976L-2.104,1.976L-1.976,-1.428Z" style="fill-rule:nonzero;"/>
                    </g>
                    <g transform="matrix(-1,0,0,1,538.802,3131.79)">
                        <rect x="268.505" y="2740.63" width="1.792" height="1.692"/>
                    </g>
                    <g transform="matrix(0,-1,-1,0,271.914,5871.57)">
                        <path d="M-1.976,-1.428L-1.428,-1.428L-1.301,1.976L-2.104,1.976L-1.976,-1.428Z" style="fill-rule:nonzero;"/>
                    </g>
                    <g transform="matrix(-1,0,0,1,538.802,3138.82)">
                        <rect x="268.505" y="2737.12" width="1.792" height="1.692"/>
                    </g>
                    <g transform="matrix(0,-1,-1,0,271.914,5875.08)">
                        <path d="M-1.976,-1.428L-1.428,-1.428L-1.301,1.976L-2.104,1.976L-1.976,-1.428Z" style="fill-rule:nonzero;"/>
                    </g>
                    <g transform="matrix(-1,0,0,1,538.802,3145.84)">
                        <rect x="268.505" y="2733.61" width="1.792" height="1.692"/>
                    </g>
                    <g transform="matrix(0,-1,-1,0,271.915,5878.59)">
                        <path d="M-1.977,-1.428L-1.429,-1.428L-1.302,1.977L-2.103,1.977L-1.977,-1.428Z" style="fill-rule:nonzero;"/>
                    </g>
                    <g transform="matrix(-1,0,0,1,538.802,3152.86)">
                        <rect x="268.505" y="2730.1" width="1.792" height="1.692"/>
                    </g>
                    <g transform="matrix(0,-1,-1,0,271.915,5882.1)">
                        <path d="M-1.977,-1.428L-1.429,-1.428L-1.302,1.977L-2.103,1.977L-1.977,-1.428Z" style="fill-rule:nonzero;"/>
                    </g>
                    <g transform="matrix(1,0,0,1,257.012,5877.71)">
                        <path d="M0,-5.167L-0.033,-5.167C-0.196,-4.515 -0.375,-3.847 -0.587,-3.178L-1.663,0L1.646,0L0.57,-3.162C0.326,-3.879 0.163,-4.532 0,-5.167" style="fill-rule:nonzero;"/>
                    </g>
                    <g transform="matrix(1,0,0,1,0,3138.82)">
                        <path d="M264.673,2743.46L263.255,2743.46L263.255,2732.47L264.673,2732.47L264.673,2743.46ZM260.125,2743.46L258.952,2740L255.056,2740L253.915,2743.46L252.448,2743.46L256.181,2732.47L257.892,2732.47L261.641,2743.46L260.125,2743.46ZM249.908,2746.62L267.213,2746.62L267.213,2729.31L249.908,2729.31L249.908,2746.62Z" style="fill-rule:nonzero;"/>
                    </g>
                    <g transform="matrix(1,0,0,1,608.984,5633.92)">
                        <path d="M0,12.569C-3.471,11.931 -5.767,8.6 -5.129,5.129C-4.491,1.658 -1.16,-0.639 2.311,-0C5.782,0.638 8.078,3.969 7.44,7.44C6.802,10.911 3.471,13.207 0,12.569M12.521,5.806L11.733,2.1L15.665,0.137C14.824,-1.855 13.598,-3.61 12.096,-5.056L8.854,-2.09L5.676,-4.154L7.068,-8.322C5.136,-9.106 3.034,-9.512 0.872,-9.471L0.677,-5.081L-1.176,-4.687L-3.029,-4.294L-4.992,-8.225C-6.984,-7.384 -8.739,-6.158 -10.185,-4.656L-7.219,-1.414L-8.251,0.174L-9.283,1.763L-13.451,0.371C-14.235,2.304 -14.641,4.406 -14.6,6.568L-10.21,6.762L-9.816,8.615L-9.422,10.469L-13.354,12.431C-12.513,14.423 -11.287,16.179 -9.785,17.625L-6.543,14.659L-4.954,15.691L-3.366,16.723L-4.758,20.89C-2.825,21.675 -0.723,22.081 1.439,22.04L1.633,17.65L3.487,17.256L5.34,16.862L7.302,20.794C9.294,19.953 11.05,18.727 12.496,17.225L9.53,13.983L11.594,10.805L15.762,12.197C16.546,10.265 16.952,8.163 16.911,6.001L12.521,5.806Z" style="fill-rule:nonzero;"/>
                    </g>
                    <g transform="matrix(1,0,0,1,610.14,5582.49)">
                        <path d="M0,30.357C2.665,30.357 5.27,30.738 7.756,31.467L9.246,23.766L20.966,19.979L20.653,10.216L8.961,3.034L3.407,17.583L6.558,2.509L-6.862,-1.11L-6.862,31.221C-4.648,30.653 -2.347,30.357 0,30.357" style="fill-rule:nonzero;"/>
                    </g>
                    <g transform="matrix(1,0,0,1,633.555,5627.51)">
                        <path d="M0,-23.158L-11.402,-19.192L-14.737,-13.26C-10.757,-11.937 -7.11,-9.706 -4.062,-6.659C-2.051,-4.647 -0.42,-2.398 0.833,0L4.279,-0.932L7.472,-6.552L7.472,-17.416L0,-23.158Z" style="fill-rule:nonzero;"/>
                    </g>
                    <g transform="matrix(0.609261,-0.79297,-0.79297,-0.609261,640.768,5635.58)">
                        <path d="M-4.155,1.031L-3.725,1.031L3.509,6.589L1.778,8.521C0.243,5.671 -1.776,3.144 -4.155,1.031" style="fill-rule:nonzero;"/>
                    </g>
                    <g transform="matrix(1,0,0,1,590.785,5586.21)">
                        <path d="M0,73.355C-4.673,68.682 -7.437,62.606 -7.921,56.068L-10.486,53.371L-7.885,51.437C-7.3,45.088 -4.554,39.201 0,34.647C2.986,31.661 6.546,29.457 10.431,28.125L10.431,-4.825L-2.989,-1.207L0.163,13.867L-5.392,-0.681L-17.084,6.501L-17.397,16.264L-5.677,20.051L-3.616,30.699L-8.444,22.112L-19.846,18.146L-27.318,23.888L-27.318,34.752L-24.125,40.372L-12.891,43.409L-23.971,42.573L-23.971,51.695L-18.962,58.222L-18.962,65.092L-6.44,78.18L2.012,78.18L4.713,77.126C3.028,76.056 1.445,74.8 0,73.355" style="fill-rule:nonzero;"/>
                    </g>
                    <g transform="matrix(1,0,0,1,596.668,5653.68)">
                        <path d="M0,-26.945C-7.429,-19.516 -7.429,-7.43 0,-0.001C7.428,7.427 19.515,7.428 26.943,-0.001C34.372,-7.429 34.372,-19.516 26.943,-26.946C19.515,-34.374 7.428,-34.373 0,-26.945M31.136,4.191C21.395,13.931 5.547,13.93 -4.192,4.191C-13.932,-5.549 -13.932,-21.397 -4.192,-31.136C5.549,-40.876 21.395,-40.876 31.136,-31.138C40.874,-21.397 40.875,-5.549 31.136,4.191" style="fill-rule:nonzero;"/>
                    </g>
                    <g transform="matrix(1,0,0,1,645.779,5665.06)">
                        <path d="M0,2.351L-17.539,-11.816L-20.072,-9.284L-22.603,-6.753L-8.437,10.788C-8.208,11.139 -7.941,11.475 -7.631,11.783C-5.249,14.167 -1.386,14.167 0.997,11.785C3.379,9.402 3.379,5.539 0.996,3.156C0.687,2.846 0.352,2.58 0,2.351" style="fill-rule:nonzero;"/>
                    </g>
                    <g transform="matrix(1,0,0,1,341.606,5699.93)">
                        <path d="M0,-4.944L-5.525,-4.944L-5.525,-10.469L-10.469,-10.469L-10.469,-4.944L-15.994,-4.944L-15.994,-0L-10.469,-0L-10.469,5.525L-5.525,5.525L-5.525,-0L0,-0L0,-4.944Z" style="fill:rgb(235,38,42);fill-rule:nonzero;"/>
                    </g>
                    <g transform="matrix(1,0,0,1,326.356,5687.42)">
                        <path d="M0,-0.007C-0.003,-0.005 -0.006,-0.003 -0.009,0L0,0L0,-0.007Z" style="fill-rule:nonzero;"/>
                    </g>
                    <g transform="matrix(1,0,0,1,333.609,5678.48)">
                        <path d="M0,-1.673C3.095,-1.673 6.085,-0.999 8.801,0.279L8.801,-1.952L-2.093,-1.952L-2.093,-1.569C-1.402,-1.638 -0.704,-1.673 0,-1.673" style="fill-rule:nonzero;"/>
                    </g>
                    <g transform="matrix(-1,0,0,1,673.926,2720.45)">
                        <rect x="331.516" y="2941.7" width="10.894" height="10.894"/>
                    </g>
                    <g transform="matrix(1,0,0,1,0,2720.45)">
                        <rect x="347.57" y="2941.7" width="10.894" height="10.894"/>
                    </g>
                    <g transform="matrix(1,0,0,1,0,2720.45)">
                        <rect x="363.624" y="2941.7" width="10.894" height="10.894"/>
                    </g>
                    <g transform="matrix(1,0,0,1,0,2806.7)">
                        <rect x="363.624" y="2898.58" width="10.894" height="10.894"/>
                    </g>
                    <g transform="matrix(1,0,0,1,0,2777.95)">
                        <rect x="363.624" y="2912.95" width="10.894" height="10.894"/>
                    </g>
                    <g transform="matrix(1,0,0,1,0,2749.2)">
                        <rect x="363.624" y="2927.33" width="10.894" height="10.894"/>
                    </g>
                    <g transform="matrix(1,0,0,1,347.57,5681.72)">
                        <path d="M0,0.508C0.221,0.71 0.438,0.917 0.651,1.13C2.041,2.52 3.191,4.061 4.102,5.701L10.894,5.701L10.894,-5.193L0,-5.193L0,0.508Z" style="fill-rule:nonzero;"/>
                    </g>
                    <g transform="matrix(-1,0,0,1,641.818,2720.45)">
                        <rect x="315.462" y="2941.7" width="10.894" height="10.894"/>
                    </g>
                    <g transform="matrix(1,0,0,1,342.399,5716.17)">
                        <path d="M0,0.005L0.011,0.005L0.011,0C0.007,0.002 0.004,0.003 0,0.005" style="fill-rule:nonzero;"/>
                    </g>
                    <g transform="matrix(1,0,0,1,318.996,5681.1)">
                        <path d="M0,1.752C2.122,-0.37 4.627,-1.971 7.36,-2.991L7.36,-4.571L-3.534,-4.571L-3.534,6.323L-3.444,6.323C-2.52,4.658 -1.365,3.117 0,1.752" style="fill-rule:nonzero;"/>
                    </g>
                    <g transform="matrix(1,0,0,1,353.807,5690.9)">
                        <path d="M0,10.894L4.657,10.894L4.657,0L-0.606,0C0.565,3.517 0.767,7.289 0,10.894" style="fill-rule:nonzero;"/>
                    </g>
                    <g transform="matrix(1,0,0,1,348.222,5709.37)">
                        <path d="M0,2.7C-0.213,2.913 -0.431,3.12 -0.652,3.323L-0.652,6.797L10.242,6.797L10.242,-4.097L4.516,-4.097C3.509,-1.622 2.004,0.695 0,2.7" style="fill-rule:nonzero;"/>
                    </g>
                    <g transform="matrix(1,0,0,1,343.724,5696.07)">
                        <path d="M0,11.508C-5.578,17.085 -14.652,17.085 -20.228,11.508C-25.806,5.932 -25.805,-3.143 -20.228,-8.719C-14.651,-14.296 -5.578,-14.296 -0.001,-8.719C5.576,-3.143 5.577,5.932 0,11.508M3.146,-11.866C-4.166,-19.179 -16.063,-19.179 -23.376,-11.866C-29.99,-5.252 -30.621,5.115 -25.268,12.445L-36.871,21.817C-37.135,21.989 -37.387,22.189 -37.618,22.422C-39.408,24.21 -39.408,27.11 -37.62,28.899C-35.83,30.687 -32.93,30.687 -31.141,28.898C-30.909,28.666 -30.709,28.415 -30.537,28.151L-21.166,16.548C-13.835,21.9 -3.468,21.269 3.147,14.655C10.458,7.343 10.458,-4.554 3.146,-11.866" style="fill-rule:nonzero;"/>
                    </g>
                    <g transform="matrix(1,0,0,1,733.743,6065.18)">
                        <path d="M0,21.993L3.481,17.452L0,13.402L5.657,16.961L0,21.993ZM6.672,13.402L11.416,12.316L12.765,10.309L12.765,6.427L9.609,4.376L4.795,5.793L2.756,8.861L3.626,5.056L8.575,3.703L8.443,0.215L3.506,-2.351L1.16,2.847L2.491,-2.539L-3.175,-3.832L-3.175,24.651L0.379,25.825L3.948,25.825L9.236,21.149L9.236,18.694L11.351,16.362L11.351,13.103L6.672,13.402Z" style="fill-rule:nonzero;"/>
                    </g>
                    <g transform="matrix(1,0,0,1,720.865,6070.21)">
                        <path d="M0,11.929L5.657,8.37L2.176,12.42L5.657,16.961L0,11.929ZM-5.694,8.071L-5.694,11.33L-3.579,13.662L-3.579,16.117L1.709,20.793L5.278,20.793L8.833,19.619L8.833,-8.864L3.166,-7.571L4.497,-2.185L2.151,-7.383L-2.786,-4.817L-2.918,-1.329L2.031,0.024L2.901,3.829L0.862,0.761L-3.952,-0.656L-7.107,1.395L-7.107,5.277L-5.759,7.284L-1.015,8.37L-5.694,8.071Z" style="fill-rule:nonzero;"/>
                    </g>
                    <g transform="matrix(-1,0,0,1,1386.59,3542.4)">
                        <rect x="685.684" y="2534.52" width="15.225" height="3.309"/>
                    </g>
                    <g transform="matrix(1,0,0,1,704.219,6055.63)">
                        <path d="M0,7.84L0,11.149L-8.298,11.149L-20.417,-0.97L-18.077,-3.309L-6.927,7.84L0,7.84Z" style="fill-rule:nonzero;"/>
                    </g>
                    <g transform="matrix(-1,0,0,1,683.459,6084.11)">
                        <path d="M0,-11.068C-3.056,-11.068 -5.534,-8.59 -5.534,-5.534C-5.534,-2.477 -3.056,0 0,0C3.056,0 5.534,-2.477 5.534,-5.534C5.534,-8.59 3.056,-11.068 0,-11.068" style="fill-rule:nonzero;"/>
                    </g>
                    <g transform="matrix(-1,0,0,1,683.459,6058.31)">
                        <path d="M0,-11.068C-3.056,-11.068 -5.534,-8.59 -5.534,-5.534C-5.534,-2.478 -3.056,0 0,0C3.056,0 5.534,-2.478 5.534,-5.534C5.534,-8.59 3.056,-11.068 0,-11.068" style="fill-rule:nonzero;"/>
                    </g>
                    <g transform="matrix(1,0,0,1,704.219,6104.83)">
                        <path d="M0,-14.459L0,-11.15L-6.927,-11.15L-18.077,0L-20.417,-2.34L-8.298,-14.459L0,-14.459Z" style="fill-rule:nonzero;"/>
                    </g>
                    <g transform="matrix(1,0,0,1,683.459,6098.84)">
                        <path d="M0,11.068C3.056,11.068 5.534,8.59 5.534,5.534C5.534,2.478 3.056,0 0,0C-3.056,0 -5.534,2.478 -5.534,5.534C-5.534,8.59 -3.056,11.068 0,11.068" style="fill-rule:nonzero;"/>
                    </g>
                    <g transform="matrix(1,0,0,1,0,3542.4)">
                        <rect x="758.485" y="2534.52" width="15.225" height="3.309"/>
                    </g>
                    <g transform="matrix(1,0,0,1,755.176,6055.63)">
                        <path d="M0,7.84L0,11.149L8.298,11.149L20.417,-0.97L18.077,-3.309L6.927,7.84L0,7.84Z" style="fill-rule:nonzero;"/>
                    </g>
                    <g transform="matrix(-1,0,0,1,775.935,6084.11)">
                        <path d="M0,-11.068C3.056,-11.068 5.534,-8.59 5.534,-5.534C5.534,-2.477 3.056,0 0,0C-3.056,0 -5.534,-2.477 -5.534,-5.534C-5.534,-8.59 -3.056,-11.068 0,-11.068" style="fill-rule:nonzero;"/>
                    </g>
                    <g transform="matrix(-1,0,0,1,775.935,6058.31)">
                        <path d="M0,-11.068C3.056,-11.068 5.534,-8.59 5.534,-5.534C5.534,-2.478 3.056,0 0,0C-3.056,0 -5.534,-2.478 -5.534,-5.534C-5.534,-8.59 -3.056,-11.068 0,-11.068" style="fill-rule:nonzero;"/>
                    </g>
                    <g transform="matrix(1,0,0,1,755.176,6104.83)">
                        <path d="M0,-14.459L0,-11.15L6.927,-11.15L18.077,0L20.417,-2.34L8.298,-14.459L0,-14.459Z" style="fill-rule:nonzero;"/>
                    </g>
                    <g transform="matrix(1,0,0,1,775.935,6098.84)">
                        <path d="M0,11.068C-3.056,11.068 -5.534,8.59 -5.534,5.534C-5.534,2.478 -3.056,0 0,0C3.056,0 5.534,2.478 5.534,5.534C5.534,8.59 3.056,11.068 0,11.068" style="fill-rule:nonzero;"/>
                    </g>
                    <g transform="matrix(1,0,0,1,749.841,6100.08)">
                        <path d="M0,-7.27L-3.227,-8.849C-6.807,-4.385 -12.167,-1.368 -18.313,-0.946C-24.549,-0.518 -30.34,-2.855 -34.511,-6.896L-31.373,-9.007L-38.273,-10.357L-39.748,-3.373L-37.49,-4.892C-32.595,0.143 -25.61,3.087 -18.072,2.57C-10.623,2.059 -4.168,-1.723 0,-7.27" style="fill-rule:nonzero;"/>
                    </g>
                    <g transform="matrix(1,0,0,1,751.23,6064.58)">
                        <path d="M0,11.947C0.142,14.014 -0.025,16.031 -0.452,17.958L-3.453,16.489L-1.173,23.14L5.613,20.926L2.791,19.545C3.435,17.05 3.701,14.414 3.516,11.706C2.681,-0.461 -6.871,-9.985 -18.612,-11.193L-18.367,-7.622C-8.578,-6.327 -0.701,1.724 0,11.947" style="fill-rule:nonzero;"/>
                    </g>
                    <g transform="matrix(1,0,0,1,708.924,6058.98)">
                        <path d="M0,20.447C-0.696,10.295 5.91,1.302 15.325,-1.388L15.537,1.706L20.157,-3.595L14.846,-8.364L15.08,-4.965C3.718,-2.09 -4.345,8.592 -3.516,20.688C-3.318,23.569 -2.627,26.3 -1.539,28.811L1.442,26.806C0.655,24.822 0.154,22.687 0,20.447" style="fill-rule:nonzero;"/>
                    </g>
                    <g transform="matrix(-1,0,0,1,1470.57,3057.16)">
                        <rect x="713.842" y="2770.34" width="42.887" height="16.914" style="fill:rgb(235,38,42);"/>
                    </g>
                    <g transform="matrix(-1,0,0,1,1470.57,3194.88)">
                        <rect x="713.842" y="2701.48" width="42.887" height="16.913"/>
                    </g>
                    <g transform="matrix(-1,0,0,1,1470.57,3126.02)">
                        <rect x="713.842" y="2735.91" width="42.887" height="16.913"/>
                    </g>
                    <g transform="matrix(-1,0,0,1,1592.59,3126.02)">
                        <rect x="774.851" y="2735.91" width="42.887" height="16.913"/>
                    </g>
                    <g transform="matrix(-1,0,0,1,1470.57,3091.59)">
                        <rect x="733.775" y="2756.45" width="3.02" height="10.269"/>
                    </g>
                    <g transform="matrix(-1,0,0,1,1411,3126.02)">
                        <rect x="701.952" y="2742.86" width="7.098" height="3.02"/>
                    </g>
                    <g transform="matrix(1,0,0,1,694.753,5868.88)">
                        <path d="M0,5.285L-3.02,5.285L-3.02,0L2.265,0L2.265,3.02L0,3.02L0,5.285Z" style="fill-rule:nonzero;"/>
                    </g>
                    <g transform="matrix(1,0,0,1,0,3160.45)">
                        <path d="M694.753,2725.03L691.733,2725.03L691.733,2717.95L694.753,2717.95L694.753,2725.03ZM694.753,2736.35L691.733,2736.35L691.733,2729.27L694.753,2729.27L694.753,2736.35Z" style="fill-rule:nonzero;"/>
                    </g>
                    <g transform="matrix(1,0,0,1,697.018,5901.04)">
                        <path d="M0,5.285L-5.285,5.285L-5.285,0L-2.265,0L-2.265,2.265L0,2.265L0,5.285Z" style="fill-rule:nonzero;"/>
                    </g>
                    <g transform="matrix(-1,0,0,1,1411,3194.88)">
                        <rect x="701.952" y="2708.42" width="7.098" height="3.02"/>
                    </g>
                    <g transform="matrix(1,0,0,1,0,3175.25)">
                        <path d="M797.804,2715.37L794.784,2715.37L794.784,2708.42L797.804,2708.42L797.804,2715.37ZM797.804,2727.45L794.784,2727.45L794.784,2719.9L797.804,2719.9L797.804,2727.45ZM769.716,2731.08L762.165,2731.08L762.165,2728.06L769.716,2728.06L769.716,2731.08ZM781.797,2731.08L774.246,2731.08L774.246,2728.06L781.797,2728.06L781.797,2731.08ZM793.878,2731.08L786.327,2731.08L786.327,2728.06L793.878,2728.06L793.878,2731.08Z" style="fill-rule:nonzero;"/>
                    </g>
                    <g transform="matrix(1,0,0,1,797.804,5834.44)">
                        <path d="M0,20.991L-3.02,20.991L-3.02,3.021L-35.639,3.021L-35.639,0L0,0L0,20.991Z" style="fill-rule:nonzero;"/>
                    </g>
                    <g transform="matrix(1,0,0,1,801.174,5859.08)">
                        <path d="M0,-4.88L-4.88,0L-9.76,-4.88L0,-4.88Z" style="fill-rule:nonzero;"/>
                    </g>
                    <g transform="matrix(0,1,1,0,745.018,5679.8)">
                        <rect x="-62.521" y="-62.521" width="62.521" height="62.52" style="fill:rgb(229,229,229);"/>
                    </g>
                    <g transform="matrix(0,1,1,0,227.422,5762.05)">
                        <rect x="-41.139" y="-41.139" width="41.139" height="41.139" style="fill:rgb(229,229,229);"/>
                    </g>
                </g>
            </g>
        </g>
    </g>
</svg>
