<?xml version="1.0" encoding="UTF-8" standalone="no"?>
<!DOCTYPE svg PUBLIC "-//W3C//DTD SVG 1.1//EN" "http://www.w3.org/Graphics/SVG/1.1/DTD/svg11.dtd">
<svg width="100%" height="100%" viewBox="0 0 1813 1680" version="1.1" xmlns="http://www.w3.org/2000/svg" xmlns:xlink="http://www.w3.org/1999/xlink" xml:space="preserve" xmlns:serif="http://www.serif.com/" style="fill-rule:evenodd;clip-rule:evenodd;stroke-miterlimit:10;">
    <g transform="matrix(1,0,0,1,-16069.4,-14958.3)">
        <g transform="matrix(0.754791,0,0,0.754791,3950.64,3678.18)">
            <g transform="matrix(-4.16667,0,0,4.16667,18897.7,14156)">
                <rect x="119.172" y="202.605" width="549.556" height="507.512" style="fill:rgb(7,7,7);stroke:white;stroke-width:2.65px;"/>
            </g>
            <g transform="matrix(4.16667,0,0,4.16667,15614.8,6204.38)">
                <g>
                    <text x="185.528px" y="2217.3px" style="font-family:'KareliaWeb-Bold', 'KareliaWeb';font-weight:700;font-size:52px;fill:rgb(235,38,42);">T<tspan x="211.788px 241.792px " y="2217.3px 2217.3px ">ec</tspan>hCos</text>
                    <text x="406.353px" y="2217.3px" style="font-family:'KareliaWeb-Regular', 'KareliaWeb';font-size:41px;fill:white;">r<tspan x="420.867px 444.195px " y="2217.3px 2217.3px ">eq</tspan>uiring</text>
                </g>
                <text x="185.526px" y="2266.5px" style="font-family:'KareliaWeb-Regular', 'KareliaWeb';font-size:41px;fill:white;">f<tspan x="200.983px 223.041px 243.869px " y="2266.5px 2266.5px 2266.5px ">ast</tspan> pr<tspan x="309.469px 333.29px " y="2266.5px 2266.5px ">od</tspan>uc<tspan x="403.277px " y="2266.5px ">t</tspan></text>
                <text x="185.526px" y="2315.7px" style="font-family:'KareliaWeb-Regular', 'KareliaWeb';font-size:41px;fill:white;">developmen<tspan x="419.141px " y="2315.7px ">t</tspan> and</text>
                <text x="185.526px" y="2364.9px" style="font-family:'KareliaWeb-Regular', 'KareliaWeb';font-size:41px;fill:white;">le<tspan x="218.613px " y="2364.9px ">g</tspan>acy sys<tspan x="383.474px 399.956px " y="2364.9px 2364.9px ">te</tspan>m</text>
                <text x="185.526px" y="2414.1px" style="font-family:'KareliaWeb-Regular', 'KareliaWeb';font-size:41px;fill:white;">overhauls</text>
            </g>
        </g>
    </g>
</svg>
