<?xml version="1.0" encoding="UTF-8" standalone="no"?>
<!DOCTYPE svg PUBLIC "-//W3C//DTD SVG 1.1//EN" "http://www.w3.org/Graphics/SVG/1.1/DTD/svg11.dtd">
<svg width="100%" height="100%" viewBox="0 0 972 972" version="1.1" xmlns="http://www.w3.org/2000/svg" xmlns:xlink="http://www.w3.org/1999/xlink" xml:space="preserve" xmlns:serif="http://www.serif.com/" style="fill-rule:evenodd;clip-rule:evenodd;stroke-miterlimit:10;">
    <g transform="matrix(1,0,0,1,-8603.05,-30997.2)">
        <g id="Page-1" serif:id="Page 1" transform="matrix(8.33333,0,0,8.33333,0,0)">
            <rect x="0" y="0" width="1920" height="8614.75" style="fill:none;"/>
            <clipPath id="_clip1">
                <rect x="0" y="0" width="1920" height="8614.75"/>
            </clipPath>
            <g clip-path="url(#_clip1)">
                <g id="Layer-1" serif:id="Layer 1">
                    <g transform="matrix(1,0,0,-1,0,-2150.63)">
                        <rect x="0" y="-8614.75" width="1920" height="6464.11" style="fill-rule:nonzero;"/>
                    </g>
                    <g transform="matrix(-1,0,0,1,1910.3,-1051.71)">
                        <rect x="-6.529" y="4296.77" width="1923.35" height="1072.92" style="fill:rgb(7,7,7);"/>
                    </g>
                    <g transform="matrix(-1,0,0,1,2345.46,-890.612)">
                        <rect x="984.004" y="4439.57" width="377.448" height="626.22" style="fill:rgb(7,7,7);stroke:white;stroke-width:2px;"/>
                    </g>
                    <g transform="matrix(1,0,0,1,1129.86,3751.07)">
                        <path d="M0,53.795C-0.501,53.256 -1.344,53.226 -1.883,53.728L-12.224,63.333C-12.763,63.834 -12.793,64.677 -12.292,65.215L-1.885,76.42L-6.031,80.271C-6.911,81.048 -6.497,82.478 -5.329,82.617L16.327,85.193L16.327,85.191C17.142,85.286 17.849,84.629 17.813,83.811L16.842,62.071C16.81,60.869 15.424,60.342 14.602,61.107L10.409,65.002L0,53.795ZM9.364,67.792L-1.045,56.586L-9.434,64.378L0.974,75.582C1.475,76.121 1.444,76.963 0.906,77.465L-2.155,80.308L15.083,82.358L14.308,65.016L11.247,67.86C10.708,68.361 9.865,68.331 9.364,67.792ZM-66.089,66.088L-77.295,76.497L-73.4,80.69C-72.635,81.512 -73.162,82.899 -74.365,82.93L-96.104,83.901C-96.923,83.937 -97.579,83.23 -97.484,82.415L-97.486,82.415L-94.91,60.759C-94.771,59.591 -93.341,59.177 -92.564,60.057L-88.713,64.203L-77.509,53.796C-76.97,53.295 -76.127,53.325 -75.626,53.864L-66.021,64.205C-65.519,64.744 -65.55,65.587 -66.088,66.088L-66.089,66.088ZM-80.085,75.452L-68.879,65.043L-76.671,56.654L-87.875,67.062C-88.414,67.563 -89.257,67.532 -89.758,66.994L-92.601,63.933L-94.652,81.171L-77.31,80.396L-80.153,77.335C-80.655,76.796 -80.624,75.953 -80.086,75.452L-80.085,75.452ZM-78.381,-0.001L-88.79,-11.207L-92.983,-7.312C-93.805,-6.548 -95.192,-7.075 -95.223,-8.277L-96.195,-30.016C-96.231,-30.835 -95.524,-31.491 -94.709,-31.396L-94.709,-31.398L-73.053,-28.822C-71.884,-28.684 -71.471,-27.254 -72.351,-26.476L-76.497,-22.625L-66.089,-11.421C-65.588,-10.882 -65.618,-10.039 -66.157,-9.538L-76.498,0.067C-77.037,0.568 -77.88,0.538 -78.381,-0L-78.381,-0.001ZM-87.745,-13.997L-77.336,-2.791L-68.948,-10.583L-79.355,-21.788C-79.856,-22.326 -79.826,-23.169 -79.287,-23.67L-76.226,-26.513L-93.464,-28.564L-92.689,-11.222L-89.628,-14.065C-89.089,-14.566 -88.246,-14.536 -87.745,-13.997ZM-12.293,-12.293C-12.831,-11.792 -12.862,-10.949 -12.36,-10.41L-2.755,-0.069C-2.254,0.47 -1.411,0.5 -0.872,-0.001L10.332,-10.409L14.183,-6.263C14.96,-5.383 16.39,-5.796 16.529,-6.965L19.105,-28.62L19.103,-28.62C19.198,-29.435 18.542,-30.143 17.723,-30.106L-4.016,-29.135C-5.219,-29.103 -5.746,-27.717 -4.981,-26.895L-1.086,-22.702L-12.292,-12.293L-12.293,-12.293ZM1.704,-21.657L-9.502,-11.248L-1.71,-2.86L9.494,-13.267C10.033,-13.768 10.876,-13.738 11.377,-13.199L14.22,-10.139L16.271,-27.376L-1.072,-26.601L1.772,-23.54C2.273,-23.001 2.243,-22.158 1.704,-21.657M-39.191,5.924C-50.773,5.924 -60.164,15.315 -60.164,26.897C-60.164,38.48 -50.773,47.87 -39.191,47.87C-27.608,47.87 -18.217,38.48 -18.217,26.897C-18.217,15.315 -27.608,5.924 -39.191,5.924M-26.563,14.27C-33.537,7.296 -44.844,7.296 -51.818,14.27C-58.792,21.243 -58.792,32.551 -51.818,39.524C-44.844,46.498 -33.537,46.498 -26.563,39.524C-19.589,32.551 -19.59,21.244 -26.563,14.27M-46.304,28.378L-41.282,32.326C-40.588,32.872 -39.634,32.722 -39.088,32.051L-31.865,23.708C-31.304,23.06 -31.375,22.079 -32.023,21.517C-32.672,20.956 -33.653,21.027 -34.214,21.676L-40.524,28.964L-44.381,25.931C-45.056,25.4 -46.034,25.518 -46.565,26.193C-47.096,26.869 -46.979,27.847 -46.304,28.378M-48.673,-5.186C-47.49,-5.541 -47.169,-7.059 -48.107,-7.865C-48.515,-8.208 -49.05,-8.323 -49.563,-8.172L-52.641,-7.111C-53.861,-6.616 -53.964,-4.937 -52.811,-4.298C-52.397,-4.076 -51.922,-4.043 -51.484,-4.218C-50.564,-4.583 -49.622,-4.906 -48.673,-5.186ZM-67.071,45.378C-67.62,44.547 -68.129,43.704 -68.605,42.829C-68.954,42.195 -69.684,41.886 -70.382,42.074C-71.355,42.346 -71.819,43.439 -71.337,44.326C-70.82,45.275 -70.26,46.215 -69.658,47.114C-68.752,48.462 -66.733,47.699 -66.807,46.166C-66.821,45.873 -66.913,45.623 -67.071,45.378M-59.253,0.133C-58.375,-0.537 -58.444,-1.869 -59.388,-2.444C-59.94,-2.771 -60.617,-2.738 -61.132,-2.352C-61.999,-1.701 -62.835,-1.011 -63.642,-0.286C-64.565,0.552 -64.182,2.08 -62.971,2.382C-62.463,2.505 -61.942,2.376 -61.553,2.026C-60.813,1.361 -60.048,0.731 -59.253,0.133ZM-67.323,8.805C-66.892,8.12 -67.044,7.23 -67.685,6.734C-68.413,6.175 -69.455,6.358 -69.951,7.13C-70.536,8.044 -71.085,8.979 -71.588,9.941C-72.166,11.065 -71.245,12.372 -69.99,12.201C-69.487,12.129 -69.057,11.827 -68.822,11.376C-68.361,10.495 -67.86,9.641 -67.323,8.805M-71.869,19.746C-71.639,18.659 -72.565,17.696 -73.661,17.881C-74.287,17.995 -74.778,18.462 -74.914,19.086L-75.464,22.296C-75.604,23.468 -74.457,24.356 -73.356,23.939C-72.815,23.725 -72.445,23.253 -72.371,22.674C-72.248,21.694 -72.081,20.711 -71.869,19.746M-72.31,31.585C-72.392,31.022 -72.763,30.556 -73.293,30.351C-74.407,29.929 -75.559,30.846 -75.395,32.025C-75.244,33.1 -75.044,34.165 -74.799,35.222C-74.636,35.905 -74.055,36.386 -73.355,36.423C-72.318,36.464 -71.532,35.524 -71.766,34.511C-71.99,33.543 -72.172,32.569 -72.31,31.585M-61.2,52.081C-62.121,51.289 -63.545,51.791 -63.758,52.989C-63.85,53.529 -63.658,54.069 -63.246,54.43C-62.43,55.144 -61.581,55.822 -60.704,56.461C-60.016,56.954 -59.081,56.82 -58.559,56.154C-58.02,55.454 -58.162,54.458 -58.876,53.938C-59.677,53.354 -60.453,52.733 -61.2,52.08L-61.2,52.081ZM-51.047,58.18C-52.236,57.736 -53.424,58.816 -53.1,60.044C-52.963,60.535 -52.622,60.914 -52.145,61.096C-51.128,61.482 -50.103,61.816 -49.057,62.111C-48.392,62.296 -47.688,62.024 -47.319,61.441C-46.765,60.559 -47.214,59.391 -48.218,59.11C-49.176,58.839 -50.116,58.534 -51.047,58.18ZM-39.191,-6.548C-40.051,-6.548 -40.748,-7.245 -40.748,-8.106C-40.748,-8.966 -40.051,-9.663 -39.191,-9.663C-18.999,-9.663 -2.63,6.706 -2.63,26.898C-2.63,47.089 -18.999,63.459 -39.191,63.459C-40.051,63.459 -40.748,62.761 -40.748,61.9C-40.748,61.04 -40.051,60.343 -39.191,60.343C-20.719,60.343 -5.745,45.369 -5.745,26.898C-5.745,8.426 -20.719,-6.548 -39.191,-6.548" style="fill:rgb(235,38,42);"/>
                    </g>
                </g>
            </g>
        </g>
    </g>
</svg>
