<?xml version="1.0" encoding="UTF-8" standalone="no"?>
<!DOCTYPE svg PUBLIC "-//W3C//DTD SVG 1.1//EN" "http://www.w3.org/Graphics/SVG/1.1/DTD/svg11.dtd">
<svg width="100%" height="100%" viewBox="0 0 961 952" version="1.1" xmlns="http://www.w3.org/2000/svg" xmlns:xlink="http://www.w3.org/1999/xlink" xml:space="preserve" xmlns:serif="http://www.serif.com/" style="fill-rule:evenodd;clip-rule:evenodd;stroke-linejoin:round;stroke-miterlimit:2;">
    <g transform="matrix(1,0,0,1,-1189.72,-12026)">
        <g id="Artboard2" transform="matrix(0.347951,0,0,0.63075,2310.96,4440.39)">
            <rect x="-3222.41" y="12026.3" width="2760.8" height="1508.42" style="fill:none;"/>
            <g transform="matrix(23.9497,0,0,13.2118,-1495.27,12516.1)">
                <path d="M0,40.052C0.963,40.052 1.741,40.832 1.741,41.794C1.741,42.755 0.963,43.535 0,43.535C-0.962,43.535 -1.741,42.755 -1.741,41.794C-1.741,40.832 -0.962,40.052 0,40.052M13.932,47.018C13.932,46.056 14.711,45.276 15.673,45.276C16.635,45.276 17.414,46.056 17.414,47.018C17.414,47.98 16.635,48.759 15.673,48.759C14.711,48.759 13.932,47.98 13.932,47.018M21.477,55.725L19.346,55.725C18.817,55.726 18.316,55.968 17.986,56.383C15.428,59.739 11.476,61.742 7.257,61.82C5.785,61.816 4.325,61.556 2.942,61.054L13.235,51.614C13.983,52.022 14.821,52.238 15.673,52.242C17.979,52.243 20.013,50.731 20.677,48.523C21.341,46.315 20.479,43.932 18.556,42.66C16.632,41.389 14.102,41.528 12.33,43.004C10.558,44.48 9.964,46.943 10.867,49.065L-0.334,59.339C-1.514,58.51 -2.569,57.517 -3.469,56.391C-3.798,55.971 -4.301,55.727 -4.834,55.725L-6.147,55.725C-6.504,55.537 -6.915,55.475 -7.312,55.552C-9.511,56.005 -11.8,55.561 -13.669,54.319C-15.539,53.075 -16.834,51.137 -17.266,48.933C-17.797,46.23 -16.966,43.438 -15.044,41.464C-13.122,39.489 -10.353,38.584 -7.636,39.043C-6.849,39.17 -6.075,38.746 -5.758,38.013C-5.612,37.665 -5.428,37.365 -5.263,37.039L-4.165,38.684C-4.847,39.577 -5.218,40.669 -5.224,41.794C-5.224,44.679 -2.885,47.018 0,47.018C2.886,47.018 5.224,44.679 5.224,41.794C5.224,38.908 2.886,36.569 0,36.569C-0.428,36.574 -0.854,36.633 -1.267,36.743L-3.199,33.849C-0.658,30.664 3.177,28.786 7.25,28.733C13.009,28.907 18.107,32.501 20.206,37.867C20.477,38.489 21.083,38.896 21.761,38.912C27.362,39.035 31.919,42.805 31.919,47.316C31.926,51.949 27.24,55.725 21.477,55.725M-29.605,67.915C-30.566,67.915 -31.346,67.135 -31.346,66.174C-31.346,65.212 -30.566,64.432 -29.605,64.432C-28.642,64.432 -27.863,65.212 -27.863,66.174C-27.863,67.135 -28.642,67.915 -29.605,67.915M-29.605,1.74C-29.605,0.779 -28.825,-0.001 -27.863,-0.001C-26.901,-0.001 -26.122,0.779 -26.122,1.74C-26.122,2.702 -26.901,3.482 -27.863,3.482C-28.825,3.482 -29.605,2.702 -29.605,1.74M-24.38,-10.45C-24.38,-9.488 -25.159,-8.708 -26.122,-8.708C-27.083,-8.708 -27.863,-9.488 -27.863,-10.45C-27.863,-11.412 -27.083,-12.191 -26.122,-12.191C-25.159,-12.191 -24.38,-11.412 -24.38,-10.45M-45.278,-1.743C-45.278,-2.704 -44.498,-3.484 -43.536,-3.484C-42.574,-3.484 -41.795,-2.704 -41.795,-1.743C-41.795,-0.781 -42.574,-0.001 -43.536,-0.001C-44.498,-0.001 -45.278,-0.781 -45.278,-1.743M-32.797,11.318C-37.016,11.24 -40.968,9.237 -43.525,5.881C-43.856,5.466 -44.357,5.224 -44.887,5.223L-46.2,5.223C-46.558,5.036 -46.968,4.974 -47.365,5.05C-47.789,5.132 -48.22,5.182 -48.653,5.199L-46.014,2.823C-45.256,3.249 -44.404,3.475 -43.536,3.482C-41.227,3.488 -39.186,1.982 -38.512,-0.227C-37.838,-2.436 -38.689,-4.825 -40.609,-6.109C-42.528,-7.394 -45.061,-7.27 -46.846,-5.804C-48.63,-4.34 -49.245,-1.879 -48.36,0.253L-52.857,4.302C-56.565,2.435 -58.35,-1.862 -57.057,-5.806C-55.765,-9.751 -51.783,-12.157 -47.689,-11.469C-46.902,-11.341 -46.128,-11.764 -45.812,-12.497C-43.747,-17.935 -38.61,-21.595 -32.797,-21.769C-28.544,-21.707 -24.562,-19.674 -22.018,-16.266L-23.54,-14.965C-24.323,-15.424 -25.214,-15.669 -26.122,-15.674C-28.436,-15.693 -30.493,-14.198 -31.189,-11.99C-31.885,-9.782 -31.058,-7.379 -29.151,-6.067C-27.243,-4.754 -24.703,-4.841 -22.889,-6.281C-21.076,-7.72 -20.415,-10.175 -21.261,-12.33L-20.167,-13.265C-20.063,-13.051 -19.937,-12.856 -19.84,-12.635C-19.569,-12.013 -18.962,-11.606 -18.285,-11.59C-12.684,-11.467 -8.127,-7.697 -8.127,-3.186C-8.127,1.455 -12.813,5.231 -18.576,5.231L-20.707,5.231C-21.237,5.231 -21.738,5.473 -22.067,5.887C-23.195,7.3 -24.568,8.496 -26.122,9.42L-26.122,6.645C-23.722,5.796 -22.283,3.343 -22.714,0.836C-23.144,-1.672 -25.318,-3.506 -27.863,-3.506C-30.407,-3.506 -32.582,-1.672 -33.012,0.836C-33.442,3.343 -32.003,5.796 -29.605,6.645L-29.605,10.897C-30.646,11.173 -31.719,11.315 -32.797,11.318M-48.761,33.086C-48.762,32.768 -48.677,32.456 -48.515,32.183C-48.188,31.671 -47.626,31.355 -47.019,31.345C-46.057,31.345 -45.278,32.125 -45.278,33.086C-45.278,34.048 -46.057,34.828 -47.019,34.828C-47.981,34.828 -48.761,34.048 -48.761,33.086M-46.357,26.922C-42.792,27.03 -39.638,29.259 -38.347,32.584C-38.076,33.203 -37.471,33.611 -36.795,33.628C-33.42,33.709 -30.675,35.929 -30.675,38.574C-30.675,41.311 -33.495,43.536 -36.962,43.536L-38.372,43.536C-38.904,43.536 -39.405,43.78 -39.736,44.196C-41.865,47.032 -45.559,48.206 -48.934,47.117C-50.523,46.542 -51.918,45.528 -52.955,44.194C-53.285,43.779 -53.785,43.536 -54.316,43.535L-55.044,43.535C-55.373,43.395 -55.737,43.36 -56.089,43.433C-58.139,43.847 -60.228,42.929 -61.311,41.139C-62.394,39.35 -62.236,37.073 -60.918,35.45C-59.767,34.101 -58.003,33.443 -56.25,33.709C-55.47,33.827 -54.708,33.406 -54.392,32.682C-54.148,32.125 -53.857,31.589 -53.521,31.08L-52.112,31.961C-52.59,34.127 -51.648,36.358 -49.764,37.527C-47.88,38.695 -45.463,38.547 -43.735,37.156C-42.007,35.766 -41.346,33.437 -42.085,31.346C-42.824,29.256 -44.801,27.859 -47.019,27.862C-48.193,27.873 -49.329,28.283 -50.238,29.025L-51.087,28.503C-49.717,27.488 -48.062,26.934 -46.357,26.922M-53.985,66.174C-54.947,66.174 -55.726,65.394 -55.726,64.432C-55.726,63.47 -54.947,62.691 -53.985,62.691C-53.022,62.691 -52.243,63.47 -52.243,64.432C-52.243,65.394 -53.022,66.174 -53.985,66.174M-60.951,-24.382C-61.912,-24.382 -62.692,-25.161 -62.692,-26.123C-62.692,-27.085 -61.912,-27.865 -60.951,-27.865C-59.988,-27.865 -59.209,-27.085 -59.209,-26.123C-59.209,-25.161 -59.988,-24.382 -60.951,-24.382M26.085,6.472C26.356,7.093 26.962,7.5 27.639,7.517C31.014,7.591 33.758,9.812 33.758,12.465C33.758,15.198 30.934,17.421 27.461,17.421L26.056,17.421C25.526,17.421 25.026,17.663 24.696,18.077C23.155,20.188 20.698,21.436 18.085,21.436C15.472,21.436 13.016,20.188 11.475,18.077C11.146,17.66 10.644,17.416 10.113,17.413L9.378,17.413C9.056,17.281 8.703,17.246 8.361,17.313C6.414,17.719 4.412,16.92 3.281,15.284C2.149,13.649 2.105,11.494 3.172,9.815C4.238,8.135 6.206,7.258 8.168,7.587C8.955,7.712 9.728,7.29 10.048,6.559C11.25,3.435 14.089,1.238 17.414,0.858L17.414,5.544C15.016,6.392 13.577,8.845 14.007,11.353C14.438,13.861 16.612,15.694 19.156,15.694C21.701,15.694 23.875,13.861 24.305,11.353C24.736,8.845 23.297,6.392 20.897,5.544L20.897,1.342C23.244,2.288 25.113,4.135 26.085,6.472M20.897,10.448C20.897,11.409 20.118,12.189 19.156,12.189C18.194,12.189 17.414,11.409 17.414,10.448C17.414,9.486 18.194,8.706 19.156,8.706C20.118,8.706 20.897,9.486 20.897,10.448M31.346,-27.865C32.309,-27.865 33.087,-27.085 33.087,-26.123C33.087,-25.161 32.309,-24.382 31.346,-24.382C30.384,-24.382 29.604,-25.161 29.604,-26.123C29.604,-27.085 30.384,-27.865 31.346,-27.865M22.939,35.481C20.1,29.355 14.017,25.384 7.266,25.25C2.519,25.321 -1.985,27.359 -5.172,30.877L-12.473,19.93C-12.798,19.443 -13.346,19.152 -13.932,19.155L-26.122,19.155L-26.122,13.345C-23.733,12.269 -21.607,10.686 -19.892,8.706L-18.576,8.706C-10.893,8.706 -4.644,3.368 -4.644,-3.193C-4.644,-9.375 -10.042,-14.403 -17.114,-15.021C-17.216,-15.221 -17.343,-15.397 -17.449,-15.594L-13.287,-19.157L17.414,-19.157L17.414,-2.631C13.158,-2.286 9.379,0.227 7.414,4.018C4.855,3.967 2.42,5.114 0.831,7.12C-1.34,9.774 -1.689,13.479 -0.051,16.491C1.587,19.504 4.885,21.226 8.293,20.847C8.429,20.88 8.568,20.896 8.707,20.896L9.31,20.896C11.511,23.449 14.715,24.916 18.085,24.916C21.456,24.916 24.659,23.449 26.861,20.896L27.461,20.896C32.86,20.896 37.241,17.111 37.241,12.458C37.174,9.589 35.594,6.969 33.087,5.572L33.087,-21.219C35.487,-22.067 36.926,-24.52 36.495,-27.028C36.065,-29.535 33.891,-31.368 31.346,-31.368C28.802,-31.368 26.628,-29.535 26.197,-27.028C25.767,-24.52 27.206,-22.067 29.604,-21.219L29.604,4.259C29.337,4.208 29.083,4.133 28.804,4.1C27.196,0.94 24.322,-1.389 20.897,-2.306L20.897,-20.899C20.897,-21.86 20.118,-22.64 19.156,-22.64L-13.932,-22.64C-14.347,-22.64 -14.75,-22.49 -15.065,-22.22L-19.389,-18.518C-22.582,-22.709 -27.53,-25.194 -32.798,-25.252C-35.354,-25.237 -37.872,-24.62 -40.147,-23.453L-44.048,-27.354C-44.374,-27.68 -44.816,-27.864 -45.278,-27.865L-56.046,-27.865C-56.895,-30.263 -59.348,-31.702 -61.855,-31.272C-64.363,-30.842 -66.196,-28.667 -66.196,-26.123C-66.196,-23.578 -64.363,-21.404 -61.855,-20.973C-59.348,-20.543 -56.895,-21.982 -56.046,-24.382L-45.998,-24.382L-43.144,-21.527C-45.361,-19.786 -47.171,-17.583 -48.45,-15.072C-48.645,-15.085 -48.846,-15.094 -49.051,-15.094C-54.312,-15.098 -58.952,-11.645 -60.458,-6.604C-61.965,-1.563 -59.981,3.869 -55.58,6.753L-62.114,12.635C-62.481,12.965 -62.691,13.436 -62.692,13.93L-62.692,24.379C-62.692,24.98 -62.383,25.54 -61.873,25.858L-56.466,29.238C-56.657,29.536 -56.853,29.83 -57.023,30.143C-59.585,30.091 -62.024,31.24 -63.613,33.25C-65.783,35.904 -66.131,39.608 -64.491,42.62C-62.852,45.631 -59.553,47.349 -56.146,46.968C-56.009,47.002 -55.867,47.019 -55.726,47.018L-55.12,47.018C-54.295,47.923 -53.343,48.702 -52.294,49.332L-55.306,52.852C-55.578,53.166 -55.726,53.569 -55.726,53.984L-55.726,59.529C-58.125,60.377 -59.564,62.83 -59.134,65.338C-58.703,67.845 -56.529,69.679 -53.985,69.679C-51.44,69.679 -49.266,67.845 -48.835,65.338C-48.405,62.83 -49.844,60.377 -52.243,59.529L-52.243,54.628L-48.889,50.713C-48.06,50.919 -47.21,51.029 -46.357,51.041C-42.992,51.007 -39.8,49.544 -37.576,47.018L-36.971,47.018C-31.584,47.018 -27.201,43.229 -27.201,38.573C-27.201,34.292 -30.825,30.788 -35.632,30.213C-37.654,26.123 -41.795,23.508 -46.357,23.439C-49.27,23.453 -52.071,24.561 -54.204,26.544L-59.209,23.413L-59.209,14.706L-52.102,8.309C-50.626,8.698 -49.09,8.803 -47.574,8.616C-47.395,8.676 -47.208,8.706 -47.019,8.706L-45.702,8.706C-42.489,12.515 -37.779,14.739 -32.797,14.801C-31.724,14.796 -30.654,14.683 -29.605,14.464L-29.605,20.896C-29.605,21.858 -28.825,22.637 -27.863,22.637L-14.863,22.637L-7.425,33.783C-7.763,34.316 -8.104,34.849 -8.397,35.424C-8.592,35.409 -8.792,35.401 -8.998,35.401C-13.427,35.399 -17.491,37.858 -19.545,41.782C-21.6,45.707 -21.305,50.447 -18.78,54.087C-16.255,57.726 -11.918,59.661 -7.523,59.111C-7.343,59.172 -7.155,59.205 -6.966,59.208L-5.649,59.208C-4.838,60.138 -3.938,60.986 -2.96,61.739L-5.9,64.432L-24.708,64.432C-25.555,62.033 -28.009,60.595 -30.516,61.025C-33.024,61.455 -34.857,63.63 -34.857,66.174C-34.857,68.719 -33.024,70.893 -30.516,71.323C-28.009,71.754 -25.555,70.315 -24.708,67.915L-5.224,67.915C-4.789,67.916 -4.37,67.753 -4.048,67.459L0.117,63.642C2.341,64.728 4.782,65.296 7.257,65.303C12.239,65.241 16.948,63.016 20.161,59.208L21.477,59.208C29.161,59.208 35.409,53.87 35.409,47.309C35.409,41.127 30.014,36.099 22.939,35.481" style="fill:rgb(235,38,42);fill-rule:nonzero;"/>
            </g>
        </g>
    </g>
</svg>
