<?xml version="1.0" encoding="UTF-8" standalone="no"?>
<!DOCTYPE svg PUBLIC "-//W3C//DTD SVG 1.1//EN" "http://www.w3.org/Graphics/SVG/1.1/DTD/svg11.dtd">
<svg width="100%" height="100%" viewBox="0 0 2730 1415" version="1.1" xmlns="http://www.w3.org/2000/svg" xmlns:xlink="http://www.w3.org/1999/xlink" xml:space="preserve" xmlns:serif="http://www.serif.com/" style="fill-rule:evenodd;clip-rule:evenodd;stroke-miterlimit:10;">
    <g transform="matrix(1,0,0,1,-3409.41,-33125.5)">
        <g id="Page-1" serif:id="Page 1" transform="matrix(4.16667,0,0,4.16667,0,0)">
            <rect x="0" y="0" width="1920" height="8614.75" style="fill:none;"/>
            <clipPath id="_clip1">
                <rect x="0" y="0" width="1920" height="8614.75"/>
            </clipPath>
            <g clip-path="url(#_clip1)">
                <g transform="matrix(-1,0,0,1,1918.83,7433.65)">
                    <rect x="0" y="0" width="1918.83" height="1181.1" style="fill:rgb(7,7,7);stroke:white;stroke-width:2px;"/>
                </g>
                <g>
                    <text x="817.234px" y="7979.97px" style="font-family:'KareliaWeb-Bold', 'KareliaWeb';font-weight:700;font-size:41px;fill:rgb(235,38,42);">AI a<tspan x="889.312px " y="7979.97px ">t</tspan> the Cor<tspan x="1061.31px " y="7979.97px ">e</tspan></text>
                    <text x="817.234px" y="8035.16px" style="font-family:'KareliaWeb-Regular', 'KareliaWeb';font-size:41px;fill:white;">AI isn<tspan x="917.97px " y="8035.16px ">&apos;</tspan>t jus<tspan x="1009.64px " y="8035.16px ">t</tspan> ano<tspan x="1105.17px " y="8035.16px ">t</tspan>her t<tspan x="1210.26px 1234.08px " y="8035.16px 8035.16px ">oo</tspan>l in our</text>
                    <text x="817.234px" y="8084.36px" style="font-family:'KareliaWeb-Regular', 'KareliaWeb';font-size:41px;fill:white;">o<tspan x="840.44px 856.307px 871.559px " y="8084.36px 8084.36px 8084.36px ">ffe</tspan>ring—it&apos;s the driving f<tspan x="1295.17px 1318.79px 1333.31px 1356.02px " y="8084.36px 8084.36px 8084.36px 8084.36px ">orce</tspan></text>
                    <text x="817.234px" y="8133.56px" style="font-family:'KareliaWeb-Regular', 'KareliaWeb';font-size:41px;fill:white;">b<tspan x="842.08px " y="8133.56px ">e</tspan>hind every solution we design.</text>
                    <text x="817.234px" y="8182.76px" style="font-family:'KareliaWeb-Regular', 'KareliaWeb';font-size:41px;fill:white;">Our t<tspan x="911.533px " y="8182.76px ">e</tspan>am o<tspan x="1026.33px " y="8182.76px ">f</tspan> AI sp<tspan x="1145.19px 1168.52px " y="8182.76px 8182.76px ">ec</tspan>ialis<tspan x="1263.18px " y="8182.76px ">t</tspan>s work<tspan x="1404.14px " y="8182.76px ">s</tspan> t<tspan x="1451.41px " y="8182.76px ">o</tspan></text>
                    <text x="817.234px" y="8231.96px" style="font-family:'KareliaWeb-Regular', 'KareliaWeb';font-size:41px;fill:white;">emb<tspan x="901.857px 925.186px " y="8231.96px 8231.96px ">ed</tspan> AI in<tspan x="1040.11px 1056.59px " y="8231.96px 8231.96px ">to</tspan> every la<tspan x="1236.25px " y="8231.96px ">y</tspan>er o<tspan x="1329.48px " y="8231.96px ">f</tspan> our</text>
                    <text x="817.234px" y="8281.16px" style="font-family:'KareliaWeb-Regular', 'KareliaWeb';font-size:41px;fill:white;">clien<tspan x="905.794px " y="8281.16px ">t</tspan>&apos;s op<tspan x="1013.13px 1036.26px 1051.18px 1072.83px " y="8281.16px 8281.16px 8281.16px 8281.16px ">erat</tspan>ions.</text>
                </g>
            </g>
        </g>
    </g>
</svg>
