<?xml version="1.0" encoding="UTF-8" standalone="no"?>
<!DOCTYPE svg PUBLIC "-//W3C//DTD SVG 1.1//EN" "http://www.w3.org/Graphics/SVG/1.1/DTD/svg11.dtd">
<svg width="100%" height="100%" viewBox="0 0 1479 578" version="1.1" xmlns="http://www.w3.org/2000/svg" xmlns:xlink="http://www.w3.org/1999/xlink" xml:space="preserve" xmlns:serif="http://www.serif.com/" style="fill-rule:evenodd;clip-rule:evenodd;stroke-linejoin:round;stroke-miterlimit:2;">
    <g transform="matrix(1,0,0,1,0,-10841.6)">
        <g id="Artboard1" transform="matrix(0.137333,0,0,0.122289,2968.33,9612.75)">
            <rect x="-21614.2" y="10049.1" width="10768" height="4721.36" style="fill:none;"/>
            <g transform="matrix(60.68,0,0,68.1449,-68993.6,-11914.5)">
                <g transform="matrix(1,0,0,1,799.136,356.79)">
                    <path d="M0,-1.304L8.284,-1.304C11.093,-1.304 13.081,-1.818 14.249,-2.845C15.418,-3.873 16.002,-5.356 16.002,-7.295C16.002,-8.416 15.813,-9.345 15.435,-10.08C15.058,-10.817 14.533,-11.406 13.86,-11.85C13.187,-12.294 12.403,-12.604 11.506,-12.779C10.609,-12.954 9.652,-13.041 8.638,-13.041L0,-13.041L0,-1.304ZM-4.23,-16.919L9.376,-16.919C10.809,-16.919 12.195,-16.772 13.535,-16.478C14.874,-16.184 16.055,-15.673 17.077,-14.945C18.099,-14.216 18.916,-13.241 19.527,-12.02C20.137,-10.797 20.443,-9.27 20.443,-7.437C20.443,-4.123 19.413,-1.621 17.353,0.071C15.294,1.762 12.252,2.609 8.227,2.609L0,2.609L0,15.615L-4.23,15.615L-4.23,-16.919Z" style="fill:rgb(235,38,42);fill-rule:nonzero;"/>
                </g>
                <g transform="matrix(1,0,0,1,834.033,368.035)">
                    <path d="M0,-15.334C-0.682,-15.521 -1.54,-15.615 -2.573,-15.615C-4.688,-15.615 -6.509,-14.501 -8.036,-12.273L-8.036,4.37L-12.266,4.37L-12.266,-19.211L-8.036,-19.211L-8.036,-15.862C-6.345,-18.423 -4.3,-19.704 -1.904,-19.704C-1.599,-19.704 -1.293,-19.692 -0.987,-19.669C-0.682,-19.646 -0.353,-19.598 0,-19.528L0,-15.334Z" style="fill:rgb(235,38,42);fill-rule:nonzero;"/>
                </g>
                <g transform="matrix(1,0,0,1,843.553,351.609)">
                    <path d="M0,18.082C2.078,18.082 3.726,17.321 4.942,15.8C6.159,14.278 6.768,12.02 6.768,9.023C6.768,7.49 6.601,6.157 6.271,5.025C5.941,3.893 5.475,2.949 4.871,2.194C4.269,1.439 3.555,0.873 2.729,0.495C1.902,0.118 0.992,-0.07 0,-0.07C-1.016,-0.07 -1.937,0.13 -2.763,0.531C-3.591,0.932 -4.3,1.516 -4.89,2.283C-5.481,3.049 -5.942,3.999 -6.272,5.131C-6.603,6.264 -6.767,7.561 -6.767,9.023C-6.767,11.972 -6.16,14.219 -4.943,15.765C-3.727,17.311 -2.078,18.082 0,18.082M0,-3.278C1.692,-3.278 3.219,-3.002 4.582,-2.449C5.944,-1.897 7.108,-1.099 8.071,-0.054C9.035,0.992 9.775,2.279 10.292,3.807C10.809,5.334 11.068,7.073 11.068,9.023C11.068,11.045 10.797,12.818 10.257,14.346C9.716,15.873 8.958,17.16 7.984,18.205C7.008,19.252 5.845,20.038 4.494,20.567C3.143,21.096 1.644,21.36 0,21.36C-1.621,21.36 -3.108,21.096 -4.459,20.567C-5.81,20.038 -6.973,19.252 -7.948,18.205C-8.924,17.16 -9.676,15.873 -10.204,14.346C-10.733,12.818 -10.997,11.045 -10.997,9.023C-10.997,7.026 -10.733,5.258 -10.204,3.719C-9.676,2.18 -8.924,0.894 -7.948,-0.142C-6.973,-1.175 -5.81,-1.956 -4.459,-2.485C-3.108,-3.014 -1.621,-3.278 0,-3.278" style="fill:rgb(235,38,42);fill-rule:nonzero;"/>
                </g>
                <g transform="matrix(1,0,0,1,871.331,347.133)">
                    <path d="M0,18.575L0,7.283C-1.833,5.364 -3.901,4.406 -6.204,4.406C-7.99,4.406 -9.424,5.173 -10.504,6.706C-11.585,8.239 -12.125,10.562 -12.125,13.677C-12.125,16.626 -11.615,18.844 -10.592,20.33C-9.57,21.815 -8.167,22.558 -6.38,22.558C-4.078,22.558 -1.951,21.231 0,18.575M0,22.487C-1.876,24.721 -4.115,25.837 -6.718,25.837C-8.243,25.837 -9.597,25.554 -10.781,24.99C-11.964,24.427 -12.974,23.622 -13.805,22.576C-14.638,21.531 -15.271,20.256 -15.705,18.752C-16.139,17.248 -16.355,15.556 -16.355,13.676C-16.355,11.75 -16.109,10.016 -15.617,8.476C-15.125,6.938 -14.439,5.628 -13.559,4.547C-12.68,3.466 -11.637,2.637 -10.429,2.062C-9.221,1.486 -7.891,1.198 -6.437,1.198C-3.881,1.198 -1.736,1.962 0,3.489L0,-7.262L4.194,-7.262L4.194,25.272L0,25.272L0,22.487Z" style="fill:rgb(235,38,42);fill-rule:nonzero;"/>
                </g>
                <g transform="matrix(1,0,0,1,893.75,355.092)">
                    <path d="M0,11.117L0,5.857L-2.856,5.857C-8.917,5.857 -11.949,7.528 -11.949,10.868C-11.949,12.077 -11.514,13.001 -10.645,13.639C-9.776,14.28 -8.565,14.599 -7.014,14.599C-6.333,14.599 -5.657,14.522 -4.988,14.369C-4.318,14.214 -3.678,13.984 -3.067,13.676C-2.456,13.367 -1.885,13.001 -1.357,12.575C-0.828,12.148 -0.377,11.662 0,11.117M0,14.917C-2.158,16.891 -4.901,17.878 -8.23,17.878C-9.379,17.878 -10.446,17.713 -11.431,17.385C-12.415,17.054 -13.265,16.592 -13.981,15.991C-14.696,15.392 -15.253,14.676 -15.651,13.842C-16.051,13.008 -16.249,12.085 -16.249,11.075C-16.249,5.553 -11.513,2.791 -2.041,2.791L0,2.791C0,1.705 -0.047,0.76 -0.14,-0.044C-0.234,-0.847 -0.461,-1.509 -0.824,-2.029C-1.186,-2.549 -1.74,-2.933 -2.487,-3.181C-3.234,-3.428 -4.273,-3.553 -5.605,-3.553C-9.341,-3.553 -11.257,-2.202 -11.35,0.5L-15.544,0.5C-15.215,-4.34 -11.832,-6.761 -5.393,-6.761C-3.889,-6.761 -2.544,-6.638 -1.357,-6.391C-0.171,-6.145 0.833,-5.691 1.657,-5.033C2.479,-4.376 3.107,-3.47 3.543,-2.32C3.977,-1.168 4.194,0.301 4.194,2.086L4.194,17.313L0,17.313L0,14.917Z" style="fill:rgb(235,38,42);fill-rule:nonzero;"/>
                </g>
                <g transform="matrix(1,0,0,1,905.526,362.924)">
                    <path d="M0,3.948C1.762,5.828 3.818,6.767 6.168,6.767C8.001,6.767 9.44,6.001 10.486,4.468C11.532,2.934 12.055,0.61 12.055,-2.503C12.055,-5.452 11.561,-7.67 10.574,-9.156C9.587,-10.642 8.177,-11.385 6.344,-11.385C4.041,-11.385 1.926,-10.025 0,-7.304L0,3.948ZM0,-11.315C1.852,-13.5 4.091,-14.593 6.718,-14.593C8.242,-14.593 9.601,-14.305 10.797,-13.729C11.993,-13.154 13.001,-12.342 13.823,-11.297C14.643,-10.251 15.27,-8.983 15.704,-7.49C16.138,-5.998 16.355,-4.335 16.355,-2.502C16.355,-0.599 16.108,1.128 15.616,2.678C15.124,4.229 14.432,5.552 13.541,6.643C12.649,7.737 11.594,8.578 10.375,9.164C9.156,9.752 7.831,10.046 6.401,10.046C3.869,10.046 1.735,9.259 0,7.683L0,18.541L-4.23,18.541L-4.23,-14.1L0,-14.1L0,-11.315Z" style="fill:rgb(235,38,42);fill-rule:nonzero;"/>
                </g>
                <g transform="matrix(1,0,0,1,932.88,343.29)">
                    <path d="M0,29.15C-0.469,29.245 -0.951,29.314 -1.445,29.362C-1.938,29.408 -2.455,29.432 -2.996,29.432C-4.315,29.432 -5.354,29.267 -6.112,28.938C-6.871,28.609 -7.433,28.131 -7.8,27.507C-8.168,26.885 -8.393,26.126 -8.475,25.231C-8.559,24.337 -8.6,23.325 -8.6,22.194L-8.6,8.812L-11.491,8.812L-11.491,5.534L-8.6,5.534L-8.6,-0.282L-4.37,-0.282L-4.37,5.534L-0.564,5.534L-0.564,8.812L-4.37,8.812L-4.37,22.437C-4.37,23.262 -4.317,23.922 -4.211,24.419C-4.106,24.913 -3.959,25.291 -3.771,25.551C-3.583,25.81 -3.342,25.981 -3.049,26.064C-2.755,26.146 -2.431,26.187 -2.079,26.187C-1.703,26.187 -1.345,26.176 -1.005,26.153C-0.663,26.13 -0.329,26.084 0,26.012L0,29.15Z" style="fill:rgb(235,38,42);fill-rule:nonzero;"/>
                </g>
                <g transform="matrix(1,0,0,1,932.195,372.408)">
                    <path d="M0,-10.556L10.556,-10.556L10.556,0" style="fill:rgb(235,38,42);fill-rule:nonzero;"/>
                </g>
            </g>
        </g>
    </g>
</svg>
