<?xml version="1.0" encoding="UTF-8" standalone="no"?>
<!DOCTYPE svg PUBLIC "-//W3C//DTD SVG 1.1//EN" "http://www.w3.org/Graphics/SVG/1.1/DTD/svg11.dtd">
<svg width="100%" height="100%" viewBox="0 0 1813 1680" version="1.1" xmlns="http://www.w3.org/2000/svg" xmlns:xlink="http://www.w3.org/1999/xlink" xml:space="preserve" xmlns:serif="http://www.serif.com/" style="fill-rule:evenodd;clip-rule:evenodd;stroke-miterlimit:10;">
    <g transform="matrix(1,0,0,1,-12938.3,-15480.9)">
        <g>
            <g transform="matrix(-3.14515,0,0,3.14515,18475,4699.44)">
                <rect x="1197.53" y="3441.29" width="549.556" height="507.512" style="fill:rgb(7,7,7);stroke:white;stroke-width:2.65px;"/>
            </g>
            <g transform="matrix(3.14515,0,0,3.14515,9213.78,847.708)">
                <text x="1263.88px" y="4772.25px" style="font-family:'KareliaWeb-Bold', 'KareliaWeb';font-weight:700;font-size:52px;fill:rgb(235,38,42);">T<tspan x="1290.14px " y="4772.25px ">e</tspan>lc<tspan x="1363.1px " y="4772.25px ">o</tspan>s</text>
                <text x="1434.49px" y="4772.25px" style="font-family:'KareliaWeb-Regular', 'KareliaWeb';font-size:41px;fill:white;">ne<tspan x="1481.64px 1504.97px " y="4772.25px 4772.25px ">ed</tspan>ing</text>
            </g>
            <g transform="matrix(3.14515,0,0,3.14515,9213.78,847.708)">
                <text x="1263.89px" y="4821.45px" style="font-family:'KareliaWeb-Regular', 'KareliaWeb';font-size:41px;fill:white;">ac<tspan x="1308.66px 1331.38px " y="4821.45px 4821.45px ">ce</tspan>ler<tspan x="1402.31px 1423.95px 1440.44px 1463.77px " y="4821.45px 4821.45px 4821.45px 4821.45px ">ated</tspan></text>
            </g>
            <g transform="matrix(3.14515,0,0,3.14515,9213.78,847.708)">
                <text x="1263.89px" y="4919.85px" style="font-family:'KareliaWeb-Regular', 'KareliaWeb';font-size:41px;fill:white;">servic<tspan x="1377.17px " y="4919.85px ">e</tspan></text>
            </g>
            <g transform="matrix(3.14515,0,0,3.14515,9213.78,847.708)">
                <text x="1263.89px" y="4969.05px" style="font-family:'KareliaWeb-Regular', 'KareliaWeb';font-size:41px;fill:white;">tr<tspan x="1295.5px " y="4969.05px ">a</tspan>ns<tspan x="1362.21px 1377.46px " y="4969.05px 4969.05px ">fo</tspan>rma<tspan x="1474.51px " y="4969.05px ">t</tspan>ion</text>
            </g>
        </g>
        <g transform="matrix(3.14515,0,0,3.14515,9213.78,847.708)">
            <text x="1263.89px" y="4870.65px" style="font-family:'KareliaWeb-Regular', 'KareliaWeb';font-size:41px;fill:white;">in<tspan x="1297.06px 1312.93px 1327.85px 1349.91px 1370.74px " y="4870.65px 4870.65px 4870.65px 4870.65px 4870.65px ">frast</tspan>ruc<tspan x="1447.9px " y="4870.65px ">t</tspan>ur<tspan x="1502.35px " y="4870.65px ">e</tspan> and</text>
        </g>
    </g>
</svg>
