<?xml version="1.0" encoding="UTF-8" standalone="no"?>
<!DOCTYPE svg PUBLIC "-//W3C//DTD SVG 1.1//EN" "http://www.w3.org/Graphics/SVG/1.1/DTD/svg11.dtd">
<svg width="100%" height="100%" viewBox="0 0 1038 1046" version="1.1" xmlns="http://www.w3.org/2000/svg" xmlns:xlink="http://www.w3.org/1999/xlink" xml:space="preserve" xmlns:serif="http://www.serif.com/" style="fill-rule:evenodd;clip-rule:evenodd;stroke-miterlimit:10;">
    <g transform="matrix(1,0,0,1,-39146.9,-11333.6)">
        <g id="Page-2" serif:id="Page 2" transform="matrix(8.33333,0,0,8.33333,30364.7,0)">
            <rect x="0" y="0" width="3238.9" height="2821.11" style="fill:none;"/>
            <g id="Layer-1" serif:id="Layer 1">
                <g transform="matrix(1,0,0,1,1116.22,1427.35)">
                    <path d="M0,-17.066C-3.881,-17.066 -7.027,-13.92 -7.027,-10.039L-3.012,-10.039C-3.012,-11.702 -1.663,-13.05 0,-13.05C1.663,-13.05 3.012,-11.702 3.012,-10.039C3.012,-8.375 1.663,-7.027 0,-7.027C-1.109,-7.027 -2.008,-6.128 -2.008,-5.019L-2.008,0L2.008,0L2.008,-3.312C5.723,-4.436 7.823,-8.359 6.699,-12.074C5.805,-15.029 3.087,-17.054 0,-17.066" style="fill:rgb(235,38,42);fill-rule:nonzero;"/>
                </g>
                <g transform="matrix(1,0,0,1,0,43.64)">
                    <rect x="1114.21" y="1386.73" width="4.016" height="4.016" style="fill:rgb(235,38,42);"/>
                </g>
                <g transform="matrix(1,0,0,1,1072.05,1394.23)">
                    <path d="M0,-28.109C7.762,-28.109 14.055,-21.817 14.055,-14.054C14.055,-6.292 7.762,-0 0,-0C-7.762,-0 -14.055,-6.292 -14.055,-14.054C-14.055,-21.817 -7.762,-28.109 0,-28.109M0,4.016C9.98,4.016 18.07,-4.074 18.07,-14.054C18.07,-24.034 9.98,-32.125 0,-32.125C-9.98,-32.125 -18.07,-24.034 -18.07,-14.054C-18.07,-4.074 -9.98,4.016 0,4.016" style="fill:rgb(235,38,42);fill-rule:nonzero;"/>
                </g>
                <g transform="matrix(1,0,0,1,1160.39,1366.12)">
                    <path d="M0,28.109C-7.762,28.109 -14.055,21.817 -14.055,14.054C-14.055,6.292 -7.762,0 0,0C7.762,0 14.055,6.292 14.055,14.054C14.055,21.817 7.762,28.109 0,28.109M0,-4.016C-9.98,-4.016 -18.07,4.074 -18.07,14.054C-18.07,24.034 -9.98,32.125 0,32.125C9.98,32.125 18.07,24.034 18.07,14.054C18.07,4.074 9.98,-4.016 0,-4.016" style="fill:rgb(235,38,42);fill-rule:nonzero;"/>
                </g>
                <g transform="matrix(1,0,0,1,1069.22,1373.49)">
                    <path d="M0,13.372C0.527,13.37 1.031,13.161 1.405,12.79L11.444,2.851L8.513,0L0,8.513L-2.851,5.682L-5.682,8.513L-1.426,12.709C-1.06,13.115 -0.546,13.354 0,13.372" style="fill:rgb(235,38,42);fill-rule:nonzero;"/>
                </g>
                <g transform="matrix(1,0,0,1,1164.65,1387.28)">
                    <path d="M0,-14.215L-4.257,-9.938L-8.513,-14.215L-11.344,-11.364L-7.088,-7.107L-11.344,-2.851L-8.513,0L-4.257,-4.276L0,0L2.831,-2.851L-1.426,-7.107L2.831,-11.364L0,-14.215Z" style="fill:rgb(235,38,42);fill-rule:nonzero;"/>
                </g>
                <g transform="matrix(1,0,0,1,1076.46,1412.84)">
                    <path d="M0,0.665L3.213,-1.744L-2.811,-9.776C-3.476,-10.663 -4.735,-10.842 -5.622,-10.177C-5.774,-10.063 -5.909,-9.928 -6.023,-9.776L-12.047,-1.744L-8.834,0.665L-6.425,-2.548L-6.425,9.499C-6.425,10.608 -5.526,11.507 -4.417,11.507L17.669,11.507L17.669,7.492L-2.409,7.492L-2.409,-2.548L0,0.665Z" style="fill:rgb(235,38,42);fill-rule:nonzero;"/>
                </g>
                <g transform="matrix(1,0,0,1,1138.31,1406.01)">
                    <path d="M0,14.318L0,18.334L22.086,18.334C23.195,18.334 24.094,17.435 24.094,16.326L24.094,4.279L26.503,7.491L29.716,5.082L23.692,-2.949C23.027,-3.836 21.768,-4.016 20.881,-3.351C20.729,-3.237 20.594,-3.101 20.48,-2.949L14.456,5.082L17.669,7.491L20.078,4.279L20.078,14.318L0,14.318Z" style="fill:rgb(235,38,42);fill-rule:nonzero;"/>
                </g>
                <g transform="matrix(1,0,0,1,0,23.561)">
                    <path d="M1102.16,1382.71L1130.27,1382.71L1130.27,1414.84L1102.16,1414.84L1102.16,1382.71ZM1130.27,1418.85C1132.49,1418.85 1134.29,1417.06 1134.29,1414.84L1134.29,1382.71C1134.29,1380.49 1132.49,1378.7 1130.27,1378.7L1102.16,1378.7C1099.95,1378.7 1098.15,1380.49 1098.15,1382.71L1098.15,1414.84C1098.15,1417.06 1099.95,1418.85 1102.16,1418.85L1130.27,1418.85Z" style="fill:rgb(235,38,42);fill-rule:nonzero;"/>
                </g>
                <g transform="matrix(1,0,0,1,1156.62,1451.39)">
                    <path d="M0,32.187L5.782,20.622L11.565,32.187L0,32.187ZM-18.311,31.183L-30.358,31.183L-30.358,19.136L-18.311,19.136L-18.311,31.183ZM-52.986,19.136L-49.512,25.16L-52.986,31.183L-59.933,31.183L-63.406,25.16L-59.933,19.136L-52.986,19.136ZM-79.549,25.16C-79.549,29.041 -82.696,32.187 -86.577,32.187C-90.458,32.187 -93.604,29.041 -93.604,25.16C-93.604,21.279 -90.458,18.132 -86.577,18.132C-82.696,18.132 -79.549,21.279 -79.549,25.16M16.524,35.199C16.883,34.578 16.883,33.812 16.524,33.191L7.79,15.643L7.79,5.082C7.79,3.973 6.891,3.074 5.782,3.074L-38.389,3.074L-38.389,-4.957L-42.405,-4.957L-42.405,3.074L-86.577,3.074C-87.686,3.074 -88.584,3.973 -88.584,5.082L-88.584,14.317C-94.582,15.426 -98.544,21.187 -97.436,27.184C-96.327,33.181 -90.566,37.144 -84.569,36.035C-78.572,34.926 -74.609,29.166 -75.718,23.169C-76.55,18.67 -80.07,15.149 -84.569,14.317L-84.569,7.089L-58.467,7.089L-58.467,15.121L-61.098,15.121C-61.818,15.118 -62.484,15.501 -62.844,16.125L-67.482,24.156C-67.841,24.777 -67.841,25.542 -67.482,26.164L-62.844,34.195C-62.484,34.818 -61.818,35.202 -61.098,35.199L-51.821,35.199C-51.101,35.202 -50.435,34.818 -50.075,34.195L-45.437,26.164C-45.078,25.542 -45.078,24.777 -45.437,24.156L-50.075,16.125C-50.435,15.501 -51.101,15.118 -51.821,15.121L-54.452,15.121L-54.452,7.089L-26.342,7.089L-26.342,15.121L-32.366,15.121C-33.475,15.121 -34.374,16.02 -34.374,17.128L-34.374,33.191C-34.374,34.3 -33.475,35.199 -32.366,35.199L-16.303,35.199C-15.194,35.199 -14.296,34.3 -14.296,33.191L-14.296,17.128C-14.296,16.02 -15.194,15.121 -16.303,15.121L-22.327,15.121L-22.327,7.089L3.775,7.089L3.775,15.643L-5.04,33.291C-5.539,34.281 -5.14,35.489 -4.15,35.988C-3.872,36.128 -3.564,36.202 -3.253,36.203L14.818,36.203C15.523,36.191 16.171,35.81 16.524,35.199" style="fill:rgb(235,38,42);fill-rule:nonzero;"/>
                </g>
                <g transform="matrix(-1,0,0,1,2388.68,193.812)">
                    <rect x="1005.61" y="1000.54" width="377.448" height="626.22" style="fill:rgb(7,7,7);stroke:white;stroke-width:2px;"/>
                </g>
                <g>
                    <g transform="matrix(1,0,0,1,1116.11,1425.29)">
                        <path d="M0,-17.066C-3.881,-17.066 -7.027,-13.92 -7.027,-10.039L-3.012,-10.039C-3.012,-11.702 -1.663,-13.05 0,-13.05C1.663,-13.05 3.012,-11.702 3.012,-10.039C3.012,-8.375 1.663,-7.027 0,-7.027C-1.109,-7.027 -2.008,-6.128 -2.008,-5.019L-2.008,0L2.008,0L2.008,-3.313C5.723,-4.436 7.823,-8.359 6.699,-12.074C5.805,-15.029 3.087,-17.054 0,-17.066" style="fill:rgb(235,38,42);fill-rule:nonzero;"/>
                    </g>
                    <g transform="matrix(1,0,0,1,1071.94,1392.16)">
                        <path d="M0,-28.109C7.762,-28.109 14.055,-21.817 14.055,-14.054C14.055,-6.292 7.762,-0 0,-0C-7.762,-0 -14.055,-6.292 -14.055,-14.054C-14.055,-21.817 -7.762,-28.109 0,-28.109M0,4.016C9.98,4.016 18.07,-4.074 18.07,-14.054C18.07,-24.034 9.98,-32.125 0,-32.125C-9.98,-32.125 -18.07,-24.034 -18.07,-14.054C-18.07,-4.074 -9.98,4.016 0,4.016" style="fill:rgb(235,38,42);fill-rule:nonzero;"/>
                    </g>
                    <g transform="matrix(1,0,0,1,1160.28,1364.05)">
                        <path d="M0,28.109C-7.762,28.109 -14.055,21.817 -14.055,14.054C-14.055,6.292 -7.762,0 0,0C7.762,0 14.055,6.292 14.055,14.054C14.055,21.817 7.762,28.109 0,28.109M0,-4.016C-9.98,-4.016 -18.07,4.074 -18.07,14.054C-18.07,24.034 -9.98,32.125 0,32.125C9.98,32.125 18.07,24.034 18.07,14.054C18.07,4.074 9.98,-4.016 0,-4.016" style="fill:rgb(235,38,42);fill-rule:nonzero;"/>
                    </g>
                    <g transform="matrix(1,0,0,1,1069.11,1371.42)">
                        <path d="M0,13.372C0.527,13.37 1.031,13.161 1.405,12.79L11.444,2.851L8.513,0L0,8.513L-2.851,5.682L-5.682,8.513L-1.426,12.709C-1.06,13.115 -0.546,13.354 0,13.372" style="fill:rgb(235,38,42);fill-rule:nonzero;"/>
                    </g>
                    <g transform="matrix(1,0,0,1,1164.54,1385.21)">
                        <path d="M0,-14.215L-4.257,-9.938L-8.513,-14.215L-11.344,-11.364L-7.088,-7.107L-11.344,-2.851L-8.513,0L-4.257,-4.276L0,0L2.831,-2.851L-1.426,-7.107L2.831,-11.364L0,-14.215Z" style="fill:rgb(235,38,42);fill-rule:nonzero;"/>
                    </g>
                    <g transform="matrix(1,0,0,1,1076.35,1410.77)">
                        <path d="M0,0.665L3.212,-1.744L-2.811,-9.776C-3.476,-10.663 -4.735,-10.842 -5.622,-10.177C-5.774,-10.063 -5.909,-9.928 -6.023,-9.776L-12.047,-1.744L-8.834,0.665L-6.425,-2.547L-6.425,9.499C-6.425,10.608 -5.526,11.507 -4.417,11.507L17.669,11.507L17.669,7.492L-2.409,7.492L-2.409,-2.547L0,0.665Z" style="fill:rgb(235,38,42);fill-rule:nonzero;"/>
                    </g>
                    <g transform="matrix(1,0,0,1,1138.2,1403.94)">
                        <path d="M0,14.318L0,18.334L22.086,18.334C23.195,18.334 24.094,17.435 24.094,16.326L24.094,4.279L26.503,7.491L29.715,5.082L23.692,-2.949C23.027,-3.836 21.768,-4.016 20.881,-3.351C20.729,-3.237 20.594,-3.101 20.48,-2.949L14.456,5.082L17.669,7.491L20.078,4.279L20.078,14.318L0,14.318Z" style="fill:rgb(235,38,42);fill-rule:nonzero;"/>
                    </g>
                    <g transform="matrix(1,0,0,1,0,19.43)">
                        <path d="M1102.06,1384.78L1130.16,1384.78L1130.16,1416.9L1102.06,1416.9L1102.06,1384.78ZM1130.16,1420.92C1132.38,1420.92 1134.18,1419.12 1134.18,1416.9L1134.18,1384.78C1134.18,1382.56 1132.38,1380.76 1130.16,1380.76L1102.06,1380.76C1099.84,1380.76 1098.04,1382.56 1098.04,1384.78L1098.04,1416.9C1098.04,1419.12 1099.84,1420.92 1102.06,1420.92L1130.16,1420.92Z" style="fill:rgb(235,38,42);fill-rule:nonzero;"/>
                    </g>
                    <g transform="matrix(1,0,0,1,1156.51,1449.32)">
                        <path d="M0,32.187L5.782,20.622L11.565,32.187L0,32.187ZM-18.311,31.183L-30.358,31.183L-30.358,19.136L-18.311,19.136L-18.311,31.183ZM-52.986,19.136L-49.512,25.16L-52.986,31.183L-59.933,31.183L-63.406,25.16L-59.933,19.136L-52.986,19.136ZM-79.549,25.16C-79.549,29.041 -82.696,32.187 -86.577,32.187C-90.458,32.187 -93.604,29.041 -93.604,25.16C-93.604,21.279 -90.458,18.132 -86.577,18.132C-82.696,18.132 -79.549,21.279 -79.549,25.16M16.524,35.199C16.883,34.578 16.883,33.812 16.524,33.191L7.79,15.643L7.79,5.082C7.79,3.973 6.891,3.074 5.782,3.074L-38.389,3.074L-38.389,-4.957L-42.405,-4.957L-42.405,3.074L-86.577,3.074C-87.686,3.074 -88.584,3.973 -88.584,5.082L-88.584,14.317C-94.582,15.426 -98.544,21.187 -97.436,27.184C-96.327,33.181 -90.566,37.144 -84.569,36.035C-78.572,34.926 -74.609,29.166 -75.718,23.169C-76.55,18.67 -80.07,15.149 -84.569,14.317L-84.569,7.089L-58.467,7.089L-58.467,15.121L-61.098,15.121C-61.818,15.118 -62.484,15.501 -62.844,16.125L-67.482,24.156C-67.841,24.777 -67.841,25.542 -67.482,26.164L-62.844,34.195C-62.484,34.818 -61.818,35.202 -61.098,35.199L-51.822,35.199C-51.101,35.202 -50.435,34.818 -50.075,34.195L-45.437,26.164C-45.078,25.542 -45.078,24.777 -45.437,24.156L-50.075,16.125C-50.435,15.501 -51.101,15.118 -51.822,15.121L-54.452,15.121L-54.452,7.089L-26.342,7.089L-26.342,15.121L-32.366,15.121C-33.475,15.121 -34.374,16.02 -34.374,17.128L-34.374,33.191C-34.374,34.3 -33.475,35.199 -32.366,35.199L-16.303,35.199C-15.194,35.199 -14.296,34.3 -14.296,33.191L-14.296,17.128C-14.296,16.02 -15.194,15.121 -16.303,15.121L-22.327,15.121L-22.327,7.089L3.775,7.089L3.775,15.643L-5.04,33.291C-5.539,34.282 -5.14,35.489 -4.15,35.988C-3.872,36.128 -3.564,36.202 -3.253,36.203L14.818,36.203C15.523,36.191 16.171,35.81 16.524,35.199" style="fill:rgb(235,38,42);fill-rule:nonzero;"/>
                    </g>
                </g>
                <g transform="matrix(1,0,0,1,0,39.508)">
                    <rect x="1114.1" y="1388.79" width="4.016" height="4.016" style="fill:rgb(235,38,42);"/>
                </g>
            </g>
        </g>
    </g>
</svg>
