<?xml version="1.0" encoding="UTF-8" standalone="no"?>
<!DOCTYPE svg PUBLIC "-//W3C//DTD SVG 1.1//EN" "http://www.w3.org/Graphics/SVG/1.1/DTD/svg11.dtd">
<svg width="100%" height="100%" viewBox="0 0 907 1036" version="1.1" xmlns="http://www.w3.org/2000/svg" xmlns:xlink="http://www.w3.org/1999/xlink" xml:space="preserve" xmlns:serif="http://www.serif.com/" style="fill-rule:evenodd;clip-rule:evenodd;stroke-miterlimit:10;">
    <g transform="matrix(1,0,0,1,-35480.6,-11326.1)">
        <g id="Page-2" serif:id="Page 2" transform="matrix(8.33333,0,0,8.33333,30364.7,0)">
            <rect x="0" y="0" width="3238.9" height="2821.11" style="fill:none;"/>
            <g id="Layer-1" serif:id="Layer 1">
                <g transform="matrix(1,0,0,1,656.186,1370.05)">
                    <path d="M0,4.438C2.917,4.389 2.917,0.048 0,0C-2.917,0.049 -2.917,4.389 0,4.438" style="fill:rgb(235,38,42);fill-rule:nonzero;"/>
                </g>
                <g transform="matrix(1,0,0,1,649.389,1466.85)">
                    <path d="M0,-95.921C1.43,-102.895 11.592,-102.926 13.036,-95.947C13.478,-93.86 15.316,-92.345 17.405,-92.345L22.331,-92.345L22.331,-85.681L-8.738,-85.681L-8.738,-92.345L-4.343,-92.345C-2.265,-92.345 -0.438,-93.851 0,-95.921M44.524,-90.126L44.524,-85.681L26.77,-85.681L26.77,-92.345L42.305,-92.345C43.529,-92.345 44.524,-91.35 44.524,-90.126M-28.712,9.74L16.25,9.74C17.477,9.74 18.469,8.748 18.469,7.521C18.469,6.295 17.477,5.302 16.25,5.302L-28.712,5.302C-29.936,5.302 -30.931,4.307 -30.931,3.083L-30.931,-90.126C-30.931,-91.35 -29.936,-92.345 -28.712,-92.345L-13.177,-92.345L-13.177,-85.681L-22.054,-85.681C-24.961,-85.625 -24.982,-81.298 -22.054,-81.242L44.524,-81.242L44.524,-43.522C44.524,-42.295 45.516,-41.302 46.743,-41.302C47.97,-41.302 48.962,-42.295 48.962,-43.522L48.962,-90.126C48.962,-93.797 45.976,-96.784 42.305,-96.784C37.179,-96.789 22.23,-96.753 17.377,-96.875C16.263,-102.048 11.803,-105.661 6.53,-105.661C1.242,-105.661 -3.229,-102.037 -4.343,-96.784L-28.712,-96.784C-32.383,-96.784 -35.369,-93.797 -35.369,-90.126L-35.369,3.083C-35.369,6.754 -32.383,9.74 -28.712,9.74" style="fill:rgb(235,38,42);fill-rule:nonzero;"/>
                </g>
                <g transform="matrix(1,0,0,1,715.594,1456.62)">
                    <path d="M0,4.439C-1.036,4.439 -1.933,5.156 -2.163,6.166C-2.607,8.112 -3.374,9.959 -4.443,11.656C-5.714,13.58 -3.32,15.13 -2.2,16.344L-5.338,19.482L-7.273,17.546C-8.008,16.81 -9.15,16.686 -10.026,17.239C-11.723,18.307 -13.569,19.074 -15.515,19.519C-17.797,20.019 -17.164,22.73 -17.242,24.412L-21.681,24.412C-21.756,22.708 -21.133,20.021 -23.408,19.519C-25.354,19.074 -27.201,18.307 -28.898,17.239C-29.77,16.688 -30.913,16.809 -31.65,17.546L-33.586,19.482L-36.724,16.344L-34.788,14.408C-34.056,13.676 -33.928,12.534 -34.481,11.656C-35.549,9.959 -36.316,8.112 -36.761,6.166C-37.261,3.884 -39.972,4.517 -41.654,4.439L-41.654,0.001C-39.95,-0.075 -37.263,0.548 -36.761,-1.727C-36.316,-3.673 -35.549,-5.519 -34.481,-7.216C-33.928,-8.094 -34.056,-9.236 -34.789,-9.969L-36.724,-11.904L-33.586,-15.042C-32.344,-13.897 -30.838,-11.537 -28.898,-12.799C-27.201,-13.868 -25.355,-14.635 -23.408,-15.079C-22.398,-15.309 -21.681,-16.206 -21.681,-17.242L-21.681,-19.973L-17.243,-19.973L-17.243,-17.242C-17.243,-16.206 -16.525,-15.309 -15.515,-15.079C-13.569,-14.635 -11.723,-13.868 -10.026,-12.799C-8.105,-11.526 -6.551,-13.922 -5.338,-15.042L-2.2,-11.904C-3.345,-10.661 -5.703,-9.16 -4.443,-7.216C-3.374,-5.519 -2.607,-3.673 -2.163,-1.727C-1.933,-0.717 -1.036,0.001 0,0.001L2.731,0.001L2.731,4.439L0,4.439ZM2.731,8.877C5.177,8.877 7.169,6.886 7.169,4.439L7.169,0.001C7.169,-2.956 4.497,-4.784 1.697,-4.438C1.307,-5.678 0.808,-6.878 0.204,-8.031C2.415,-9.732 3.037,-12.988 0.938,-15.042L-2.2,-18.181C-4.259,-20.269 -7.506,-19.663 -9.211,-17.446C-10.364,-18.05 -11.564,-18.549 -12.804,-18.939C-12.458,-21.728 -14.287,-24.421 -17.243,-24.411L-21.681,-24.411C-24.128,-24.411 -26.12,-22.42 -26.12,-19.973L-26.12,-18.939C-27.359,-18.549 -28.56,-18.05 -29.713,-17.446L-30.448,-18.18C-32.177,-19.91 -34.994,-19.91 -36.724,-18.18L-39.862,-15.042C-41.954,-12.983 -41.346,-9.737 -39.127,-8.031C-39.732,-6.878 -40.23,-5.678 -40.621,-4.438L-41.654,-4.438C-44.101,-4.438 -46.093,-2.446 -46.093,0.001L-46.093,4.439C-46.093,7.395 -43.421,9.224 -40.62,8.877C-40.23,10.117 -39.732,11.318 -39.127,12.471L-39.862,13.205C-41.594,14.935 -41.594,17.752 -39.862,19.482L-36.724,22.62C-34.994,24.349 -32.177,24.349 -30.448,22.62L-29.713,21.885C-28.56,22.49 -27.359,22.988 -26.12,23.378C-26.466,26.168 -24.637,28.86 -21.681,28.851L-17.243,28.851C-14.286,28.851 -12.458,26.179 -12.804,23.378C-11.564,22.988 -10.364,22.49 -9.211,21.885C-7.511,24.095 -4.254,24.716 -2.2,22.62L0.938,19.482C3.03,17.422 2.422,14.176 0.204,12.471C0.808,11.318 1.307,10.117 1.697,8.877L2.731,8.877Z" style="fill:rgb(235,38,42);fill-rule:nonzero;"/>
                </g>
                <g transform="matrix(1,0,0,1,705.677,1466.72)">
                    <path d="M0,-14.017C-2.754,-12.854 -0.442,-9.972 -0.667,-7.884C-1.037,3.846 -18.052,3.847 -18.422,-7.884C-18.538,-14.031 -11.943,-18.472 -6.281,-16.154C-3.543,-15.162 -1.978,-19.198 -4.686,-20.298C-13.171,-23.756 -23.035,-17.085 -22.86,-7.884C-22.235,9.739 3.148,9.736 3.771,-7.884C3.671,-10.187 3.377,-14.984 0,-14.017Z" style="fill:rgb(235,38,42);fill-rule:nonzero;"/>
                </g>
                <g transform="matrix(1,0,0,1,656.186,1398.93)">
                    <path d="M0,35.508C-22.21,34.8 -24.039,3.549 -2.219,0.154L-2.219,17.754C-2.219,18.043 -2.16,18.331 -2.048,18.602C-1.721,19.418 -0.877,19.979 0,19.973L17.6,19.973C16.502,28.717 9.036,35.508 0,35.508M14.007,6.885C15.916,9.339 17.194,12.3 17.6,15.535L5.357,15.535L14.007,6.885ZM2.219,0.154C5.454,0.56 8.415,1.838 10.869,3.747L2.219,12.397L2.219,0.154ZM22.193,17.754C22.19,5.519 12.235,-4.436 0,-4.439C-29.436,-3.221 -29.437,38.729 0,39.947C12.236,39.946 22.193,29.99 22.193,17.754" style="fill:rgb(235,38,42);fill-rule:nonzero;"/>
                </g>
                <g transform="matrix(-1,0,0,1,1508.76,193.812)">
                    <rect x="565.657" y="1000.54" width="377.448" height="626.22" style="fill:rgb(7,7,7);stroke:white;stroke-width:2px;"/>
                </g>
                <g transform="matrix(1,0,0,1,656.076,1367.98)">
                    <path d="M0,4.438C2.917,4.389 2.917,0.049 0,0C-2.917,0.049 -2.917,4.389 0,4.438" style="fill:rgb(235,38,42);fill-rule:nonzero;"/>
                </g>
                <g>
                    <g transform="matrix(1,0,0,1,649.28,1464.79)">
                        <path d="M0,-95.921C1.43,-102.895 11.592,-102.926 13.036,-95.947C13.478,-93.86 15.316,-92.345 17.405,-92.345L22.331,-92.345L22.331,-85.681L-8.738,-85.681L-8.738,-92.345L-4.343,-92.345C-2.265,-92.345 -0.438,-93.851 0,-95.921M44.524,-90.126L44.524,-85.681L26.77,-85.681L26.77,-92.345L42.305,-92.345C43.529,-92.345 44.524,-91.35 44.524,-90.126M-28.712,9.74L16.25,9.74C17.477,9.74 18.469,8.748 18.469,7.521C18.469,6.295 17.477,5.302 16.25,5.302L-28.712,5.302C-29.936,5.302 -30.931,4.307 -30.931,3.083L-30.931,-90.126C-30.931,-91.35 -29.936,-92.345 -28.712,-92.345L-13.177,-92.345L-13.177,-85.681L-22.054,-85.681C-24.961,-85.625 -24.982,-81.298 -22.054,-81.242L44.524,-81.242L44.524,-43.521C44.524,-42.295 45.516,-41.302 46.743,-41.302C47.97,-41.302 48.962,-42.295 48.962,-43.521L48.962,-90.126C48.962,-93.797 45.976,-96.784 42.305,-96.784C37.179,-96.789 22.23,-96.753 17.377,-96.875C16.263,-102.048 11.803,-105.661 6.53,-105.661C1.242,-105.661 -3.229,-102.037 -4.343,-96.784L-28.712,-96.784C-32.383,-96.784 -35.369,-93.797 -35.369,-90.126L-35.369,3.083C-35.369,6.754 -32.383,9.74 -28.712,9.74" style="fill:rgb(235,38,42);fill-rule:nonzero;"/>
                    </g>
                    <g transform="matrix(1,0,0,1,715.484,1454.56)">
                        <path d="M0,4.438C-1.036,4.438 -1.933,5.155 -2.163,6.165C-2.607,8.111 -3.374,9.958 -4.443,11.655C-5.714,13.579 -3.32,15.129 -2.2,16.343L-5.338,19.481L-7.273,17.546C-8.008,16.809 -9.15,16.685 -10.026,17.238C-11.723,18.306 -13.569,19.073 -15.515,19.518C-17.797,20.018 -17.164,22.729 -17.242,24.411L-21.681,24.411C-21.756,22.707 -21.133,20.02 -23.408,19.518C-25.354,19.073 -27.201,18.306 -28.898,17.238C-29.77,16.687 -30.913,16.808 -31.65,17.546L-33.586,19.481L-36.724,16.343L-34.788,14.407C-34.056,13.675 -33.928,12.533 -34.481,11.655C-35.549,9.958 -36.316,8.112 -36.761,6.165C-37.261,3.883 -39.972,4.516 -41.654,4.438L-41.654,0C-39.949,-0.076 -37.263,0.547 -36.761,-1.728C-36.316,-3.674 -35.549,-5.52 -34.481,-7.217C-33.928,-8.095 -34.056,-9.237 -34.788,-9.97L-36.724,-11.905L-33.586,-15.043C-32.344,-13.898 -30.838,-11.538 -28.898,-12.8C-27.201,-13.869 -25.354,-14.636 -23.408,-15.08C-22.398,-15.31 -21.681,-16.207 -21.681,-17.243L-21.681,-19.974L-17.242,-19.974L-17.242,-17.243C-17.242,-16.207 -16.525,-15.31 -15.515,-15.08C-13.569,-14.636 -11.723,-13.869 -10.026,-12.8C-8.105,-11.527 -6.551,-13.923 -5.338,-15.043L-2.2,-11.905C-3.345,-10.662 -5.703,-9.161 -4.443,-7.217C-3.374,-5.52 -2.607,-3.674 -2.163,-1.728C-1.933,-0.718 -1.036,0 0,0L2.731,0L2.731,4.438L0,4.438ZM2.731,8.877C5.178,8.877 7.169,6.885 7.169,4.438L7.169,0C7.169,-2.957 4.497,-4.785 1.697,-4.439C1.307,-5.679 0.808,-6.879 0.204,-8.032C2.415,-9.733 3.038,-12.989 0.938,-15.043L-2.2,-18.181C-4.259,-20.27 -7.506,-19.664 -9.211,-17.447C-10.364,-18.051 -11.564,-18.55 -12.804,-18.94C-12.458,-21.729 -14.287,-24.422 -17.243,-24.412L-21.681,-24.412C-24.128,-24.412 -26.12,-22.421 -26.12,-19.974L-26.12,-18.94C-27.359,-18.55 -28.56,-18.051 -29.713,-17.447L-30.448,-18.181C-32.177,-19.911 -34.994,-19.911 -36.724,-18.181L-39.862,-15.043C-41.954,-12.984 -41.346,-9.738 -39.127,-8.032C-39.732,-6.879 -40.23,-5.679 -40.62,-4.439L-41.654,-4.439C-44.101,-4.439 -46.093,-2.447 -46.093,0L-46.093,4.438C-46.093,7.394 -43.421,9.223 -40.62,8.876C-40.23,10.116 -39.732,11.317 -39.127,12.47L-39.862,13.205C-41.594,14.934 -41.594,17.751 -39.862,19.481L-36.724,22.619C-34.994,24.349 -32.177,24.349 -30.448,22.619L-29.713,21.884C-28.56,22.489 -27.359,22.987 -26.12,23.378C-26.466,26.167 -24.637,28.86 -21.681,28.85L-17.242,28.85C-14.286,28.85 -12.458,26.178 -12.804,23.377C-11.564,22.987 -10.364,22.489 -9.211,21.884C-7.511,24.094 -4.254,24.715 -2.2,22.619L0.938,19.481C3.03,17.421 2.422,14.175 0.204,12.47C0.808,11.317 1.307,10.116 1.697,8.877L2.731,8.877Z" style="fill:rgb(235,38,42);fill-rule:nonzero;"/>
                    </g>
                    <g transform="matrix(1,0,0,1,705.567,1464.66)">
                        <path d="M0,-14.017C-2.754,-12.854 -0.442,-9.972 -0.667,-7.884C-1.037,3.846 -18.052,3.847 -18.422,-7.884C-18.538,-14.031 -11.943,-18.472 -6.281,-16.154C-3.543,-15.162 -1.978,-19.198 -4.686,-20.298C-13.171,-23.756 -23.035,-17.085 -22.86,-7.883C-22.235,9.739 3.148,9.736 3.771,-7.884C3.671,-10.187 3.377,-14.984 0,-14.017Z" style="fill:rgb(235,38,42);fill-rule:nonzero;"/>
                    </g>
                    <g transform="matrix(1,0,0,1,656.076,1396.86)">
                        <path d="M0,35.508C-22.21,34.8 -24.039,3.549 -2.219,0.154L-2.219,17.754C-2.219,18.043 -2.16,18.331 -2.048,18.602C-1.721,19.418 -0.877,19.979 0,19.973L17.6,19.973C16.502,28.717 9.036,35.508 0,35.508M14.007,6.885C15.916,9.339 17.194,12.3 17.6,15.535L5.357,15.535L14.007,6.885ZM2.219,0.154C5.454,0.56 8.415,1.838 10.869,3.747L2.219,12.397L2.219,0.154ZM22.193,17.754C22.19,5.519 12.235,-4.436 0,-4.439C-29.436,-3.221 -29.437,38.729 0,39.947C12.236,39.947 22.193,29.99 22.193,17.754" style="fill:rgb(235,38,42);fill-rule:nonzero;"/>
                    </g>
                </g>
            </g>
        </g>
    </g>
</svg>
