<?xml version="1.0" encoding="UTF-8" standalone="no"?>
<!DOCTYPE svg PUBLIC "-//W3C//DTD SVG 1.1//EN" "http://www.w3.org/Graphics/SVG/1.1/DTD/svg11.dtd">
<svg width="100%" height="100%" viewBox="0 0 1027 911" version="1.1" xmlns="http://www.w3.org/2000/svg" xmlns:xlink="http://www.w3.org/1999/xlink" xml:space="preserve" xmlns:serif="http://www.serif.com/" style="fill-rule:evenodd;clip-rule:evenodd;stroke-miterlimit:10;">
    <g transform="matrix(1,0,0,1,-4930.71,-31030.9)">
        <g id="Page-1" serif:id="Page 1" transform="matrix(8.33333,0,0,8.33333,0,0)">
            <rect x="0" y="0" width="1920" height="8614.75" style="fill:none;"/>
            <clipPath id="_clip1">
                <rect x="0" y="0" width="1920" height="8614.75"/>
            </clipPath>
            <g clip-path="url(#_clip1)">
                <g id="Layer-1" serif:id="Layer 1">
                    <g transform="matrix(1,0,0,-1,0,-2150.63)">
                        <rect x="0" y="-8614.75" width="1920" height="6464.11" style="fill-rule:nonzero;"/>
                    </g>
                    <g transform="matrix(-1,0,0,1,1910.3,-1051.71)">
                        <rect x="-6.529" y="4296.77" width="1923.35" height="1072.92" style="fill:rgb(7,7,7);"/>
                    </g>
                    <g transform="matrix(-1,0,0,1,1463.59,-890.612)">
                        <rect x="543.073" y="4439.57" width="377.448" height="626.22" style="fill:rgb(7,7,7);stroke:white;stroke-width:2px;"/>
                    </g>
                    <g>
                        <g transform="matrix(1,0,0,1,672.016,3746.78)">
                            <path d="M0,63.243C-0.681,63.924 -0.681,65.03 0,65.711L19.954,85.666C20.604,86.316 21.772,86.316 22.422,85.666L42.377,65.711C42.707,65.381 42.888,64.943 42.888,64.477C42.888,63.515 42.105,62.732 41.143,62.731L32.911,62.731L32.911,-21.328C32.911,-22.29 32.128,-23.073 31.166,-23.073L11.211,-23.073C10.249,-23.073 9.465,-22.29 9.465,-21.328L9.465,17.424C9.465,18.387 10.249,19.17 11.211,19.17C12.173,19.17 12.957,18.387 12.957,17.424L12.957,-19.583L29.42,-19.583L29.42,64.477C29.42,65.439 30.203,66.222 31.166,66.222L36.93,66.222L21.188,81.964L5.447,66.222L11.211,66.222C12.173,66.222 12.957,65.439 12.957,64.477L12.957,39.693C12.957,38.731 12.173,37.948 11.211,37.948C10.249,37.948 9.465,38.731 9.465,39.693L9.465,62.731L1.233,62.731C0.768,62.732 0.329,62.914 0,63.243" style="fill:rgb(235,38,42);fill-rule:nonzero;"/>
                        </g>
                        <g transform="matrix(1,0,0,1,623.363,3833.1)">
                            <path d="M0,-109.395L-19.955,-109.395C-20.917,-109.395 -21.7,-108.612 -21.7,-107.65L-21.7,-23.59L-29.932,-23.59C-30.398,-23.589 -30.836,-23.408 -31.166,-23.079C-31.496,-22.749 -31.677,-22.311 -31.677,-21.844C-31.677,-21.378 -31.496,-20.941 -31.166,-20.611L-11.211,-0.656C-10.557,0 -9.4,0 -8.743,-0.656L11.211,-20.611C11.541,-20.94 11.722,-21.378 11.722,-21.844C11.723,-22.806 10.94,-23.589 9.978,-23.59L1.746,-23.59L1.746,-46.628C1.746,-47.59 0.962,-48.374 0,-48.374C-0.962,-48.374 -1.746,-47.59 -1.746,-46.628L-1.746,-21.844C-1.746,-20.882 -0.962,-20.099 0,-20.099L5.764,-20.099L-9.978,-4.358L-25.719,-20.099L-19.955,-20.099C-18.992,-20.099 -18.209,-20.882 -18.209,-21.844L-18.209,-105.905L-1.746,-105.905L-1.746,-68.898C-1.746,-67.935 -0.962,-67.152 0,-67.152C0.962,-67.152 1.746,-67.935 1.746,-68.898L1.746,-107.65C1.746,-108.612 0.962,-109.395 0,-109.395" style="fill:rgb(235,38,42);fill-rule:nonzero;"/>
                        </g>
                        <g transform="matrix(1,0,0,1,663.272,3746.75)">
                            <path d="M0,-23.046L-19.955,-23.046C-20.917,-23.046 -21.7,-22.263 -21.7,-21.301L-21.7,-1.745C-21.7,-0.783 -20.917,0 -19.955,0C-18.993,0 -18.209,-0.783 -18.209,-1.745L-18.209,-19.556L-1.746,-19.556L-1.746,-1.745C-1.746,-0.783 -0.962,0 0,0C0.962,0 1.745,-0.783 1.745,-1.745L1.745,-21.301C1.745,-22.263 0.962,-23.046 0,-23.046" style="fill:rgb(235,38,42);fill-rule:nonzero;"/>
                        </g>
                        <g transform="matrix(1,0,0,1,653.295,3745.16)">
                            <path d="M0,60.365C-16.643,60.365 -30.182,46.825 -30.182,30.182C-30.182,13.54 -16.643,0.001 0,0.001C16.624,0.019 30.164,13.558 30.182,30.182C30.182,46.825 16.643,60.365 0,60.365M0,-3.49C-18.567,-3.49 -33.673,11.615 -33.673,30.182C-33.673,48.749 -18.566,63.853 0,63.855C18.547,63.835 33.652,48.729 33.673,30.182C33.673,11.615 18.567,-3.49 0,-3.49" style="fill:rgb(235,38,42);fill-rule:nonzero;"/>
                        </g>
                    </g>
                    <g transform="matrix(1,0,0,1,641.572,3765.39)">
                        <path d="M0,19.931C0,20.893 0.783,21.676 1.745,21.676C2.211,21.676 2.65,21.494 2.979,21.165L22.934,1.21C23.588,0.534 23.588,-0.532 22.931,-1.212C22.607,-1.548 22.172,-1.736 21.706,-1.745L21.675,-1.745C21.22,-1.745 20.791,-1.571 20.463,-1.255L0.511,18.697C0.182,19.026 0,19.464 0,19.931" style="fill:rgb(235,38,42);fill-rule:nonzero;"/>
                    </g>
                    <g transform="matrix(1,0,0,1,661.277,3781.08)">
                        <path d="M0,4.49C-1.238,4.49 -2.246,3.483 -2.246,2.245C-2.246,1.007 -1.238,-0.001 0,-0.001C1.238,-0.001 2.246,1.007 2.246,2.245C2.246,3.483 1.238,4.49 0,4.49M0,-3.491C-3.163,-3.491 -5.736,-0.918 -5.736,2.245C-5.736,5.408 -3.163,7.981 0,7.981C3.163,7.981 5.736,5.408 5.736,2.245C5.736,-0.918 3.163,-3.491 0,-3.491" style="fill:rgb(235,38,42);fill-rule:nonzero;"/>
                    </g>
                    <g transform="matrix(1,0,0,1,645.313,3765.11)">
                        <path d="M0,4.49C-1.238,4.49 -2.246,3.483 -2.246,2.245C-2.246,1.007 -1.238,-0.001 0,-0.001C1.238,-0.001 2.246,1.007 2.246,2.245C2.246,3.483 1.238,4.49 0,4.49M0,-3.491C-3.163,-3.491 -5.736,-0.918 -5.736,2.245C-5.736,5.408 -3.163,7.981 0,7.981C3.163,7.981 5.736,5.408 5.736,2.245C5.736,-0.918 3.163,-3.491 0,-3.491" style="fill:rgb(235,38,42);fill-rule:nonzero;"/>
                    </g>
                </g>
            </g>
        </g>
    </g>
</svg>
